<?xml version="1.0" encoding="UTF-8" standalone="no"?><svg xmlns="http://www.w3.org/2000/svg" xmlns:xlink="http://www.w3.org/1999/xlink" contentScriptType="application/ecmascript" contentStyleType="text/css" height="524px" preserveAspectRatio="none" style="width:512px;height:524px;" version="1.1" viewBox="0 0 512 524" width="512px" zoomAndPan="magnify"><defs><filter height="300%" id="f4a7z6qsnq5n" width="300%" x="-1" y="-1"><feGaussianBlur result="blurOut" stdDeviation="2.0"/><feColorMatrix in="blurOut" result="blurOut2" type="matrix" values="0 0 0 0 0 0 0 0 0 0 0 0 0 0 0 0 0 0 .4 0"/><feOffset dx="4.0" dy="4.0" in="blurOut2" result="blurOut3"/><feBlend in="SourceGraphic" in2="blurOut3" mode="normal"/></filter></defs><g><!--MD5=[850b37b0b8d882ee2cad74ae2a956f48]
cluster edu.oakland.helper.admin--><polygon fill="#FFFFFF" filter="url(#f4a7z6qsnq5n)" points="22,24,232,24,239,46.2969,490,46.2969,490,512,22,512,22,24" style="stroke: #000000; stroke-width: 1.5;"/><line style="stroke: #000000; stroke-width: 1.5;" x1="22" x2="239" y1="46.2969" y2="46.2969"/><text fill="#000000" font-family="sans-serif" font-size="14" font-weight="bold" lengthAdjust="spacingAndGlyphs" textLength="204" x="26" y="38.9951">edu.oakland.helper.admin</text><!--MD5=[a664fa1bf59865fa43f25e28dac38862]
class TrackData--><rect fill="#FEFECE" filter="url(#f4a7z6qsnq5n)" height="214.4609" id="TrackData" style="stroke: #A80036; stroke-width: 1.5;" width="437" x="37.5" y="59"/><ellipse cx="219.75" cy="75" fill="#ADD1B2" rx="11" ry="11" style="stroke: #A80036; stroke-width: 1.0;"/><path d="M222.7188,80.6406 Q222.1406,80.9375 221.5,81.0781 Q220.8594,81.2344 220.1563,81.2344 Q217.6563,81.2344 216.3281,79.5938 Q215.0156,77.9375 215.0156,74.8125 Q215.0156,71.6875 216.3281,70.0313 Q217.6563,68.375 220.1563,68.375 Q220.8594,68.375 221.5,68.5313 Q222.1563,68.6875 222.7188,68.9844 L222.7188,71.7031 Q222.0938,71.125 221.5,70.8594 Q220.9063,70.5781 220.2813,70.5781 Q218.9375,70.5781 218.25,71.6563 Q217.5625,72.7188 217.5625,74.8125 Q217.5625,76.9063 218.25,77.9844 Q218.9375,79.0469 220.2813,79.0469 Q220.9063,79.0469 221.5,78.7813 Q222.0938,78.5 222.7188,77.9219 L222.7188,80.6406 Z "/><text fill="#000000" font-family="sans-serif" font-size="12" lengthAdjust="spacingAndGlyphs" textLength="64" x="240.25" y="79.1543">TrackData</text><line style="stroke: #A80036; stroke-width: 1.5;" x1="38.5" x2="473.5" y1="91" y2="91"/><rect fill="none" height="6" style="stroke: #C82930; stroke-width: 1.0;" width="6" x="45.5" y="99"/><text fill="#000000" font-family="sans-serif" font-size="11" lengthAdjust="spacingAndGlyphs" textLength="148" x="57.5" y="105.2104">LocationDataPoint[] points</text><rect fill="none" height="6" style="stroke: #C82930; stroke-width: 1.0;" width="6" x="45.5" y="111.8047"/><text fill="#000000" font-family="sans-serif" font-size="11" lengthAdjust="spacingAndGlyphs" textLength="118" x="57.5" y="118.0151">float courseDirection</text><rect fill="none" height="6" style="stroke: #C82930; stroke-width: 1.0;" width="6" x="45.5" y="124.6094"/><text fill="#000000" font-family="sans-serif" font-size="11" lengthAdjust="spacingAndGlyphs" textLength="64" x="57.5" y="130.8198">float speed</text><rect fill="none" height="6" style="stroke: #C82930; stroke-width: 1.0;" width="6" x="45.5" y="137.4141"/><text fill="#000000" font-family="sans-serif" font-size="11" lengthAdjust="spacingAndGlyphs" textLength="101" x="57.5" y="143.6245">boolean validData</text><rect fill="none" height="6" style="stroke: #C82930; stroke-width: 1.0;" width="6" x="45.5" y="150.2188"/><text fill="#000000" font-family="sans-serif" font-size="11" lengthAdjust="spacingAndGlyphs" textLength="125" x="57.5" y="156.4292">String statusMessage</text><line style="stroke: #A80036; stroke-width: 1.5;" x1="38.5" x2="473.5" y1="163.0234" y2="163.0234"/><ellipse cx="48.5" cy="174.0234" fill="#84BE84" rx="3" ry="3" style="stroke: #038048; stroke-width: 1.0;"/><text fill="#000000" font-family="sans-serif" font-size="11" lengthAdjust="spacingAndGlyphs" textLength="213" x="57.5" y="177.2339">TrackData(LocationDataPoint[] points)</text><ellipse cx="48.5" cy="186.8281" fill="#84BE84" rx="3" ry="3" style="stroke: #038048; stroke-width: 1.0;"/><text fill="#000000" font-family="sans-serif" font-size="11" lengthAdjust="spacingAndGlyphs" textLength="411" x="57.5" y="190.0386">TrackData(LocationDataPoint[] points, float courseDirection, float speed)</text><ellipse cx="48.5" cy="199.6328" fill="#84BE84" rx="3" ry="3" style="stroke: #038048; stroke-width: 1.0;"/><text fill="#000000" font-family="sans-serif" font-size="11" lengthAdjust="spacingAndGlyphs" textLength="94" x="57.5" y="202.8433">boolean isValid()</text><ellipse cx="48.5" cy="212.4375" fill="#84BE84" rx="3" ry="3" style="stroke: #038048; stroke-width: 1.0;"/><text fill="#000000" font-family="sans-serif" font-size="11" lengthAdjust="spacingAndGlyphs" textLength="146" x="57.5" y="215.6479">float getCourseDirection()</text><ellipse cx="48.5" cy="225.2422" fill="#84BE84" rx="3" ry="3" style="stroke: #038048; stroke-width: 1.0;"/><text fill="#000000" font-family="sans-serif" font-size="11" lengthAdjust="spacingAndGlyphs" textLength="91" x="57.5" y="228.4526">float getSpeed()</text><ellipse cx="48.5" cy="238.0469" fill="#84BE84" rx="3" ry="3" style="stroke: #038048; stroke-width: 1.0;"/><text fill="#000000" font-family="sans-serif" font-size="11" lengthAdjust="spacingAndGlyphs" textLength="247" x="57.5" y="241.2573">LocationDataPoint[] getLocationDataPoints()</text><ellipse cx="48.5" cy="250.8516" fill="#84BE84" rx="3" ry="3" style="stroke: #038048; stroke-width: 1.0;"/><text fill="#000000" font-family="sans-serif" font-size="11" lengthAdjust="spacingAndGlyphs" textLength="152" x="57.5" y="254.062">String getStatusMessage()</text><ellipse cx="48.5" cy="263.6563" fill="#84BE84" rx="3" ry="3" style="stroke: #038048; stroke-width: 1.0;"/><text fill="#000000" font-family="sans-serif" font-size="11" lengthAdjust="spacingAndGlyphs" textLength="266" x="57.5" y="266.8667">void setStatusMessage(String statusMessage)</text><!--MD5=[478f5cd13d8e163685b267303d2bfb71]
class LocationDataPoint--><rect fill="#FEFECE" filter="url(#f4a7z6qsnq5n)" height="163.2422" id="LocationDataPoint" style="stroke: #A80036; stroke-width: 1.5;" width="352" x="80" y="333"/><ellipse cx="194.25" cy="349" fill="#ADD1B2" rx="11" ry="11" style="stroke: #A80036; stroke-width: 1.0;"/><path d="M197.2188,354.6406 Q196.6406,354.9375 196,355.0781 Q195.3594,355.2344 194.6563,355.2344 Q192.1563,355.2344 190.8281,353.5938 Q189.5156,351.9375 189.5156,348.8125 Q189.5156,345.6875 190.8281,344.0313 Q192.1563,342.375 194.6563,342.375 Q195.3594,342.375 196,342.5313 Q196.6563,342.6875 197.2188,342.9844 L197.2188,345.7031 Q196.5938,345.125 196,344.8594 Q195.4063,344.5781 194.7813,344.5781 Q193.4375,344.5781 192.75,345.6563 Q192.0625,346.7188 192.0625,348.8125 Q192.0625,350.9063 192.75,351.9844 Q193.4375,353.0469 194.7813,353.0469 Q195.4063,353.0469 196,352.7813 Q196.5938,352.5 197.2188,351.9219 L197.2188,354.6406 Z "/><text fill="#000000" font-family="sans-serif" font-size="12" lengthAdjust="spacingAndGlyphs" textLength="115" x="214.75" y="353.1543">LocationDataPoint</text><line style="stroke: #A80036; stroke-width: 1.5;" x1="81" x2="431" y1="365" y2="365"/><rect fill="none" height="6" style="stroke: #C82930; stroke-width: 1.0;" width="6" x="88" y="373"/><text fill="#000000" font-family="sans-serif" font-size="11" lengthAdjust="spacingAndGlyphs" textLength="43" x="100" y="379.2104">float lat</text><rect fill="none" height="6" style="stroke: #C82930; stroke-width: 1.0;" width="6" x="88" y="385.8047"/><text fill="#000000" font-family="sans-serif" font-size="11" lengthAdjust="spacingAndGlyphs" textLength="46" x="100" y="392.0151">float lng</text><rect fill="none" height="6" style="stroke: #C82930; stroke-width: 1.0;" width="6" x="88" y="398.6094"/><text fill="#000000" font-family="sans-serif" font-size="11" lengthAdjust="spacingAndGlyphs" textLength="112" x="100" y="404.8198">LocalDateTime time</text><line style="stroke: #A80036; stroke-width: 1.5;" x1="81" x2="431" y1="411.4141" y2="411.4141"/><ellipse cx="91" cy="422.4141" fill="#84BE84" rx="3" ry="3" style="stroke: #038048; stroke-width: 1.0;"/><text fill="#000000" font-family="sans-serif" font-size="11" lengthAdjust="spacingAndGlyphs" textLength="326" x="100" y="425.6245">LocationDataPoint(float lat, float lng, LocalDateTime time)</text><ellipse cx="91" cy="435.2188" fill="#84BE84" rx="3" ry="3" style="stroke: #038048; stroke-width: 1.0;"/><text fill="#000000" font-family="sans-serif" font-size="11" lengthAdjust="spacingAndGlyphs" textLength="72" x="100" y="438.4292">float getLat()</text><ellipse cx="91" cy="448.0234" fill="#84BE84" rx="3" ry="3" style="stroke: #038048; stroke-width: 1.0;"/><text fill="#000000" font-family="sans-serif" font-size="11" lengthAdjust="spacingAndGlyphs" textLength="75" x="100" y="451.2339">float getLng()</text><ellipse cx="91" cy="460.8281" fill="#84BE84" rx="3" ry="3" style="stroke: #038048; stroke-width: 1.0;"/><text fill="#000000" font-family="sans-serif" font-size="11" lengthAdjust="spacingAndGlyphs" textLength="141" x="100" y="464.0386">LocalDateTime getTime()</text><rect fill="#F24D5C" height="6" style="stroke: #C82930; stroke-width: 1.0;" width="6" x="88" y="470.6328"/><text fill="#000000" font-family="sans-serif" font-size="11" lengthAdjust="spacingAndGlyphs" textLength="255" x="100" y="476.8433">float[] normalizeLatAndLng(float lat, float lng)</text><rect fill="#F24D5C" height="6" style="stroke: #C82930; stroke-width: 1.0;" width="6" x="88" y="483.4375"/><text fill="#000000" font-family="sans-serif" font-size="11" lengthAdjust="spacingAndGlyphs" textLength="158" x="100" y="489.6479">float normalizeLng(float lng)</text><!--MD5=[a834184dfe29b3f363d293bc852e6e04]
link TrackData to LocationDataPoint--><path d="M256,285.33 C256,285.33 256,308.84 256,319.72 " fill="none" id="TrackData-LocationDataPoint" style="stroke: #A80036; stroke-width: 1.0;"/><polygon fill="#A80036" points="256,332.8,260,323.8,256,327.8,252,323.8,256,332.8" style="stroke: #A80036; stroke-width: 1.0;"/><line style="stroke: #A80036; stroke-width: 1.0;" x1="256" x2="256" y1="327.8" y2="319.8"/><polygon fill="#FFFFFF" points="256,273.33,252,279.33,256,285.33,260,279.33,256,273.33" style="stroke: #A80036; stroke-width: 1.0;"/><!--MD5=[6552adbba36fe66155d2458484deee10]
@startuml TrackData_DirectDependencies


package edu.oakland.helper.admin {
    class TrackData {
        - LocationDataPoint[] points
        - float courseDirection
        - float speed
        - boolean validData
        - String statusMessage
        + TrackData(LocationDataPoint[] points)
        + TrackData(LocationDataPoint[] points, float courseDirection, float speed)
        + boolean isValid()
        + float getCourseDirection()
        + float getSpeed()
        + LocationDataPoint[] getLocationDataPoints()
        + String getStatusMessage()
        + void setStatusMessage(String statusMessage)
    }
}



package edu.oakland.helper.admin {
    class LocationDataPoint {
        - float lat
        - float lng
        - LocalDateTime time
        + LocationDataPoint(float lat, float lng, LocalDateTime time)
        + float getLat()
        + float getLng()
        + LocalDateTime getTime()
        - float[] normalizeLatAndLng(float lat, float lng)
        - float normalizeLng(float lng)
    }
}

TrackData o- -> LocationDataPoint





@enduml

PlantUML version 1.2020.02(Sun Mar 01 10:22:07 GMT 2020)
(GPL source distribution)
Java Runtime: OpenJDK Runtime Environment
JVM: OpenJDK 64-Bit Server VM
Java Version: 11.0.9+11-Ubuntu-0ubuntu1
Operating System: Linux
Default Encoding: ANSI_X3.4-1968
Language: en
Country: US
--></g></svg>