<?xml version="1.0" encoding="UTF-8" standalone="no"?><svg xmlns="http://www.w3.org/2000/svg" xmlns:xlink="http://www.w3.org/1999/xlink" contentScriptType="application/ecmascript" contentStyleType="text/css" height="477px" preserveAspectRatio="none" style="width:3106px;height:477px;" version="1.1" viewBox="0 0 3106 477" width="3106px" zoomAndPan="magnify"><defs><filter height="300%" id="f19vjoesmli81o" width="300%" x="-1" y="-1"><feGaussianBlur result="blurOut" stdDeviation="2.0"/><feColorMatrix in="blurOut" result="blurOut2" type="matrix" values="0 0 0 0 0 0 0 0 0 0 0 0 0 0 0 0 0 0 .4 0"/><feOffset dx="4.0" dy="4.0" in="blurOut2" result="blurOut3"/><feBlend in="SourceGraphic" in2="blurOut3" mode="normal"/></filter></defs><g><!--MD5=[fe59aae6f7bfe371a9c197ec1f7f843a]
cluster edu.oakland.production.display02--><polygon fill="#FFFFFF" filter="url(#f19vjoesmli81o)" points="1681,28,1954,28,1961,50.2969,3084,50.2969,3084,414,1681,414,1681,28" style="stroke: #000000; stroke-width: 1.5;"/><line style="stroke: #000000; stroke-width: 1.5;" x1="1681" x2="1961" y1="50.2969" y2="50.2969"/><text fill="#000000" font-family="sans-serif" font-size="14" font-weight="bold" lengthAdjust="spacingAndGlyphs" textLength="267" x="1685" y="42.9951">edu.oakland.production.display02</text><!--MD5=[9258003ec405d300d3379b4a3d8dd6ad]
cluster edu.oakland.test.display02--><polygon fill="#FFFFFF" filter="url(#f19vjoesmli81o)" points="368,24,586,24,593,46.2969,1657,46.2969,1657,382,368,382,368,24" style="stroke: #000000; stroke-width: 1.5;"/><line style="stroke: #000000; stroke-width: 1.5;" x1="368" x2="593" y1="46.2969" y2="46.2969"/><text fill="#000000" font-family="sans-serif" font-size="14" font-weight="bold" lengthAdjust="spacingAndGlyphs" textLength="212" x="372" y="38.9951">edu.oakland.test.display02</text><!--MD5=[a502031b5a5384de0a21e6ee820fd3b2]
cluster edu.oakland.helper.display02--><polygon fill="#FFFFFF" filter="url(#f19vjoesmli81o)" points="22,170,260,170,267,192.2969,344,192.2969,344,465,22,465,22,170" style="stroke: #000000; stroke-width: 1.5;"/><line style="stroke: #000000; stroke-width: 1.5;" x1="22" x2="267" y1="192.2969" y2="192.2969"/><text fill="#000000" font-family="sans-serif" font-size="14" font-weight="bold" lengthAdjust="spacingAndGlyphs" textLength="232" x="26" y="184.9951">edu.oakland.helper.display02</text><!--MD5=[c8d1e3134fecb0c949fd2a76cc0bb992]
class DisplayCommInterface--><rect fill="#FEFECE" filter="url(#f19vjoesmli81o)" height="77.6094" id="DisplayCommInterface" style="stroke: #A80036; stroke-width: 1.5;" width="268" x="2749" y="63"/><ellipse cx="2809.25" cy="79" fill="#B4A7E5" rx="11" ry="11" style="stroke: #A80036; stroke-width: 1.0;"/><path d="M2805.1719,74.7656 L2805.1719,72.6094 L2812.5625,72.6094 L2812.5625,74.7656 L2810.0938,74.7656 L2810.0938,82.8438 L2812.5625,82.8438 L2812.5625,85 L2805.1719,85 L2805.1719,82.8438 L2807.6406,82.8438 L2807.6406,74.7656 L2805.1719,74.7656 Z "/><text fill="#000000" font-family="sans-serif" font-size="12" font-style="italic" lengthAdjust="spacingAndGlyphs" textLength="139" x="2829.75" y="83.1543">DisplayCommInterface</text><line style="stroke: #A80036; stroke-width: 1.5;" x1="2750" x2="3016" y1="95" y2="95"/><line style="stroke: #A80036; stroke-width: 1.5;" x1="2750" x2="3016" y1="103" y2="103"/><ellipse cx="2760" cy="130.8047" fill="#84BE84" rx="3" ry="3" style="stroke: #038048; stroke-width: 1.0;"/><text fill="#000000" font-family="sans-serif" font-size="11" font-style="italic" lengthAdjust="spacingAndGlyphs" textLength="242" x="2769" y="134.0151">TrackData receiveRfidRequest(int rfidNum)</text><line style="stroke: #A80036; stroke-width: 1.0; stroke-dasharray: 1.0,2.0;" x1="2750" x2="2850" y1="117.4023" y2="117.4023"/><text fill="#000000" font-family="sans-serif" font-size="11" lengthAdjust="spacingAndGlyphs" textLength="66" x="2850" y="120.7104">Use Case 1</text><line style="stroke: #A80036; stroke-width: 1.0; stroke-dasharray: 1.0,2.0;" x1="2916" x2="3016" y1="117.4023" y2="117.4023"/><!--MD5=[f6b51b5f862da5ce226c62e411e84628]
class DisplayComm2WayInterface--><rect fill="#FEFECE" filter="url(#f19vjoesmli81o)" height="77.6094" id="DisplayComm2WayInterface" style="stroke: #A80036; stroke-width: 1.5;" width="252" x="2182" y="63"/><ellipse cx="2217.7" cy="79" fill="#B4A7E5" rx="11" ry="11" style="stroke: #A80036; stroke-width: 1.0;"/><path d="M2213.6219,74.7656 L2213.6219,72.6094 L2221.0125,72.6094 L2221.0125,74.7656 L2218.5438,74.7656 L2218.5438,82.8438 L2221.0125,82.8438 L2221.0125,85 L2213.6219,85 L2213.6219,82.8438 L2216.0906,82.8438 L2216.0906,74.7656 L2213.6219,74.7656 Z "/><text fill="#000000" font-family="sans-serif" font-size="12" font-style="italic" lengthAdjust="spacingAndGlyphs" textLength="174" x="2236.3" y="83.1543">DisplayComm2WayInterface</text><line style="stroke: #A80036; stroke-width: 1.5;" x1="2183" x2="2433" y1="95" y2="95"/><line style="stroke: #A80036; stroke-width: 1.5;" x1="2183" x2="2433" y1="103" y2="103"/><ellipse cx="2193" cy="130.8047" fill="#84BE84" rx="3" ry="3" style="stroke: #038048; stroke-width: 1.0;"/><text fill="#000000" font-family="sans-serif" font-size="11" font-style="italic" lengthAdjust="spacingAndGlyphs" textLength="226" x="2202" y="134.0151">TrackData passRfidRequest(int rfidNum)</text><line style="stroke: #A80036; stroke-width: 1.0; stroke-dasharray: 1.0,2.0;" x1="2183" x2="2275" y1="117.4023" y2="117.4023"/><text fill="#000000" font-family="sans-serif" font-size="11" lengthAdjust="spacingAndGlyphs" textLength="66" x="2275" y="120.7104">Use Case 1</text><line style="stroke: #A80036; stroke-width: 1.0; stroke-dasharray: 1.0,2.0;" x1="2341" x2="2433" y1="117.4023" y2="117.4023"/><!--MD5=[6aeb72f2773d7cabb45309482beeff0a]
class DisplayCommManager--><rect fill="#FEFECE" filter="url(#f19vjoesmli81o)" height="77.6094" id="DisplayCommManager" style="stroke: #A80036; stroke-width: 1.5;" width="275" x="1746.5" y="63"/><ellipse cx="1811.25" cy="79" fill="#B4A7E5" rx="11" ry="11" style="stroke: #A80036; stroke-width: 1.0;"/><path d="M1807.1719,74.7656 L1807.1719,72.6094 L1814.5625,72.6094 L1814.5625,74.7656 L1812.0938,74.7656 L1812.0938,82.8438 L1814.5625,82.8438 L1814.5625,85 L1807.1719,85 L1807.1719,82.8438 L1809.6406,82.8438 L1809.6406,74.7656 L1807.1719,74.7656 Z "/><text fill="#000000" font-family="sans-serif" font-size="12" font-style="italic" lengthAdjust="spacingAndGlyphs" textLength="137" x="1831.75" y="83.1543">DisplayCommManager</text><line style="stroke: #A80036; stroke-width: 1.5;" x1="1747.5" x2="2020.5" y1="95" y2="95"/><line style="stroke: #A80036; stroke-width: 1.5;" x1="1747.5" x2="2020.5" y1="103" y2="103"/><ellipse cx="1757.5" cy="130.8047" fill="#84BE84" rx="3" ry="3" style="stroke: #038048; stroke-width: 1.0;"/><text fill="#000000" font-family="sans-serif" font-size="11" font-style="italic" lengthAdjust="spacingAndGlyphs" textLength="249" x="1766.5" y="134.0151">TrackData evaluateRfidRequest(int rfidNum)</text><line style="stroke: #A80036; stroke-width: 1.0; stroke-dasharray: 1.0,2.0;" x1="1747.5" x2="1851" y1="117.4023" y2="117.4023"/><text fill="#000000" font-family="sans-serif" font-size="11" lengthAdjust="spacingAndGlyphs" textLength="66" x="1851" y="120.7104">Use Case 1</text><line style="stroke: #A80036; stroke-width: 1.0; stroke-dasharray: 1.0,2.0;" x1="1917" x2="2020.5" y1="117.4023" y2="117.4023"/><!--MD5=[a35092e604da7274febf4e2cf9a25087]
class DisplayCommInterfaceImplementation--><rect fill="#FEFECE" filter="url(#f19vjoesmli81o)" height="116.0234" id="DisplayCommInterfaceImplementation" style="stroke: #A80036; stroke-width: 1.5;" width="369" x="2698.5" y="269"/><ellipse cx="2761.25" cy="285" fill="#ADD1B2" rx="11" ry="11" style="stroke: #A80036; stroke-width: 1.0;"/><path d="M2764.2188,290.6406 Q2763.6406,290.9375 2763,291.0781 Q2762.3594,291.2344 2761.6563,291.2344 Q2759.1563,291.2344 2757.8281,289.5938 Q2756.5156,287.9375 2756.5156,284.8125 Q2756.5156,281.6875 2757.8281,280.0313 Q2759.1563,278.375 2761.6563,278.375 Q2762.3594,278.375 2763,278.5313 Q2763.6563,278.6875 2764.2188,278.9844 L2764.2188,281.7031 Q2763.5938,281.125 2763,280.8594 Q2762.4063,280.5781 2761.7813,280.5781 Q2760.4375,280.5781 2759.75,281.6563 Q2759.0625,282.7188 2759.0625,284.8125 Q2759.0625,286.9063 2759.75,287.9844 Q2760.4375,289.0469 2761.7813,289.0469 Q2762.4063,289.0469 2763,288.7813 Q2763.5938,288.5 2764.2188,287.9219 L2764.2188,290.6406 Z "/><text fill="#000000" font-family="sans-serif" font-size="12" lengthAdjust="spacingAndGlyphs" textLength="235" x="2781.75" y="289.1543">DisplayCommInterfaceImplementation</text><line style="stroke: #A80036; stroke-width: 1.5;" x1="2699.5" x2="3066.5" y1="301" y2="301"/><rect fill="none" height="6" style="stroke: #C82930; stroke-width: 1.0;" width="6" x="2706.5" y="309"/><text fill="#000000" font-family="sans-serif" font-size="11" lengthAdjust="spacingAndGlyphs" textLength="207" x="2718.5" y="315.2104">DisplayComm2WayInterface receiver</text><line style="stroke: #A80036; stroke-width: 1.5;" x1="2699.5" x2="3066.5" y1="321.8047" y2="321.8047"/><ellipse cx="2709.5" cy="332.8047" fill="#84BE84" rx="3" ry="3" style="stroke: #038048; stroke-width: 1.0;"/><text fill="#000000" font-family="sans-serif" font-size="11" lengthAdjust="spacingAndGlyphs" textLength="343" x="2718.5" y="336.0151">DisplayCommInterface(DisplayComm2WayInterface receiver)</text><ellipse cx="2709.5" cy="362.4141" fill="#84BE84" rx="3" ry="3" style="stroke: #038048; stroke-width: 1.0;"/><text fill="#000000" font-family="sans-serif" font-size="11" lengthAdjust="spacingAndGlyphs" textLength="240" x="2718.5" y="365.6245">TrackData receiveRfidRequest(int rfidNum)</text><rect fill="#F24D5C" height="6" style="stroke: #C82930; stroke-width: 1.0;" width="6" x="2706.5" y="372.2188"/><text fill="#000000" font-family="sans-serif" font-size="11" lengthAdjust="spacingAndGlyphs" textLength="290" x="2718.5" y="378.4292">TrackData passToComm2WayInterface(int rfidNum)</text><line style="stroke: #A80036; stroke-width: 1.0; stroke-dasharray: 1.0,2.0;" x1="2699.5" x2="2850" y1="349.0117" y2="349.0117"/><text fill="#000000" font-family="sans-serif" font-size="11" lengthAdjust="spacingAndGlyphs" textLength="66" x="2850" y="352.3198">Use Case 1</text><line style="stroke: #A80036; stroke-width: 1.0; stroke-dasharray: 1.0,2.0;" x1="2916" x2="3066.5" y1="349.0117" y2="349.0117"/><!--MD5=[46657c2900260d4d40350fe3f8c544df]
class DisplayComm2WayInterfaceImplementation--><rect fill="#FEFECE" filter="url(#f19vjoesmli81o)" height="128.8281" id="DisplayComm2WayInterfaceImplementation" style="stroke: #A80036; stroke-width: 1.5;" width="461" x="2202.5" y="262.5"/><ellipse cx="2294.75" cy="278.5" fill="#ADD1B2" rx="11" ry="11" style="stroke: #A80036; stroke-width: 1.0;"/><path d="M2297.7188,284.1406 Q2297.1406,284.4375 2296.5,284.5781 Q2295.8594,284.7344 2295.1563,284.7344 Q2292.6563,284.7344 2291.3281,283.0938 Q2290.0156,281.4375 2290.0156,278.3125 Q2290.0156,275.1875 2291.3281,273.5313 Q2292.6563,271.875 2295.1563,271.875 Q2295.8594,271.875 2296.5,272.0313 Q2297.1563,272.1875 2297.7188,272.4844 L2297.7188,275.2031 Q2297.0938,274.625 2296.5,274.3594 Q2295.9063,274.0781 2295.2813,274.0781 Q2293.9375,274.0781 2293.25,275.1563 Q2292.5625,276.2188 2292.5625,278.3125 Q2292.5625,280.4063 2293.25,281.4844 Q2293.9375,282.5469 2295.2813,282.5469 Q2295.9063,282.5469 2296.5,282.2813 Q2297.0938,282 2297.7188,281.4219 L2297.7188,284.1406 Z "/><text fill="#000000" font-family="sans-serif" font-size="12" lengthAdjust="spacingAndGlyphs" textLength="268" x="2315.25" y="282.6543">DisplayComm2WayInterfaceImplementation</text><line style="stroke: #A80036; stroke-width: 1.5;" x1="2203.5" x2="2662.5" y1="294.5" y2="294.5"/><rect fill="none" height="6" style="stroke: #C82930; stroke-width: 1.0;" width="6" x="2210.5" y="302.5"/><text fill="#000000" font-family="sans-serif" font-size="11" lengthAdjust="spacingAndGlyphs" textLength="182" x="2222.5" y="308.7104">DisplayCommManager manager</text><line style="stroke: #A80036; stroke-width: 1.5;" x1="2203.5" x2="2662.5" y1="315.3047" y2="315.3047"/><ellipse cx="2213.5" cy="326.3047" fill="#84BE84" rx="3" ry="3" style="stroke: #038048; stroke-width: 1.0;"/><text fill="#000000" font-family="sans-serif" font-size="11" lengthAdjust="spacingAndGlyphs" textLength="435" x="2222.5" y="329.5151">DisplayComm2WayInterfaceImplementation(DisplayCommManager manager)</text><ellipse cx="2213.5" cy="355.9141" fill="#84BE84" rx="3" ry="3" style="stroke: #038048; stroke-width: 1.0;"/><text fill="#000000" font-family="sans-serif" font-size="11" lengthAdjust="spacingAndGlyphs" textLength="227" x="2222.5" y="359.1245">TrackData passRfidRequest(int rfidNum)</text><rect fill="#F24D5C" height="6" style="stroke: #C82930; stroke-width: 1.0;" width="6" x="2210.5" y="365.7188"/><text fill="#000000" font-family="sans-serif" font-size="11" lengthAdjust="spacingAndGlyphs" textLength="269" x="2222.5" y="371.9292">void determineUserRequestFormat(int rfidNum)</text><rect fill="#F24D5C" height="6" style="stroke: #C82930; stroke-width: 1.0;" width="6" x="2210.5" y="378.5234"/><text fill="#000000" font-family="sans-serif" font-size="11" lengthAdjust="spacingAndGlyphs" textLength="342" x="2222.5" y="384.7339">void receiveRequestFromDisplayCommInterface(int rfidNum)</text><line style="stroke: #A80036; stroke-width: 1.0; stroke-dasharray: 1.0,2.0;" x1="2203.5" x2="2400" y1="342.5117" y2="342.5117"/><text fill="#000000" font-family="sans-serif" font-size="11" lengthAdjust="spacingAndGlyphs" textLength="66" x="2400" y="345.8198">Use Case 1</text><line style="stroke: #A80036; stroke-width: 1.0; stroke-dasharray: 1.0,2.0;" x1="2466" x2="2662.5" y1="342.5117" y2="342.5117"/><!--MD5=[3a27b63ddb357afc5dde5581215f51f9]
class DisplayCommManagerImplementation--><rect fill="#FEFECE" filter="url(#f19vjoesmli81o)" height="141.6328" id="DisplayCommManagerImplementation" style="stroke: #A80036; stroke-width: 1.5;" width="470" x="1697" y="256"/><ellipse cx="1810.75" cy="272" fill="#ADD1B2" rx="11" ry="11" style="stroke: #A80036; stroke-width: 1.0;"/><path d="M1813.7188,277.6406 Q1813.1406,277.9375 1812.5,278.0781 Q1811.8594,278.2344 1811.1563,278.2344 Q1808.6563,278.2344 1807.3281,276.5938 Q1806.0156,274.9375 1806.0156,271.8125 Q1806.0156,268.6875 1807.3281,267.0313 Q1808.6563,265.375 1811.1563,265.375 Q1811.8594,265.375 1812.5,265.5313 Q1813.1563,265.6875 1813.7188,265.9844 L1813.7188,268.7031 Q1813.0938,268.125 1812.5,267.8594 Q1811.9063,267.5781 1811.2813,267.5781 Q1809.9375,267.5781 1809.25,268.6563 Q1808.5625,269.7188 1808.5625,271.8125 Q1808.5625,273.9063 1809.25,274.9844 Q1809.9375,276.0469 1811.2813,276.0469 Q1811.9063,276.0469 1812.5,275.7813 Q1813.0938,275.5 1813.7188,274.9219 L1813.7188,277.6406 Z "/><text fill="#000000" font-family="sans-serif" font-size="12" lengthAdjust="spacingAndGlyphs" textLength="234" x="1831.25" y="276.1543">DisplayCommManagerImplementation</text><line style="stroke: #A80036; stroke-width: 1.5;" x1="1698" x2="2166" y1="288" y2="288"/><rect fill="none" height="6" style="stroke: #C82930; stroke-width: 1.0;" width="6" x="1705" y="296"/><text fill="#000000" font-family="sans-serif" font-size="11" lengthAdjust="spacingAndGlyphs" textLength="221" x="1717" y="302.2104">MiddlewareCommInterface middleware</text><line style="stroke: #A80036; stroke-width: 1.5;" x1="1698" x2="2166" y1="308.8047" y2="308.8047"/><ellipse cx="1708" cy="319.8047" fill="#84BE84" rx="3" ry="3" style="stroke: #038048; stroke-width: 1.0;"/><text fill="#000000" font-family="sans-serif" font-size="11" lengthAdjust="spacingAndGlyphs" textLength="444" x="1717" y="323.0151">DisplayCommManagerImplementation(MiddlewareCommInterface middleware)</text><ellipse cx="1708" cy="349.4141" fill="#84BE84" rx="3" ry="3" style="stroke: #038048; stroke-width: 1.0;"/><text fill="#000000" font-family="sans-serif" font-size="11" lengthAdjust="spacingAndGlyphs" textLength="368" x="1717" y="352.6245">TrackData receiveRequestFromDisplay2WayInterface(int rfidNum)</text><rect fill="#F24D5C" height="6" style="stroke: #C82930; stroke-width: 1.0;" width="6" x="1705" y="359.2188"/><text fill="#000000" font-family="sans-serif" font-size="11" lengthAdjust="spacingAndGlyphs" textLength="247" x="1717" y="365.4292">TrackData evaluateRfidRequest(int rfidNum)</text><rect fill="#F24D5C" height="6" style="stroke: #C82930; stroke-width: 1.0;" width="6" x="1705" y="372.0234"/><text fill="#000000" font-family="sans-serif" font-size="11" lengthAdjust="spacingAndGlyphs" textLength="371" x="1717" y="378.2339">TrackData passRequestToMiddlewareCommInterface(int rfidNum)</text><text fill="#000000" font-family="sans-serif" font-size="11" lengthAdjust="spacingAndGlyphs" textLength="0" x="1721" y="391.0386"/><line style="stroke: #A80036; stroke-width: 1.0; stroke-dasharray: 1.0,2.0;" x1="1698" x2="1899" y1="336.0117" y2="336.0117"/><text fill="#000000" font-family="sans-serif" font-size="11" lengthAdjust="spacingAndGlyphs" textLength="66" x="1899" y="339.3198">Use Case 1</text><line style="stroke: #A80036; stroke-width: 1.0; stroke-dasharray: 1.0,2.0;" x1="1965" x2="2166" y1="336.0117" y2="336.0117"/><!--MD5=[d454b7777f115113290d89683d7a426c]
class DisplayCommInterfaceImplementationTests--><rect fill="#FEFECE" filter="url(#f19vjoesmli81o)" height="48" id="DisplayCommInterfaceImplementationTests" style="stroke: #A80036; stroke-width: 1.5;" width="301" x="1339.5" y="78"/><ellipse cx="1354.5" cy="94" fill="#ADD1B2" rx="11" ry="11" style="stroke: #A80036; stroke-width: 1.0;"/><path d="M1357.4688,99.6406 Q1356.8906,99.9375 1356.25,100.0781 Q1355.6094,100.2344 1354.9063,100.2344 Q1352.4063,100.2344 1351.0781,98.5938 Q1349.7656,96.9375 1349.7656,93.8125 Q1349.7656,90.6875 1351.0781,89.0313 Q1352.4063,87.375 1354.9063,87.375 Q1355.6094,87.375 1356.25,87.5313 Q1356.9063,87.6875 1357.4688,87.9844 L1357.4688,90.7031 Q1356.8438,90.125 1356.25,89.8594 Q1355.6563,89.5781 1355.0313,89.5781 Q1353.6875,89.5781 1353,90.6563 Q1352.3125,91.7188 1352.3125,93.8125 Q1352.3125,95.9063 1353,96.9844 Q1353.6875,98.0469 1355.0313,98.0469 Q1355.6563,98.0469 1356.25,97.7813 Q1356.8438,97.5 1357.4688,96.9219 L1357.4688,99.6406 Z "/><text fill="#000000" font-family="sans-serif" font-size="12" lengthAdjust="spacingAndGlyphs" textLength="269" x="1368.5" y="98.1543">DisplayCommInterfaceImplementationTests</text><line style="stroke: #A80036; stroke-width: 1.5;" x1="1340.5" x2="1639.5" y1="110" y2="110"/><line style="stroke: #A80036; stroke-width: 1.5;" x1="1340.5" x2="1639.5" y1="118" y2="118"/><!--MD5=[a333ac13e0fdf2a5898aafabd38d3c1b]
class DisplayComm2WayInterfaceStub--><rect fill="#FEFECE" filter="url(#f19vjoesmli81o)" height="77.6094" id="DisplayComm2WayInterfaceStub" style="stroke: #A80036; stroke-width: 1.5;" width="252" x="1376" y="288"/><ellipse cx="1400" cy="304" fill="#ADD1B2" rx="11" ry="11" style="stroke: #A80036; stroke-width: 1.0;"/><path d="M1402.9688,309.6406 Q1402.3906,309.9375 1401.75,310.0781 Q1401.1094,310.2344 1400.4063,310.2344 Q1397.9063,310.2344 1396.5781,308.5938 Q1395.2656,306.9375 1395.2656,303.8125 Q1395.2656,300.6875 1396.5781,299.0313 Q1397.9063,297.375 1400.4063,297.375 Q1401.1094,297.375 1401.75,297.5313 Q1402.4063,297.6875 1402.9688,297.9844 L1402.9688,300.7031 Q1402.3438,300.125 1401.75,299.8594 Q1401.1563,299.5781 1400.5313,299.5781 Q1399.1875,299.5781 1398.5,300.6563 Q1397.8125,301.7188 1397.8125,303.8125 Q1397.8125,305.9063 1398.5,306.9844 Q1399.1875,308.0469 1400.5313,308.0469 Q1401.1563,308.0469 1401.75,307.7813 Q1402.3438,307.5 1402.9688,306.9219 L1402.9688,309.6406 Z "/><text fill="#000000" font-family="sans-serif" font-size="12" lengthAdjust="spacingAndGlyphs" textLength="200" x="1416" y="308.1543">DisplayComm2WayInterfaceStub</text><line style="stroke: #A80036; stroke-width: 1.5;" x1="1377" x2="1627" y1="320" y2="320"/><line style="stroke: #A80036; stroke-width: 1.5;" x1="1377" x2="1627" y1="328" y2="328"/><ellipse cx="1387" cy="355.8047" fill="#84BE84" rx="3" ry="3" style="stroke: #038048; stroke-width: 1.0;"/><text fill="#000000" font-family="sans-serif" font-size="11" font-style="italic" lengthAdjust="spacingAndGlyphs" textLength="226" x="1396" y="359.0151">TrackData passRfidRequest(int rfidNum)</text><line style="stroke: #A80036; stroke-width: 1.0; stroke-dasharray: 1.0,2.0;" x1="1377" x2="1469" y1="342.4023" y2="342.4023"/><text fill="#000000" font-family="sans-serif" font-size="11" lengthAdjust="spacingAndGlyphs" textLength="66" x="1469" y="345.7104">Use Case 1</text><line style="stroke: #A80036; stroke-width: 1.0; stroke-dasharray: 1.0,2.0;" x1="1535" x2="1627" y1="342.4023" y2="342.4023"/><!--MD5=[178181f4c7684560c711246055fc01d3]
class DisplayComm2WayInterfaceImplementationTests--><rect fill="#FEFECE" filter="url(#f19vjoesmli81o)" height="48" id="DisplayComm2WayInterfaceImplementationTests" style="stroke: #A80036; stroke-width: 1.5;" width="334" x="970" y="78"/><ellipse cx="985" cy="94" fill="#ADD1B2" rx="11" ry="11" style="stroke: #A80036; stroke-width: 1.0;"/><path d="M987.9688,99.6406 Q987.3906,99.9375 986.75,100.0781 Q986.1094,100.2344 985.4063,100.2344 Q982.9063,100.2344 981.5781,98.5938 Q980.2656,96.9375 980.2656,93.8125 Q980.2656,90.6875 981.5781,89.0313 Q982.9063,87.375 985.4063,87.375 Q986.1094,87.375 986.75,87.5313 Q987.4063,87.6875 987.9688,87.9844 L987.9688,90.7031 Q987.3438,90.125 986.75,89.8594 Q986.1563,89.5781 985.5313,89.5781 Q984.1875,89.5781 983.5,90.6563 Q982.8125,91.7188 982.8125,93.8125 Q982.8125,95.9063 983.5,96.9844 Q984.1875,98.0469 985.5313,98.0469 Q986.1563,98.0469 986.75,97.7813 Q987.3438,97.5 987.9688,96.9219 L987.9688,99.6406 Z "/><text fill="#000000" font-family="sans-serif" font-size="12" lengthAdjust="spacingAndGlyphs" textLength="302" x="999" y="98.1543">DisplayComm2WayInterfaceImplementationTests</text><line style="stroke: #A80036; stroke-width: 1.5;" x1="971" x2="1303" y1="110" y2="110"/><line style="stroke: #A80036; stroke-width: 1.5;" x1="971" x2="1303" y1="118" y2="118"/><!--MD5=[2970358178d6cf57fc5a801b39eb8d0b]
class DisplayCommManagerStub--><rect fill="#FEFECE" filter="url(#f19vjoesmli81o)" height="77.6094" id="DisplayCommManagerStub" style="stroke: #A80036; stroke-width: 1.5;" width="273" x="1033.5" y="288"/><ellipse cx="1082.75" cy="304" fill="#ADD1B2" rx="11" ry="11" style="stroke: #A80036; stroke-width: 1.0;"/><path d="M1085.7188,309.6406 Q1085.1406,309.9375 1084.5,310.0781 Q1083.8594,310.2344 1083.1563,310.2344 Q1080.6563,310.2344 1079.3281,308.5938 Q1078.0156,306.9375 1078.0156,303.8125 Q1078.0156,300.6875 1079.3281,299.0313 Q1080.6563,297.375 1083.1563,297.375 Q1083.8594,297.375 1084.5,297.5313 Q1085.1563,297.6875 1085.7188,297.9844 L1085.7188,300.7031 Q1085.0938,300.125 1084.5,299.8594 Q1083.9063,299.5781 1083.2813,299.5781 Q1081.9375,299.5781 1081.25,300.6563 Q1080.5625,301.7188 1080.5625,303.8125 Q1080.5625,305.9063 1081.25,306.9844 Q1081.9375,308.0469 1083.2813,308.0469 Q1083.9063,308.0469 1084.5,307.7813 Q1085.0938,307.5 1085.7188,306.9219 L1085.7188,309.6406 Z "/><text fill="#000000" font-family="sans-serif" font-size="12" lengthAdjust="spacingAndGlyphs" textLength="166" x="1103.25" y="308.1543">DisplayCommManagerStub</text><line style="stroke: #A80036; stroke-width: 1.5;" x1="1034.5" x2="1305.5" y1="320" y2="320"/><line style="stroke: #A80036; stroke-width: 1.5;" x1="1034.5" x2="1305.5" y1="328" y2="328"/><ellipse cx="1044.5" cy="355.8047" fill="#84BE84" rx="3" ry="3" style="stroke: #038048; stroke-width: 1.0;"/><text fill="#000000" font-family="sans-serif" font-size="11" lengthAdjust="spacingAndGlyphs" textLength="247" x="1053.5" y="359.0151">TrackData evaluateRfidRequest(int rfidNum)</text><line style="stroke: #A80036; stroke-width: 1.0; stroke-dasharray: 1.0,2.0;" x1="1034.5" x2="1137" y1="342.4023" y2="342.4023"/><text fill="#000000" font-family="sans-serif" font-size="11" lengthAdjust="spacingAndGlyphs" textLength="66" x="1137" y="345.7104">Use Case 1</text><line style="stroke: #A80036; stroke-width: 1.0; stroke-dasharray: 1.0,2.0;" x1="1203" x2="1305.5" y1="342.4023" y2="342.4023"/><!--MD5=[937d6d8ff87a99d0d5dcd66ee05a1fa4]
class DisplayCommManagerImplementationTests--><rect fill="#FEFECE" filter="url(#f19vjoesmli81o)" height="48" id="DisplayCommManagerImplementationTests" style="stroke: #A80036; stroke-width: 1.5;" width="300" x="635" y="78"/><ellipse cx="650" cy="94" fill="#ADD1B2" rx="11" ry="11" style="stroke: #A80036; stroke-width: 1.0;"/><path d="M652.9688,99.6406 Q652.3906,99.9375 651.75,100.0781 Q651.1094,100.2344 650.4063,100.2344 Q647.9063,100.2344 646.5781,98.5938 Q645.2656,96.9375 645.2656,93.8125 Q645.2656,90.6875 646.5781,89.0313 Q647.9063,87.375 650.4063,87.375 Q651.1094,87.375 651.75,87.5313 Q652.4063,87.6875 652.9688,87.9844 L652.9688,90.7031 Q652.3438,90.125 651.75,89.8594 Q651.1563,89.5781 650.5313,89.5781 Q649.1875,89.5781 648.5,90.6563 Q647.8125,91.7188 647.8125,93.8125 Q647.8125,95.9063 648.5,96.9844 Q649.1875,98.0469 650.5313,98.0469 Q651.1563,98.0469 651.75,97.7813 Q652.3438,97.5 652.9688,96.9219 L652.9688,99.6406 Z "/><text fill="#000000" font-family="sans-serif" font-size="12" lengthAdjust="spacingAndGlyphs" textLength="268" x="664" y="98.1543">DisplayCommManagerImplementationTests</text><line style="stroke: #A80036; stroke-width: 1.5;" x1="636" x2="934" y1="110" y2="110"/><line style="stroke: #A80036; stroke-width: 1.5;" x1="636" x2="934" y1="118" y2="118"/><!--MD5=[cf56a65163663c6c6c7b84cd7c204b97]
class MiddlewareCommInterfaceStub--><rect fill="#FEFECE" filter="url(#f19vjoesmli81o)" height="77.6094" id="MiddlewareCommInterfaceStub" style="stroke: #A80036; stroke-width: 1.5;" width="225" x="672.5" y="288"/><ellipse cx="687.5" cy="304" fill="#ADD1B2" rx="11" ry="11" style="stroke: #A80036; stroke-width: 1.0;"/><path d="M690.4688,309.6406 Q689.8906,309.9375 689.25,310.0781 Q688.6094,310.2344 687.9063,310.2344 Q685.4063,310.2344 684.0781,308.5938 Q682.7656,306.9375 682.7656,303.8125 Q682.7656,300.6875 684.0781,299.0313 Q685.4063,297.375 687.9063,297.375 Q688.6094,297.375 689.25,297.5313 Q689.9063,297.6875 690.4688,297.9844 L690.4688,300.7031 Q689.8438,300.125 689.25,299.8594 Q688.6563,299.5781 688.0313,299.5781 Q686.6875,299.5781 686,300.6563 Q685.3125,301.7188 685.3125,303.8125 Q685.3125,305.9063 686,306.9844 Q686.6875,308.0469 688.0313,308.0469 Q688.6563,308.0469 689.25,307.7813 Q689.8438,307.5 690.4688,306.9219 L690.4688,309.6406 Z "/><text fill="#000000" font-family="sans-serif" font-size="12" lengthAdjust="spacingAndGlyphs" textLength="193" x="701.5" y="308.1543">MiddlewareCommInterfaceStub</text><line style="stroke: #A80036; stroke-width: 1.5;" x1="673.5" x2="896.5" y1="320" y2="320"/><line style="stroke: #A80036; stroke-width: 1.5;" x1="673.5" x2="896.5" y1="328" y2="328"/><ellipse cx="683.5" cy="355.8047" fill="#84BE84" rx="3" ry="3" style="stroke: #038048; stroke-width: 1.0;"/><text fill="#000000" font-family="sans-serif" font-size="11" lengthAdjust="spacingAndGlyphs" textLength="171" x="692.5" y="359.0151">TrackData requestRfid(int rfid)</text><line style="stroke: #A80036; stroke-width: 1.0; stroke-dasharray: 1.0,2.0;" x1="673.5" x2="752" y1="342.4023" y2="342.4023"/><text fill="#000000" font-family="sans-serif" font-size="11" lengthAdjust="spacingAndGlyphs" textLength="66" x="752" y="345.7104">Use Case 1</text><line style="stroke: #A80036; stroke-width: 1.0; stroke-dasharray: 1.0,2.0;" x1="818" x2="896.5" y1="342.4023" y2="342.4023"/><!--MD5=[930c8140e7c1cb8e71aa7cd49967748e]
class TrackDataPlotterTests--><rect fill="#FEFECE" filter="url(#f19vjoesmli81o)" height="86.4141" id="TrackDataPlotterTests" style="stroke: #A80036; stroke-width: 1.5;" width="216" x="384" y="59"/><ellipse cx="418.8" cy="75" fill="#ADD1B2" rx="11" ry="11" style="stroke: #A80036; stroke-width: 1.0;"/><path d="M421.7688,80.6406 Q421.1906,80.9375 420.55,81.0781 Q419.9094,81.2344 419.2063,81.2344 Q416.7063,81.2344 415.3781,79.5938 Q414.0656,77.9375 414.0656,74.8125 Q414.0656,71.6875 415.3781,70.0313 Q416.7063,68.375 419.2063,68.375 Q419.9094,68.375 420.55,68.5313 Q421.2063,68.6875 421.7688,68.9844 L421.7688,71.7031 Q421.1438,71.125 420.55,70.8594 Q419.9563,70.5781 419.3313,70.5781 Q417.9875,70.5781 417.3,71.6563 Q416.6125,72.7188 416.6125,74.8125 Q416.6125,76.9063 417.3,77.9844 Q417.9875,79.0469 419.3313,79.0469 Q419.9563,79.0469 420.55,78.7813 Q421.1438,78.5 421.7688,77.9219 L421.7688,80.6406 Z "/><text fill="#000000" font-family="sans-serif" font-size="12" lengthAdjust="spacingAndGlyphs" textLength="140" x="437.2" y="79.1543">TrackDataPlotterTests</text><line style="stroke: #A80036; stroke-width: 1.5;" x1="385" x2="599" y1="91" y2="91"/><line style="stroke: #A80036; stroke-width: 1.5;" x1="385" x2="599" y1="99" y2="99"/><ellipse cx="395" cy="110" fill="#84BE84" rx="3" ry="3" style="stroke: #038048; stroke-width: 1.0;"/><text fill="#000000" font-family="sans-serif" font-size="11" lengthAdjust="spacingAndGlyphs" textLength="121" x="404" y="113.2104">void plotIsDisplayed()</text><ellipse cx="395" cy="122.8047" fill="#84BE84" rx="3" ry="3" style="stroke: #038048; stroke-width: 1.0;"/><text fill="#000000" font-family="sans-serif" font-size="11" lengthAdjust="spacingAndGlyphs" textLength="174" x="404" y="126.0151">void nullTrackDataNotAllowed()</text><ellipse cx="395" cy="135.6094" fill="#84BE84" rx="3" ry="3" style="stroke: #038048; stroke-width: 1.0;"/><text fill="#000000" font-family="sans-serif" font-size="11" lengthAdjust="spacingAndGlyphs" textLength="190" x="404" y="138.8198">void invalidTrackDataNotAllowed()</text><!--MD5=[c986427b061286eff33e87a088ad4bf9]
class TrackDataPlotter--><rect fill="#FEFECE" filter="url(#f19vjoesmli81o)" height="244.0703" id="TrackDataPlotter" style="stroke: #A80036; stroke-width: 1.5;" width="291" x="37.5" y="205"/><ellipse cx="125.75" cy="221" fill="#ADD1B2" rx="11" ry="11" style="stroke: #A80036; stroke-width: 1.0;"/><path d="M128.7188,226.6406 Q128.1406,226.9375 127.5,227.0781 Q126.8594,227.2344 126.1563,227.2344 Q123.6563,227.2344 122.3281,225.5938 Q121.0156,223.9375 121.0156,220.8125 Q121.0156,217.6875 122.3281,216.0313 Q123.6563,214.375 126.1563,214.375 Q126.8594,214.375 127.5,214.5313 Q128.1563,214.6875 128.7188,214.9844 L128.7188,217.7031 Q128.0938,217.125 127.5,216.8594 Q126.9063,216.5781 126.2813,216.5781 Q124.9375,216.5781 124.25,217.6563 Q123.5625,218.7188 123.5625,220.8125 Q123.5625,222.9063 124.25,223.9844 Q124.9375,225.0469 126.2813,225.0469 Q126.9063,225.0469 127.5,224.7813 Q128.0938,224.5 128.7188,223.9219 L128.7188,226.6406 Z "/><text fill="#000000" font-family="sans-serif" font-size="12" lengthAdjust="spacingAndGlyphs" textLength="106" x="146.25" y="225.1543">TrackDataPlotter</text><line style="stroke: #A80036; stroke-width: 1.5;" x1="38.5" x2="327.5" y1="237" y2="237"/><rect fill="none" height="6" style="stroke: #C82930; stroke-width: 1.0;" width="6" x="45.5" y="245"/><text fill="#000000" font-family="sans-serif" font-size="11" lengthAdjust="spacingAndGlyphs" textLength="86" x="57.5" y="251.2104">TrackData data</text><rect fill="none" height="6" style="stroke: #C82930; stroke-width: 1.0;" width="6" x="45.5" y="257.8047"/><text fill="#000000" font-family="sans-serif" font-size="11" lengthAdjust="spacingAndGlyphs" textLength="97" x="57.5" y="264.0151">XYDataset points</text><rect fill="none" height="6" style="stroke: #C82930; stroke-width: 1.0;" width="6" x="45.5" y="270.6094"/><text fill="#000000" font-family="sans-serif" font-size="11" lengthAdjust="spacingAndGlyphs" textLength="82" x="57.5" y="276.8198">XYDataset line</text><rect fill="none" height="6" style="stroke: #C82930; stroke-width: 1.0;" width="6" x="45.5" y="283.4141"/><text fill="#000000" font-family="sans-serif" font-size="11" lengthAdjust="spacingAndGlyphs" textLength="99" x="57.5" y="289.6245">JFreeChart chart1</text><rect fill="none" height="6" style="stroke: #C82930; stroke-width: 1.0;" width="6" x="45.5" y="296.2188"/><text fill="#000000" font-family="sans-serif" font-size="11" lengthAdjust="spacingAndGlyphs" textLength="99" x="57.5" y="302.4292">JFreeChart chart2</text><rect fill="none" height="6" style="stroke: #C82930; stroke-width: 1.0;" width="6" x="45.5" y="309.0234"/><text fill="#000000" font-family="sans-serif" font-size="11" lengthAdjust="spacingAndGlyphs" textLength="60" x="57.5" y="315.2339">XYPlot plot</text><rect fill="none" height="6" style="stroke: #C82930; stroke-width: 1.0;" width="6" x="45.5" y="321.8281"/><text fill="#000000" font-family="sans-serif" font-size="11" lengthAdjust="spacingAndGlyphs" textLength="133" x="57.5" y="328.0386">ChartPanel chartPanel1</text><rect fill="none" height="6" style="stroke: #C82930; stroke-width: 1.0;" width="6" x="45.5" y="334.6328"/><text fill="#000000" font-family="sans-serif" font-size="11" lengthAdjust="spacingAndGlyphs" textLength="133" x="57.5" y="340.8433">ChartPanel chartPanel2</text><line style="stroke: #A80036; stroke-width: 1.5;" x1="38.5" x2="327.5" y1="347.4375" y2="347.4375"/><ellipse cx="48.5" cy="358.4375" fill="#84BE84" rx="3" ry="3" style="stroke: #038048; stroke-width: 1.0;"/><text fill="#000000" font-family="sans-serif" font-size="11" lengthAdjust="spacingAndGlyphs" textLength="188" x="57.5" y="361.6479">TrackDataPlotter(TrackData data)</text><ellipse cx="48.5" cy="388.0469" fill="#84BE84" rx="3" ry="3" style="stroke: #038048; stroke-width: 1.0;"/><text fill="#000000" font-family="sans-serif" font-size="11" lengthAdjust="spacingAndGlyphs" textLength="112" x="57.5" y="391.2573">void displayPlotter()</text><rect fill="#F24D5C" height="6" style="stroke: #C82930; stroke-width: 1.0;" width="6" x="45.5" y="397.8516"/><text fill="#000000" font-family="sans-serif" font-size="11" lengthAdjust="spacingAndGlyphs" textLength="138" x="57.5" y="404.062">XYSeries getTrackData()</text><rect fill="#F24D5C" height="6" style="stroke: #C82930; stroke-width: 1.0;" width="6" x="45.5" y="410.6563"/><text fill="#000000" font-family="sans-serif" font-size="11" lengthAdjust="spacingAndGlyphs" textLength="208" x="57.5" y="416.8667">XYSeries calculateLine(int[] x, int[] y)</text><rect fill="#F24D5C" height="6" style="stroke: #C82930; stroke-width: 1.0;" width="6" x="45.5" y="423.4609"/><text fill="#000000" font-family="sans-serif" font-size="11" lengthAdjust="spacingAndGlyphs" textLength="262" x="57.5" y="429.6714">int[] extractLatFromTrackData(TrackData data)</text><rect fill="#F24D5C" height="6" style="stroke: #C82930; stroke-width: 1.0;" width="6" x="45.5" y="436.2656"/><text fill="#000000" font-family="sans-serif" font-size="11" lengthAdjust="spacingAndGlyphs" textLength="265" x="57.5" y="442.4761">int[] extractLngFromTrackData(TrackData data)</text><line style="stroke: #A80036; stroke-width: 1.0; stroke-dasharray: 1.0,2.0;" x1="38.5" x2="150" y1="374.6445" y2="374.6445"/><text fill="#000000" font-family="sans-serif" font-size="11" lengthAdjust="spacingAndGlyphs" textLength="66" x="150" y="377.9526">Use Case 1</text><line style="stroke: #A80036; stroke-width: 1.0; stroke-dasharray: 1.0,2.0;" x1="216" x2="327.5" y1="374.6445" y2="374.6445"/><!--MD5=[77bc37423dd8876786830fad4054e33b]
reverse link DisplayCommInterface to DisplayCommInterfaceImplementation--><path d="M2883,161.51 C2883,194.64 2883,235.9 2883,268.82 " fill="none" id="DisplayCommInterface&lt;-DisplayCommInterfaceImplementation" style="stroke: #A80036; stroke-width: 1.0; stroke-dasharray: 7.0,7.0;"/><polygon fill="none" points="2876,161.08,2883,141.08,2890,161.08,2876,161.08" style="stroke: #A80036; stroke-width: 1.0;"/><!--MD5=[4e991cf787e933c55089f97eae394828]
reverse link DisplayComm2WayInterface to DisplayComm2WayInterfaceImplementation--><path d="M2339.16,158.58 C2356.8,190.07 2378.95,229.58 2397.3,262.31 " fill="none" id="DisplayComm2WayInterface&lt;-DisplayComm2WayInterfaceImplementation" style="stroke: #A80036; stroke-width: 1.0; stroke-dasharray: 7.0,7.0;"/><polygon fill="none" points="2333.02,161.95,2329.35,141.08,2345.23,155.11,2333.02,161.95" style="stroke: #A80036; stroke-width: 1.0;"/><!--MD5=[5beed6c3c7e4a84a4bfaa95bdf8cce79]
reverse link DisplayCommManager to DisplayCommManagerImplementation--><path d="M1896.46,160.89 C1902.69,189.84 1910.29,225.12 1916.85,255.63 " fill="none" id="DisplayCommManager&lt;-DisplayCommManagerImplementation" style="stroke: #A80036; stroke-width: 1.0; stroke-dasharray: 7.0,7.0;"/><polygon fill="none" points="1889.56,162.11,1892.2,141.08,1903.25,159.16,1889.56,162.11" style="stroke: #A80036; stroke-width: 1.0;"/><!--MD5=[9a02b467888c5123255f55ebe5217d7a]
link DisplayCommInterfaceImplementationTests to DisplayComm2WayInterfaceStub--><path d="M1491.24,126.02 C1493.23,162.96 1497.16,236.04 1499.68,282.89 " fill="none" id="DisplayCommInterfaceImplementationTests-&gt;DisplayComm2WayInterfaceStub" style="stroke: #A80036; stroke-width: 1.0; stroke-dasharray: 7.0,7.0;"/><polygon fill="#A80036" points="1499.95,287.9,1503.4825,278.7064,1499.6932,282.9066,1495.493,279.1173,1499.95,287.9" style="stroke: #A80036; stroke-width: 1.0;"/><!--MD5=[69695ace36e753468876c8d4fe5d2708]
link DisplayComm2WayInterfaceImplementationTests to DisplayCommManagerStub--><path d="M1140.41,126.02 C1145.87,162.96 1156.69,236.04 1163.62,282.89 " fill="none" id="DisplayComm2WayInterfaceImplementationTests-&gt;DisplayCommManagerStub" style="stroke: #A80036; stroke-width: 1.0; stroke-dasharray: 7.0,7.0;"/><polygon fill="#A80036" points="1164.36,287.9,1167.0048,278.4129,1163.6309,282.9534,1159.0903,279.5795,1164.36,287.9" style="stroke: #A80036; stroke-width: 1.0;"/><!--MD5=[a3caa78d97a9caf08bd2afaaae1510f4]
link DisplayCommManagerImplementationTests to MiddlewareCommInterfaceStub--><path d="M785,126.02 C785,162.96 785,236.04 785,282.89 " fill="none" id="DisplayCommManagerImplementationTests-&gt;MiddlewareCommInterfaceStub" style="stroke: #A80036; stroke-width: 1.0; stroke-dasharray: 7.0,7.0;"/><polygon fill="#A80036" points="785,287.9,789,278.9,785,282.9,781,278.9,785,287.9" style="stroke: #A80036; stroke-width: 1.0;"/><!--MD5=[0cd290e6298e838268680010d5032c0d]
link DisplayCommInterfaceImplementationTests to DisplayCommInterfaceImplementation--><path d="M1577.33,126.04 C1609.66,133.55 1646.77,140.99 1681,145 C1736.19,151.47 2628.8,142.97 2681,162 C2738.56,182.98 2791.83,227.76 2829.2,265.23 " fill="none" id="DisplayCommInterfaceImplementationTests-&gt;DisplayCommInterfaceImplementation" style="stroke: #A80036; stroke-width: 1.0; stroke-dasharray: 7.0,7.0;"/><polygon fill="#A80036" points="2832.76,268.84,2829.2802,259.6264,2829.246,265.2831,2823.5892,265.2488,2832.76,268.84" style="stroke: #A80036; stroke-width: 1.0;"/><!--MD5=[ce67f838794c14794f693dd46a642b9a]
link DisplayComm2WayInterfaceImplementationTests to DisplayComm2WayInterfaceImplementation--><path d="M1221.56,126 C1252.87,133.51 1288.82,140.95 1322,145 C1417.09,156.61 2092.51,133.59 2184,162 C2247.46,181.71 2309.89,222.89 2356.37,259.05 " fill="none" id="DisplayComm2WayInterfaceImplementationTests-&gt;DisplayComm2WayInterfaceImplementation" style="stroke: #A80036; stroke-width: 1.0; stroke-dasharray: 7.0,7.0;"/><polygon fill="#A80036" points="2360.53,262.31,2355.9077,253.6132,2356.5925,259.2285,2350.9772,259.9132,2360.53,262.31" style="stroke: #A80036; stroke-width: 1.0;"/><!--MD5=[6f3abcadcd809ea193290ea1cf8b820a]
link DisplayCommManagerImplementationTests to DisplayCommManagerImplementation--><path d="M861.62,126.07 C889.78,133.53 922.08,140.93 952,145 C1029.64,155.57 1581.72,140.28 1657,162 C1721.68,180.66 1786.7,218.37 1837.27,252.92 " fill="none" id="DisplayCommManagerImplementationTests-&gt;DisplayCommManagerImplementation" style="stroke: #A80036; stroke-width: 1.0; stroke-dasharray: 7.0,7.0;"/><polygon fill="#A80036" points="1841.5,255.83,1836.3362,247.4434,1837.3752,253.004,1831.8146,254.0431,1841.5,255.83" style="stroke: #A80036; stroke-width: 1.0;"/><!--MD5=[f24e7409bf4fec90fef0ed7e05f90b9b]
link TrackDataPlotterTests to TrackDataPlotter--><path d="M396.38,145.1 C386.58,150.42 376.95,156.08 368,162 C349.95,173.95 331.83,187.55 314.37,201.7 " fill="none" id="TrackDataPlotterTests-&gt;TrackDataPlotter" style="stroke: #A80036; stroke-width: 1.0; stroke-dasharray: 7.0,7.0;"/><polygon fill="#A80036" points="310.42,204.92,319.9274,202.3491,314.3006,201.767,314.8827,196.1402,310.42,204.92" style="stroke: #A80036; stroke-width: 1.0;"/><!--MD5=[6aaeadb42451b39b4e2cdcf83e2bb4cd]
reverse link DisplayComm2WayInterface to DisplayComm2WayInterfaceStub--><path d="M2161.95,128.73 C2122.18,134.93 2079.03,140.94 2039,145 C1999.38,149.02 1717.76,146.69 1681,162 C1617.19,188.57 1561.67,248.4 1530.01,287.98 " fill="none" id="DisplayComm2WayInterface&lt;-DisplayComm2WayInterfaceStub" style="stroke: #A80036; stroke-width: 1.0; stroke-dasharray: 7.0,7.0;"/><polygon fill="none" points="2160.93,121.8,2181.78,125.57,2163.13,135.63,2160.93,121.8" style="stroke: #A80036; stroke-width: 1.0;"/><!--MD5=[e6e0d8b3e0f7bf14f11c0899b3ad37ae]
reverse link DisplayCommManager to DisplayCommManagerStub--><path d="M1726.55,134.78 C1703.3,138.7 1679.58,142.28 1657,145 C1590.93,152.96 1419.63,136.88 1358,162 C1292.42,188.73 1233.92,248.21 1200.21,287.71 " fill="none" id="DisplayCommManager&lt;-DisplayCommManagerStub" style="stroke: #A80036; stroke-width: 1.0; stroke-dasharray: 7.0,7.0;"/><polygon fill="none" points="1725.47,127.86,1746.38,131.34,1727.87,141.66,1725.47,127.86" style="stroke: #A80036; stroke-width: 1.0;"/><!--MD5=[f9b932895d695eb886a047cd88442de7]
@startuml Display02Packages_InternalDependencies


package edu.oakland.production.display02 {
    
}


package edu.oakland.production.display02 {
    interface DisplayCommInterface {
        __
        .. Use Case 1 ..
        {abstract} + TrackData receiveRfidRequest(int rfidNum)
    }
}


package edu.oakland.production.display02 {
    interface DisplayComm2WayInterface {
        __
        .. Use Case 1 ..
        {abstract} + TrackData passRfidRequest(int rfidNum)
    }
}


package edu.oakland.production.display02 {
    interface DisplayCommManager {
        __
        .. Use Case 1 ..
        {abstract} + TrackData evaluateRfidRequest(int rfidNum)
    }
}


package edu.oakland.production.display02 {
    class DisplayCommInterfaceImplementation {
        - DisplayComm2WayInterface receiver
        __
        + DisplayCommInterface(DisplayComm2WayInterface receiver)
        .. Use Case 1 ..
        + TrackData receiveRfidRequest(int rfidNum)
        - TrackData passToComm2WayInterface(int rfidNum)
    }
}


DisplayCommInterfaceImplementation .up.|> DisplayCommInterface

package edu.oakland.production.display02 {
    class DisplayComm2WayInterfaceImplementation {
        - DisplayCommManager manager
        __
        + DisplayComm2WayInterfaceImplementation(DisplayCommManager manager)
        .. Use Case 1 ..
        + TrackData passRfidRequest(int rfidNum)
        - void determineUserRequestFormat(int rfidNum)
        - void receiveRequestFromDisplayCommInterface(int rfidNum)
    }
}


DisplayComm2WayInterfaceImplementation .up.|> DisplayComm2WayInterface

package edu.oakland.production.display02 {
    class DisplayCommManagerImplementation {
        - MiddlewareCommInterface middleware
        __
        + DisplayCommManagerImplementation(MiddlewareCommInterface middleware)
        .. Use Case 1 ..
        + TrackData receiveRequestFromDisplay2WayInterface(int rfidNum)
        - TrackData evaluateRfidRequest(int rfidNum)
        - TrackData passRequestToMiddlewareCommInterface(int rfidNum)
        
    }
}


DisplayCommManagerImplementation .up.|> DisplayCommManager








package edu.oakland.test.display02 {
    
}


package edu.oakland.test.display02 {
    class DisplayCommInterfaceImplementationTests {

    }
}



package edu.oakland.test.display02 {
    class DisplayComm2WayInterfaceStub {
        __
        .. Use Case 1 ..
        {abstract} + TrackData passRfidRequest(int rfidNum)
    }
}

DisplayCommInterfaceImplementationTests ..> DisplayComm2WayInterfaceStub

package edu.oakland.test.display02 {
    class DisplayComm2WayInterfaceImplementationTests {

    }
}



package edu.oakland.test.display02 {
    class DisplayCommManagerStub {
        __
        .. Use Case 1 ..
        + TrackData evaluateRfidRequest(int rfidNum)
    }
}

DisplayComm2WayInterfaceImplementationTests ..> DisplayCommManagerStub

package edu.oakland.test.display02 {
    class DisplayCommManagerImplementationTests {

    }
}



package edu.oakland.test.display02 {
    class MiddlewareCommInterfaceStub {
        __
        .. Use Case 1 ..
        + TrackData requestRfid(int rfid)
    }
}

DisplayCommManagerImplementationTests ..> MiddlewareCommInterfaceStub

package edu.oakland.test.display02 {
    class TrackDataPlotterTests {
        + void plotIsDisplayed()
        + void nullTrackDataNotAllowed()
        + void invalidTrackDataNotAllowed()
    }
}


DisplayCommInterfaceImplementationTests ..> DisplayCommInterfaceImplementation
DisplayComm2WayInterfaceImplementationTests ..> DisplayComm2WayInterfaceImplementation
DisplayCommManagerImplementationTests ..> DisplayCommManagerImplementation

package edu.oakland.helper.display02 {
    class TrackDataPlotter {
        - TrackData data
        - XYDataset points
        - XYDataset line
        - JFreeChart chart1
        - JFreeChart chart2
        - XYPlot plot
        - ChartPanel chartPanel1
        - ChartPanel chartPanel2
        __
        + TrackDataPlotter(TrackData data)
        .. Use Case 1 ..
        + void displayPlotter()
        - XYSeries getTrackData()
        - XYSeries calculateLine(int[] x, int[] y)
        - int[] extractLatFromTrackData(TrackData data)
        - int[] extractLngFromTrackData(TrackData data)
    }
}

TrackDataPlotterTests ..> TrackDataPlotter
DisplayComm2WayInterfaceStub .up.|> DisplayComm2WayInterface
DisplayCommManagerStub .up.|> DisplayCommManager


package edu.oakland.helper.display02 {
    
}




@enduml

PlantUML version 1.2020.02(Sun Mar 01 10:22:07 GMT 2020)
(GPL source distribution)
Java Runtime: OpenJDK Runtime Environment
JVM: OpenJDK 64-Bit Server VM
Java Version: 11.0.9+11-Ubuntu-0ubuntu1
Operating System: Linux
Default Encoding: ANSI_X3.4-1968
Language: en
Country: US
--></g></svg>