<?xml version="1.0" encoding="UTF-8" standalone="no"?><svg xmlns="http://www.w3.org/2000/svg" xmlns:xlink="http://www.w3.org/1999/xlink" contentScriptType="application/ecmascript" contentStyleType="text/css" height="488px" preserveAspectRatio="none" style="width:3062px;height:488px;" version="1.1" viewBox="0 0 3062 488" width="3062px" zoomAndPan="magnify"><defs><filter height="300%" id="f1czhyrhncgih" width="300%" x="-1" y="-1"><feGaussianBlur result="blurOut" stdDeviation="2.0"/><feColorMatrix in="blurOut" result="blurOut2" type="matrix" values="0 0 0 0 0 0 0 0 0 0 0 0 0 0 0 0 0 0 .4 0"/><feOffset dx="4.0" dy="4.0" in="blurOut2" result="blurOut3"/><feBlend in="SourceGraphic" in2="blurOut3" mode="normal"/></filter></defs><g><!--MD5=[fe59aae6f7bfe371a9c197ec1f7f843a]
cluster edu.oakland.production.display02--><polygon fill="#FFFFFF" filter="url(#f1czhyrhncgih)" points="22,28,295,28,302,50.2969,1425,50.2969,1425,425,22,425,22,28" style="stroke: #000000; stroke-width: 1.5;"/><line style="stroke: #000000; stroke-width: 1.5;" x1="22" x2="302" y1="50.2969" y2="50.2969"/><text fill="#000000" font-family="sans-serif" font-size="14" font-weight="bold" lengthAdjust="spacingAndGlyphs" textLength="267" x="26" y="42.9951">edu.oakland.production.display02</text><!--MD5=[9258003ec405d300d3379b4a3d8dd6ad]
cluster edu.oakland.test.display02--><polygon fill="#FFFFFF" filter="url(#f1czhyrhncgih)" points="1449,24,1667,24,1674,46.2969,2694,46.2969,2694,393,1449,393,1449,24" style="stroke: #000000; stroke-width: 1.5;"/><line style="stroke: #000000; stroke-width: 1.5;" x1="1449" x2="1674" y1="46.2969" y2="46.2969"/><text fill="#000000" font-family="sans-serif" font-size="14" font-weight="bold" lengthAdjust="spacingAndGlyphs" textLength="212" x="1453" y="38.9951">edu.oakland.test.display02</text><!--MD5=[a502031b5a5384de0a21e6ee820fd3b2]
cluster edu.oakland.helper.display02--><polygon fill="#FFFFFF" filter="url(#f1czhyrhncgih)" points="2718,181,2956,181,2963,203.2969,3040,203.2969,3040,476,2718,476,2718,181" style="stroke: #000000; stroke-width: 1.5;"/><line style="stroke: #000000; stroke-width: 1.5;" x1="2718" x2="2963" y1="203.2969" y2="203.2969"/><text fill="#000000" font-family="sans-serif" font-size="14" font-weight="bold" lengthAdjust="spacingAndGlyphs" textLength="232" x="2722" y="195.9951">edu.oakland.helper.display02</text><!--MD5=[33504725b8a69ba2207f0a836957a91c]
cluster edu.oakland.production.middleware02--><polygon fill="#FFFFFF" filter="url(#f1czhyrhncgih)" points="2718,28,3028,28,3035,50.2969,3038,50.2969,3038,157,2718,157,2718,28" style="stroke: #000000; stroke-width: 1.5;"/><line style="stroke: #000000; stroke-width: 1.5;" x1="2718" x2="3035" y1="50.2969" y2="50.2969"/><text fill="#000000" font-family="sans-serif" font-size="14" font-weight="bold" lengthAdjust="spacingAndGlyphs" textLength="304" x="2722" y="42.9951">edu.oakland.production.middleware02</text><!--MD5=[c8d1e3134fecb0c949fd2a76cc0bb992]
class DisplayCommInterface--><rect fill="#FEFECE" filter="url(#f1czhyrhncgih)" height="77.6094" id="DisplayCommInterface" style="stroke: #A80036; stroke-width: 1.5;" width="268" x="89" y="63"/><ellipse cx="149.25" cy="79" fill="#B4A7E5" rx="11" ry="11" style="stroke: #A80036; stroke-width: 1.0;"/><path d="M145.1719,74.7656 L145.1719,72.6094 L152.5625,72.6094 L152.5625,74.7656 L150.0938,74.7656 L150.0938,82.8438 L152.5625,82.8438 L152.5625,85 L145.1719,85 L145.1719,82.8438 L147.6406,82.8438 L147.6406,74.7656 L145.1719,74.7656 Z "/><text fill="#000000" font-family="sans-serif" font-size="12" font-style="italic" lengthAdjust="spacingAndGlyphs" textLength="139" x="169.75" y="83.1543">DisplayCommInterface</text><line style="stroke: #A80036; stroke-width: 1.5;" x1="90" x2="356" y1="95" y2="95"/><line style="stroke: #A80036; stroke-width: 1.5;" x1="90" x2="356" y1="103" y2="103"/><ellipse cx="100" cy="130.8047" fill="#84BE84" rx="3" ry="3" style="stroke: #038048; stroke-width: 1.0;"/><text fill="#000000" font-family="sans-serif" font-size="11" font-style="italic" lengthAdjust="spacingAndGlyphs" textLength="242" x="109" y="134.0151">TrackData receiveRfidRequest(int rfidNum)</text><line style="stroke: #A80036; stroke-width: 1.0; stroke-dasharray: 1.0,2.0;" x1="90" x2="190" y1="117.4023" y2="117.4023"/><text fill="#000000" font-family="sans-serif" font-size="11" lengthAdjust="spacingAndGlyphs" textLength="66" x="190" y="120.7104">Use Case 1</text><line style="stroke: #A80036; stroke-width: 1.0; stroke-dasharray: 1.0,2.0;" x1="256" x2="356" y1="117.4023" y2="117.4023"/><!--MD5=[f6b51b5f862da5ce226c62e411e84628]
class DisplayComm2WayInterface--><rect fill="#FEFECE" filter="url(#f1czhyrhncgih)" height="77.6094" id="DisplayComm2WayInterface" style="stroke: #A80036; stroke-width: 1.5;" width="252" x="672" y="63"/><ellipse cx="707.7" cy="79" fill="#B4A7E5" rx="11" ry="11" style="stroke: #A80036; stroke-width: 1.0;"/><path d="M703.6219,74.7656 L703.6219,72.6094 L711.0125,72.6094 L711.0125,74.7656 L708.5438,74.7656 L708.5438,82.8438 L711.0125,82.8438 L711.0125,85 L703.6219,85 L703.6219,82.8438 L706.0906,82.8438 L706.0906,74.7656 L703.6219,74.7656 Z "/><text fill="#000000" font-family="sans-serif" font-size="12" font-style="italic" lengthAdjust="spacingAndGlyphs" textLength="174" x="726.3" y="83.1543">DisplayComm2WayInterface</text><line style="stroke: #A80036; stroke-width: 1.5;" x1="673" x2="923" y1="95" y2="95"/><line style="stroke: #A80036; stroke-width: 1.5;" x1="673" x2="923" y1="103" y2="103"/><ellipse cx="683" cy="130.8047" fill="#84BE84" rx="3" ry="3" style="stroke: #038048; stroke-width: 1.0;"/><text fill="#000000" font-family="sans-serif" font-size="11" font-style="italic" lengthAdjust="spacingAndGlyphs" textLength="226" x="692" y="134.0151">TrackData passRfidRequest(int rfidNum)</text><line style="stroke: #A80036; stroke-width: 1.0; stroke-dasharray: 1.0,2.0;" x1="673" x2="765" y1="117.4023" y2="117.4023"/><text fill="#000000" font-family="sans-serif" font-size="11" lengthAdjust="spacingAndGlyphs" textLength="66" x="765" y="120.7104">Use Case 1</text><line style="stroke: #A80036; stroke-width: 1.0; stroke-dasharray: 1.0,2.0;" x1="831" x2="923" y1="117.4023" y2="117.4023"/><!--MD5=[6aeb72f2773d7cabb45309482beeff0a]
class DisplayCommManager--><rect fill="#FEFECE" filter="url(#f1czhyrhncgih)" height="77.6094" id="DisplayCommManager" style="stroke: #A80036; stroke-width: 1.5;" width="275" x="1084.5" y="63"/><ellipse cx="1149.25" cy="79" fill="#B4A7E5" rx="11" ry="11" style="stroke: #A80036; stroke-width: 1.0;"/><path d="M1145.1719,74.7656 L1145.1719,72.6094 L1152.5625,72.6094 L1152.5625,74.7656 L1150.0938,74.7656 L1150.0938,82.8438 L1152.5625,82.8438 L1152.5625,85 L1145.1719,85 L1145.1719,82.8438 L1147.6406,82.8438 L1147.6406,74.7656 L1145.1719,74.7656 Z "/><text fill="#000000" font-family="sans-serif" font-size="12" font-style="italic" lengthAdjust="spacingAndGlyphs" textLength="137" x="1169.75" y="83.1543">DisplayCommManager</text><line style="stroke: #A80036; stroke-width: 1.5;" x1="1085.5" x2="1358.5" y1="95" y2="95"/><line style="stroke: #A80036; stroke-width: 1.5;" x1="1085.5" x2="1358.5" y1="103" y2="103"/><ellipse cx="1095.5" cy="130.8047" fill="#84BE84" rx="3" ry="3" style="stroke: #038048; stroke-width: 1.0;"/><text fill="#000000" font-family="sans-serif" font-size="11" font-style="italic" lengthAdjust="spacingAndGlyphs" textLength="249" x="1104.5" y="134.0151">TrackData evaluateRfidRequest(int rfidNum)</text><line style="stroke: #A80036; stroke-width: 1.0; stroke-dasharray: 1.0,2.0;" x1="1085.5" x2="1189" y1="117.4023" y2="117.4023"/><text fill="#000000" font-family="sans-serif" font-size="11" lengthAdjust="spacingAndGlyphs" textLength="66" x="1189" y="120.7104">Use Case 1</text><line style="stroke: #A80036; stroke-width: 1.0; stroke-dasharray: 1.0,2.0;" x1="1255" x2="1358.5" y1="117.4023" y2="117.4023"/><!--MD5=[a35092e604da7274febf4e2cf9a25087]
class DisplayCommInterfaceImplementation--><rect fill="#FEFECE" filter="url(#f1czhyrhncgih)" height="116.0234" id="DisplayCommInterfaceImplementation" style="stroke: #A80036; stroke-width: 1.5;" width="369" x="38.5" y="280"/><ellipse cx="101.25" cy="296" fill="#ADD1B2" rx="11" ry="11" style="stroke: #A80036; stroke-width: 1.0;"/><path d="M104.2188,301.6406 Q103.6406,301.9375 103,302.0781 Q102.3594,302.2344 101.6563,302.2344 Q99.1563,302.2344 97.8281,300.5938 Q96.5156,298.9375 96.5156,295.8125 Q96.5156,292.6875 97.8281,291.0313 Q99.1563,289.375 101.6563,289.375 Q102.3594,289.375 103,289.5313 Q103.6563,289.6875 104.2188,289.9844 L104.2188,292.7031 Q103.5938,292.125 103,291.8594 Q102.4063,291.5781 101.7813,291.5781 Q100.4375,291.5781 99.75,292.6563 Q99.0625,293.7188 99.0625,295.8125 Q99.0625,297.9063 99.75,298.9844 Q100.4375,300.0469 101.7813,300.0469 Q102.4063,300.0469 103,299.7813 Q103.5938,299.5 104.2188,298.9219 L104.2188,301.6406 Z "/><text fill="#000000" font-family="sans-serif" font-size="12" lengthAdjust="spacingAndGlyphs" textLength="235" x="121.75" y="300.1543">DisplayCommInterfaceImplementation</text><line style="stroke: #A80036; stroke-width: 1.5;" x1="39.5" x2="406.5" y1="312" y2="312"/><rect fill="none" height="6" style="stroke: #C82930; stroke-width: 1.0;" width="6" x="46.5" y="320"/><text fill="#000000" font-family="sans-serif" font-size="11" lengthAdjust="spacingAndGlyphs" textLength="207" x="58.5" y="326.2104">DisplayComm2WayInterface receiver</text><line style="stroke: #A80036; stroke-width: 1.5;" x1="39.5" x2="406.5" y1="332.8047" y2="332.8047"/><ellipse cx="49.5" cy="343.8047" fill="#84BE84" rx="3" ry="3" style="stroke: #038048; stroke-width: 1.0;"/><text fill="#000000" font-family="sans-serif" font-size="11" lengthAdjust="spacingAndGlyphs" textLength="343" x="58.5" y="347.0151">DisplayCommInterface(DisplayComm2WayInterface receiver)</text><ellipse cx="49.5" cy="373.4141" fill="#84BE84" rx="3" ry="3" style="stroke: #038048; stroke-width: 1.0;"/><text fill="#000000" font-family="sans-serif" font-size="11" lengthAdjust="spacingAndGlyphs" textLength="240" x="58.5" y="376.6245">TrackData receiveRfidRequest(int rfidNum)</text><rect fill="#F24D5C" height="6" style="stroke: #C82930; stroke-width: 1.0;" width="6" x="46.5" y="383.2188"/><text fill="#000000" font-family="sans-serif" font-size="11" lengthAdjust="spacingAndGlyphs" textLength="290" x="58.5" y="389.4292">TrackData passToComm2WayInterface(int rfidNum)</text><line style="stroke: #A80036; stroke-width: 1.0; stroke-dasharray: 1.0,2.0;" x1="39.5" x2="190" y1="360.0117" y2="360.0117"/><text fill="#000000" font-family="sans-serif" font-size="11" lengthAdjust="spacingAndGlyphs" textLength="66" x="190" y="363.3198">Use Case 1</text><line style="stroke: #A80036; stroke-width: 1.0; stroke-dasharray: 1.0,2.0;" x1="256" x2="406.5" y1="360.0117" y2="360.0117"/><!--MD5=[46657c2900260d4d40350fe3f8c544df]
class DisplayComm2WayInterfaceImplementation--><rect fill="#FEFECE" filter="url(#f1czhyrhncgih)" height="128.8281" id="DisplayComm2WayInterfaceImplementation" style="stroke: #A80036; stroke-width: 1.5;" width="461" x="442.5" y="273.5"/><ellipse cx="534.75" cy="289.5" fill="#ADD1B2" rx="11" ry="11" style="stroke: #A80036; stroke-width: 1.0;"/><path d="M537.7188,295.1406 Q537.1406,295.4375 536.5,295.5781 Q535.8594,295.7344 535.1563,295.7344 Q532.6563,295.7344 531.3281,294.0938 Q530.0156,292.4375 530.0156,289.3125 Q530.0156,286.1875 531.3281,284.5313 Q532.6563,282.875 535.1563,282.875 Q535.8594,282.875 536.5,283.0313 Q537.1563,283.1875 537.7188,283.4844 L537.7188,286.2031 Q537.0938,285.625 536.5,285.3594 Q535.9063,285.0781 535.2813,285.0781 Q533.9375,285.0781 533.25,286.1563 Q532.5625,287.2188 532.5625,289.3125 Q532.5625,291.4063 533.25,292.4844 Q533.9375,293.5469 535.2813,293.5469 Q535.9063,293.5469 536.5,293.2813 Q537.0938,293 537.7188,292.4219 L537.7188,295.1406 Z "/><text fill="#000000" font-family="sans-serif" font-size="12" lengthAdjust="spacingAndGlyphs" textLength="268" x="555.25" y="293.6543">DisplayComm2WayInterfaceImplementation</text><line style="stroke: #A80036; stroke-width: 1.5;" x1="443.5" x2="902.5" y1="305.5" y2="305.5"/><rect fill="none" height="6" style="stroke: #C82930; stroke-width: 1.0;" width="6" x="450.5" y="313.5"/><text fill="#000000" font-family="sans-serif" font-size="11" lengthAdjust="spacingAndGlyphs" textLength="182" x="462.5" y="319.7104">DisplayCommManager manager</text><line style="stroke: #A80036; stroke-width: 1.5;" x1="443.5" x2="902.5" y1="326.3047" y2="326.3047"/><ellipse cx="453.5" cy="337.3047" fill="#84BE84" rx="3" ry="3" style="stroke: #038048; stroke-width: 1.0;"/><text fill="#000000" font-family="sans-serif" font-size="11" lengthAdjust="spacingAndGlyphs" textLength="435" x="462.5" y="340.5151">DisplayComm2WayInterfaceImplementation(DisplayCommManager manager)</text><ellipse cx="453.5" cy="366.9141" fill="#84BE84" rx="3" ry="3" style="stroke: #038048; stroke-width: 1.0;"/><text fill="#000000" font-family="sans-serif" font-size="11" lengthAdjust="spacingAndGlyphs" textLength="227" x="462.5" y="370.1245">TrackData passRfidRequest(int rfidNum)</text><rect fill="#F24D5C" height="6" style="stroke: #C82930; stroke-width: 1.0;" width="6" x="450.5" y="376.7188"/><text fill="#000000" font-family="sans-serif" font-size="11" lengthAdjust="spacingAndGlyphs" textLength="269" x="462.5" y="382.9292">void determineUserRequestFormat(int rfidNum)</text><rect fill="#F24D5C" height="6" style="stroke: #C82930; stroke-width: 1.0;" width="6" x="450.5" y="389.5234"/><text fill="#000000" font-family="sans-serif" font-size="11" lengthAdjust="spacingAndGlyphs" textLength="342" x="462.5" y="395.7339">void receiveRequestFromDisplayCommInterface(int rfidNum)</text><line style="stroke: #A80036; stroke-width: 1.0; stroke-dasharray: 1.0,2.0;" x1="443.5" x2="640" y1="353.5117" y2="353.5117"/><text fill="#000000" font-family="sans-serif" font-size="11" lengthAdjust="spacingAndGlyphs" textLength="66" x="640" y="356.8198">Use Case 1</text><line style="stroke: #A80036; stroke-width: 1.0; stroke-dasharray: 1.0,2.0;" x1="706" x2="902.5" y1="353.5117" y2="353.5117"/><!--MD5=[3a27b63ddb357afc5dde5581215f51f9]
class DisplayCommManagerImplementation--><rect fill="#FEFECE" filter="url(#f1czhyrhncgih)" height="141.6328" id="DisplayCommManagerImplementation" style="stroke: #A80036; stroke-width: 1.5;" width="470" x="939" y="267"/><ellipse cx="1052.75" cy="283" fill="#ADD1B2" rx="11" ry="11" style="stroke: #A80036; stroke-width: 1.0;"/><path d="M1055.7188,288.6406 Q1055.1406,288.9375 1054.5,289.0781 Q1053.8594,289.2344 1053.1563,289.2344 Q1050.6563,289.2344 1049.3281,287.5938 Q1048.0156,285.9375 1048.0156,282.8125 Q1048.0156,279.6875 1049.3281,278.0313 Q1050.6563,276.375 1053.1563,276.375 Q1053.8594,276.375 1054.5,276.5313 Q1055.1563,276.6875 1055.7188,276.9844 L1055.7188,279.7031 Q1055.0938,279.125 1054.5,278.8594 Q1053.9063,278.5781 1053.2813,278.5781 Q1051.9375,278.5781 1051.25,279.6563 Q1050.5625,280.7188 1050.5625,282.8125 Q1050.5625,284.9063 1051.25,285.9844 Q1051.9375,287.0469 1053.2813,287.0469 Q1053.9063,287.0469 1054.5,286.7813 Q1055.0938,286.5 1055.7188,285.9219 L1055.7188,288.6406 Z "/><text fill="#000000" font-family="sans-serif" font-size="12" lengthAdjust="spacingAndGlyphs" textLength="234" x="1073.25" y="287.1543">DisplayCommManagerImplementation</text><line style="stroke: #A80036; stroke-width: 1.5;" x1="940" x2="1408" y1="299" y2="299"/><rect fill="none" height="6" style="stroke: #C82930; stroke-width: 1.0;" width="6" x="947" y="307"/><text fill="#000000" font-family="sans-serif" font-size="11" lengthAdjust="spacingAndGlyphs" textLength="221" x="959" y="313.2104">MiddlewareCommInterface middleware</text><line style="stroke: #A80036; stroke-width: 1.5;" x1="940" x2="1408" y1="319.8047" y2="319.8047"/><ellipse cx="950" cy="330.8047" fill="#84BE84" rx="3" ry="3" style="stroke: #038048; stroke-width: 1.0;"/><text fill="#000000" font-family="sans-serif" font-size="11" lengthAdjust="spacingAndGlyphs" textLength="444" x="959" y="334.0151">DisplayCommManagerImplementation(MiddlewareCommInterface middleware)</text><ellipse cx="950" cy="360.4141" fill="#84BE84" rx="3" ry="3" style="stroke: #038048; stroke-width: 1.0;"/><text fill="#000000" font-family="sans-serif" font-size="11" lengthAdjust="spacingAndGlyphs" textLength="368" x="959" y="363.6245">TrackData receiveRequestFromDisplay2WayInterface(int rfidNum)</text><rect fill="#F24D5C" height="6" style="stroke: #C82930; stroke-width: 1.0;" width="6" x="947" y="370.2188"/><text fill="#000000" font-family="sans-serif" font-size="11" lengthAdjust="spacingAndGlyphs" textLength="247" x="959" y="376.4292">TrackData evaluateRfidRequest(int rfidNum)</text><rect fill="#F24D5C" height="6" style="stroke: #C82930; stroke-width: 1.0;" width="6" x="947" y="383.0234"/><text fill="#000000" font-family="sans-serif" font-size="11" lengthAdjust="spacingAndGlyphs" textLength="371" x="959" y="389.2339">TrackData passRequestToMiddlewareCommInterface(int rfidNum)</text><text fill="#000000" font-family="sans-serif" font-size="11" lengthAdjust="spacingAndGlyphs" textLength="0" x="963" y="402.0386"/><line style="stroke: #A80036; stroke-width: 1.0; stroke-dasharray: 1.0,2.0;" x1="940" x2="1141" y1="347.0117" y2="347.0117"/><text fill="#000000" font-family="sans-serif" font-size="11" lengthAdjust="spacingAndGlyphs" textLength="66" x="1141" y="350.3198">Use Case 1</text><line style="stroke: #A80036; stroke-width: 1.0; stroke-dasharray: 1.0,2.0;" x1="1207" x2="1408" y1="347.0117" y2="347.0117"/><!--MD5=[d454b7777f115113290d89683d7a426c]
class DisplayCommInterfaceImplementationTests--><rect fill="#FEFECE" filter="url(#f1czhyrhncgih)" height="48" id="DisplayCommInterfaceImplementationTests" style="stroke: #A80036; stroke-width: 1.5;" width="301" x="1465.5" y="78"/><ellipse cx="1480.5" cy="94" fill="#ADD1B2" rx="11" ry="11" style="stroke: #A80036; stroke-width: 1.0;"/><path d="M1483.4688,99.6406 Q1482.8906,99.9375 1482.25,100.0781 Q1481.6094,100.2344 1480.9063,100.2344 Q1478.4063,100.2344 1477.0781,98.5938 Q1475.7656,96.9375 1475.7656,93.8125 Q1475.7656,90.6875 1477.0781,89.0313 Q1478.4063,87.375 1480.9063,87.375 Q1481.6094,87.375 1482.25,87.5313 Q1482.9063,87.6875 1483.4688,87.9844 L1483.4688,90.7031 Q1482.8438,90.125 1482.25,89.8594 Q1481.6563,89.5781 1481.0313,89.5781 Q1479.6875,89.5781 1479,90.6563 Q1478.3125,91.7188 1478.3125,93.8125 Q1478.3125,95.9063 1479,96.9844 Q1479.6875,98.0469 1481.0313,98.0469 Q1481.6563,98.0469 1482.25,97.7813 Q1482.8438,97.5 1483.4688,96.9219 L1483.4688,99.6406 Z "/><text fill="#000000" font-family="sans-serif" font-size="12" lengthAdjust="spacingAndGlyphs" textLength="269" x="1494.5" y="98.1543">DisplayCommInterfaceImplementationTests</text><line style="stroke: #A80036; stroke-width: 1.5;" x1="1466.5" x2="1765.5" y1="110" y2="110"/><line style="stroke: #A80036; stroke-width: 1.5;" x1="1466.5" x2="1765.5" y1="118" y2="118"/><!--MD5=[a333ac13e0fdf2a5898aafabd38d3c1b]
class DisplayComm2WayInterfaceStub--><rect fill="#FEFECE" filter="url(#f1czhyrhncgih)" height="77.6094" id="DisplayComm2WayInterfaceStub" style="stroke: #A80036; stroke-width: 1.5;" width="252" x="1478" y="299"/><ellipse cx="1502" cy="315" fill="#ADD1B2" rx="11" ry="11" style="stroke: #A80036; stroke-width: 1.0;"/><path d="M1504.9688,320.6406 Q1504.3906,320.9375 1503.75,321.0781 Q1503.1094,321.2344 1502.4063,321.2344 Q1499.9063,321.2344 1498.5781,319.5938 Q1497.2656,317.9375 1497.2656,314.8125 Q1497.2656,311.6875 1498.5781,310.0313 Q1499.9063,308.375 1502.4063,308.375 Q1503.1094,308.375 1503.75,308.5313 Q1504.4063,308.6875 1504.9688,308.9844 L1504.9688,311.7031 Q1504.3438,311.125 1503.75,310.8594 Q1503.1563,310.5781 1502.5313,310.5781 Q1501.1875,310.5781 1500.5,311.6563 Q1499.8125,312.7188 1499.8125,314.8125 Q1499.8125,316.9063 1500.5,317.9844 Q1501.1875,319.0469 1502.5313,319.0469 Q1503.1563,319.0469 1503.75,318.7813 Q1504.3438,318.5 1504.9688,317.9219 L1504.9688,320.6406 Z "/><text fill="#000000" font-family="sans-serif" font-size="12" lengthAdjust="spacingAndGlyphs" textLength="200" x="1518" y="319.1543">DisplayComm2WayInterfaceStub</text><line style="stroke: #A80036; stroke-width: 1.5;" x1="1479" x2="1729" y1="331" y2="331"/><line style="stroke: #A80036; stroke-width: 1.5;" x1="1479" x2="1729" y1="339" y2="339"/><ellipse cx="1489" cy="366.8047" fill="#84BE84" rx="3" ry="3" style="stroke: #038048; stroke-width: 1.0;"/><text fill="#000000" font-family="sans-serif" font-size="11" font-style="italic" lengthAdjust="spacingAndGlyphs" textLength="226" x="1498" y="370.0151">TrackData passRfidRequest(int rfidNum)</text><line style="stroke: #A80036; stroke-width: 1.0; stroke-dasharray: 1.0,2.0;" x1="1479" x2="1571" y1="353.4023" y2="353.4023"/><text fill="#000000" font-family="sans-serif" font-size="11" lengthAdjust="spacingAndGlyphs" textLength="66" x="1571" y="356.7104">Use Case 1</text><line style="stroke: #A80036; stroke-width: 1.0; stroke-dasharray: 1.0,2.0;" x1="1637" x2="1729" y1="353.4023" y2="353.4023"/><!--MD5=[178181f4c7684560c711246055fc01d3]
class DisplayComm2WayInterfaceImplementationTests--><rect fill="#FEFECE" filter="url(#f1czhyrhncgih)" height="86.4141" id="DisplayComm2WayInterfaceImplementationTests" style="stroke: #A80036; stroke-width: 1.5;" width="334" x="1802" y="59"/><ellipse cx="1817" cy="75" fill="#ADD1B2" rx="11" ry="11" style="stroke: #A80036; stroke-width: 1.0;"/><path d="M1819.9688,80.6406 Q1819.3906,80.9375 1818.75,81.0781 Q1818.1094,81.2344 1817.4063,81.2344 Q1814.9063,81.2344 1813.5781,79.5938 Q1812.2656,77.9375 1812.2656,74.8125 Q1812.2656,71.6875 1813.5781,70.0313 Q1814.9063,68.375 1817.4063,68.375 Q1818.1094,68.375 1818.75,68.5313 Q1819.4063,68.6875 1819.9688,68.9844 L1819.9688,71.7031 Q1819.3438,71.125 1818.75,70.8594 Q1818.1563,70.5781 1817.5313,70.5781 Q1816.1875,70.5781 1815.5,71.6563 Q1814.8125,72.7188 1814.8125,74.8125 Q1814.8125,76.9063 1815.5,77.9844 Q1816.1875,79.0469 1817.5313,79.0469 Q1818.1563,79.0469 1818.75,78.7813 Q1819.3438,78.5 1819.9688,77.9219 L1819.9688,80.6406 Z "/><text fill="#000000" font-family="sans-serif" font-size="12" lengthAdjust="spacingAndGlyphs" textLength="302" x="1831" y="79.1543">DisplayComm2WayInterfaceImplementationTests</text><line style="stroke: #A80036; stroke-width: 1.5;" x1="1803" x2="2135" y1="91" y2="91"/><line style="stroke: #A80036; stroke-width: 1.5;" x1="1803" x2="2135" y1="99" y2="99"/><ellipse cx="1813" cy="110" fill="#84BE84" rx="3" ry="3" style="stroke: #038048; stroke-width: 1.0;"/><text fill="#000000" font-family="sans-serif" font-size="11" lengthAdjust="spacingAndGlyphs" textLength="88" x="1822" y="113.2104">void rfidInIsInt()</text><ellipse cx="1813" cy="122.8047" fill="#84BE84" rx="3" ry="3" style="stroke: #038048; stroke-width: 1.0;"/><text fill="#000000" font-family="sans-serif" font-size="11" lengthAdjust="spacingAndGlyphs" textLength="115" x="1822" y="126.0151">void rfidInIsRfidOut()</text><ellipse cx="1813" cy="135.6094" fill="#84BE84" rx="3" ry="3" style="stroke: #038048; stroke-width: 1.0;"/><text fill="#000000" font-family="sans-serif" font-size="11" lengthAdjust="spacingAndGlyphs" textLength="177" x="1822" y="138.8198">void returnIsOfTypeTrackData()</text><!--MD5=[2970358178d6cf57fc5a801b39eb8d0b]
class DisplayCommManagerStub--><rect fill="#FEFECE" filter="url(#f1czhyrhncgih)" height="77.6094" id="DisplayCommManagerStub" style="stroke: #A80036; stroke-width: 1.5;" width="273" x="1799.5" y="299"/><ellipse cx="1848.75" cy="315" fill="#ADD1B2" rx="11" ry="11" style="stroke: #A80036; stroke-width: 1.0;"/><path d="M1851.7188,320.6406 Q1851.1406,320.9375 1850.5,321.0781 Q1849.8594,321.2344 1849.1563,321.2344 Q1846.6563,321.2344 1845.3281,319.5938 Q1844.0156,317.9375 1844.0156,314.8125 Q1844.0156,311.6875 1845.3281,310.0313 Q1846.6563,308.375 1849.1563,308.375 Q1849.8594,308.375 1850.5,308.5313 Q1851.1563,308.6875 1851.7188,308.9844 L1851.7188,311.7031 Q1851.0938,311.125 1850.5,310.8594 Q1849.9063,310.5781 1849.2813,310.5781 Q1847.9375,310.5781 1847.25,311.6563 Q1846.5625,312.7188 1846.5625,314.8125 Q1846.5625,316.9063 1847.25,317.9844 Q1847.9375,319.0469 1849.2813,319.0469 Q1849.9063,319.0469 1850.5,318.7813 Q1851.0938,318.5 1851.7188,317.9219 L1851.7188,320.6406 Z "/><text fill="#000000" font-family="sans-serif" font-size="12" lengthAdjust="spacingAndGlyphs" textLength="166" x="1869.25" y="319.1543">DisplayCommManagerStub</text><line style="stroke: #A80036; stroke-width: 1.5;" x1="1800.5" x2="2071.5" y1="331" y2="331"/><line style="stroke: #A80036; stroke-width: 1.5;" x1="1800.5" x2="2071.5" y1="339" y2="339"/><ellipse cx="1810.5" cy="366.8047" fill="#84BE84" rx="3" ry="3" style="stroke: #038048; stroke-width: 1.0;"/><text fill="#000000" font-family="sans-serif" font-size="11" lengthAdjust="spacingAndGlyphs" textLength="247" x="1819.5" y="370.0151">TrackData evaluateRfidRequest(int rfidNum)</text><line style="stroke: #A80036; stroke-width: 1.0; stroke-dasharray: 1.0,2.0;" x1="1800.5" x2="1903" y1="353.4023" y2="353.4023"/><text fill="#000000" font-family="sans-serif" font-size="11" lengthAdjust="spacingAndGlyphs" textLength="66" x="1903" y="356.7104">Use Case 1</text><line style="stroke: #A80036; stroke-width: 1.0; stroke-dasharray: 1.0,2.0;" x1="1969" x2="2071.5" y1="353.4023" y2="353.4023"/><!--MD5=[937d6d8ff87a99d0d5dcd66ee05a1fa4]
class DisplayCommManagerImplementationTests--><rect fill="#FEFECE" filter="url(#f1czhyrhncgih)" height="48" id="DisplayCommManagerImplementationTests" style="stroke: #A80036; stroke-width: 1.5;" width="300" x="2171" y="78"/><ellipse cx="2186" cy="94" fill="#ADD1B2" rx="11" ry="11" style="stroke: #A80036; stroke-width: 1.0;"/><path d="M2188.9688,99.6406 Q2188.3906,99.9375 2187.75,100.0781 Q2187.1094,100.2344 2186.4063,100.2344 Q2183.9063,100.2344 2182.5781,98.5938 Q2181.2656,96.9375 2181.2656,93.8125 Q2181.2656,90.6875 2182.5781,89.0313 Q2183.9063,87.375 2186.4063,87.375 Q2187.1094,87.375 2187.75,87.5313 Q2188.4063,87.6875 2188.9688,87.9844 L2188.9688,90.7031 Q2188.3438,90.125 2187.75,89.8594 Q2187.1563,89.5781 2186.5313,89.5781 Q2185.1875,89.5781 2184.5,90.6563 Q2183.8125,91.7188 2183.8125,93.8125 Q2183.8125,95.9063 2184.5,96.9844 Q2185.1875,98.0469 2186.5313,98.0469 Q2187.1563,98.0469 2187.75,97.7813 Q2188.3438,97.5 2188.9688,96.9219 L2188.9688,99.6406 Z "/><text fill="#000000" font-family="sans-serif" font-size="12" lengthAdjust="spacingAndGlyphs" textLength="268" x="2200" y="98.1543">DisplayCommManagerImplementationTests</text><line style="stroke: #A80036; stroke-width: 1.5;" x1="2172" x2="2470" y1="110" y2="110"/><line style="stroke: #A80036; stroke-width: 1.5;" x1="2172" x2="2470" y1="118" y2="118"/><!--MD5=[cf56a65163663c6c6c7b84cd7c204b97]
class MiddlewareCommInterfaceStub--><rect fill="#FEFECE" filter="url(#f1czhyrhncgih)" height="77.6094" id="MiddlewareCommInterfaceStub" style="stroke: #A80036; stroke-width: 1.5;" width="225" x="2330.5" y="299"/><ellipse cx="2345.5" cy="315" fill="#ADD1B2" rx="11" ry="11" style="stroke: #A80036; stroke-width: 1.0;"/><path d="M2348.4688,320.6406 Q2347.8906,320.9375 2347.25,321.0781 Q2346.6094,321.2344 2345.9063,321.2344 Q2343.4063,321.2344 2342.0781,319.5938 Q2340.7656,317.9375 2340.7656,314.8125 Q2340.7656,311.6875 2342.0781,310.0313 Q2343.4063,308.375 2345.9063,308.375 Q2346.6094,308.375 2347.25,308.5313 Q2347.9063,308.6875 2348.4688,308.9844 L2348.4688,311.7031 Q2347.8438,311.125 2347.25,310.8594 Q2346.6563,310.5781 2346.0313,310.5781 Q2344.6875,310.5781 2344,311.6563 Q2343.3125,312.7188 2343.3125,314.8125 Q2343.3125,316.9063 2344,317.9844 Q2344.6875,319.0469 2346.0313,319.0469 Q2346.6563,319.0469 2347.25,318.7813 Q2347.8438,318.5 2348.4688,317.9219 L2348.4688,320.6406 Z "/><text fill="#000000" font-family="sans-serif" font-size="12" lengthAdjust="spacingAndGlyphs" textLength="193" x="2359.5" y="319.1543">MiddlewareCommInterfaceStub</text><line style="stroke: #A80036; stroke-width: 1.5;" x1="2331.5" x2="2554.5" y1="331" y2="331"/><line style="stroke: #A80036; stroke-width: 1.5;" x1="2331.5" x2="2554.5" y1="339" y2="339"/><ellipse cx="2341.5" cy="366.8047" fill="#84BE84" rx="3" ry="3" style="stroke: #038048; stroke-width: 1.0;"/><text fill="#000000" font-family="sans-serif" font-size="11" lengthAdjust="spacingAndGlyphs" textLength="171" x="2350.5" y="370.0151">TrackData requestRfid(int rfid)</text><line style="stroke: #A80036; stroke-width: 1.0; stroke-dasharray: 1.0,2.0;" x1="2331.5" x2="2410" y1="353.4023" y2="353.4023"/><text fill="#000000" font-family="sans-serif" font-size="11" lengthAdjust="spacingAndGlyphs" textLength="66" x="2410" y="356.7104">Use Case 1</text><line style="stroke: #A80036; stroke-width: 1.0; stroke-dasharray: 1.0,2.0;" x1="2476" x2="2554.5" y1="353.4023" y2="353.4023"/><!--MD5=[930c8140e7c1cb8e71aa7cd49967748e]
class TrackDataPlotterTests--><rect fill="#FEFECE" filter="url(#f1czhyrhncgih)" height="48" id="TrackDataPlotterTests" style="stroke: #A80036; stroke-width: 1.5;" width="172" x="2506" y="78"/><ellipse cx="2521" cy="94" fill="#ADD1B2" rx="11" ry="11" style="stroke: #A80036; stroke-width: 1.0;"/><path d="M2523.9688,99.6406 Q2523.3906,99.9375 2522.75,100.0781 Q2522.1094,100.2344 2521.4063,100.2344 Q2518.9063,100.2344 2517.5781,98.5938 Q2516.2656,96.9375 2516.2656,93.8125 Q2516.2656,90.6875 2517.5781,89.0313 Q2518.9063,87.375 2521.4063,87.375 Q2522.1094,87.375 2522.75,87.5313 Q2523.4063,87.6875 2523.9688,87.9844 L2523.9688,90.7031 Q2523.3438,90.125 2522.75,89.8594 Q2522.1563,89.5781 2521.5313,89.5781 Q2520.1875,89.5781 2519.5,90.6563 Q2518.8125,91.7188 2518.8125,93.8125 Q2518.8125,95.9063 2519.5,96.9844 Q2520.1875,98.0469 2521.5313,98.0469 Q2522.1563,98.0469 2522.75,97.7813 Q2523.3438,97.5 2523.9688,96.9219 L2523.9688,99.6406 Z "/><text fill="#000000" font-family="sans-serif" font-size="12" lengthAdjust="spacingAndGlyphs" textLength="140" x="2535" y="98.1543">TrackDataPlotterTests</text><line style="stroke: #A80036; stroke-width: 1.5;" x1="2507" x2="2677" y1="110" y2="110"/><line style="stroke: #A80036; stroke-width: 1.5;" x1="2507" x2="2677" y1="118" y2="118"/><!--MD5=[c986427b061286eff33e87a088ad4bf9]
class TrackDataPlotter--><rect fill="#FEFECE" filter="url(#f1czhyrhncgih)" height="244.0703" id="TrackDataPlotter" style="stroke: #A80036; stroke-width: 1.5;" width="291" x="2733.5" y="216"/><ellipse cx="2821.75" cy="232" fill="#ADD1B2" rx="11" ry="11" style="stroke: #A80036; stroke-width: 1.0;"/><path d="M2824.7188,237.6406 Q2824.1406,237.9375 2823.5,238.0781 Q2822.8594,238.2344 2822.1563,238.2344 Q2819.6563,238.2344 2818.3281,236.5938 Q2817.0156,234.9375 2817.0156,231.8125 Q2817.0156,228.6875 2818.3281,227.0313 Q2819.6563,225.375 2822.1563,225.375 Q2822.8594,225.375 2823.5,225.5313 Q2824.1563,225.6875 2824.7188,225.9844 L2824.7188,228.7031 Q2824.0938,228.125 2823.5,227.8594 Q2822.9063,227.5781 2822.2813,227.5781 Q2820.9375,227.5781 2820.25,228.6563 Q2819.5625,229.7188 2819.5625,231.8125 Q2819.5625,233.9063 2820.25,234.9844 Q2820.9375,236.0469 2822.2813,236.0469 Q2822.9063,236.0469 2823.5,235.7813 Q2824.0938,235.5 2824.7188,234.9219 L2824.7188,237.6406 Z "/><text fill="#000000" font-family="sans-serif" font-size="12" lengthAdjust="spacingAndGlyphs" textLength="106" x="2842.25" y="236.1543">TrackDataPlotter</text><line style="stroke: #A80036; stroke-width: 1.5;" x1="2734.5" x2="3023.5" y1="248" y2="248"/><rect fill="none" height="6" style="stroke: #C82930; stroke-width: 1.0;" width="6" x="2741.5" y="256"/><text fill="#000000" font-family="sans-serif" font-size="11" lengthAdjust="spacingAndGlyphs" textLength="86" x="2753.5" y="262.2104">TrackData data</text><rect fill="none" height="6" style="stroke: #C82930; stroke-width: 1.0;" width="6" x="2741.5" y="268.8047"/><text fill="#000000" font-family="sans-serif" font-size="11" lengthAdjust="spacingAndGlyphs" textLength="97" x="2753.5" y="275.0151">XYDataset points</text><rect fill="none" height="6" style="stroke: #C82930; stroke-width: 1.0;" width="6" x="2741.5" y="281.6094"/><text fill="#000000" font-family="sans-serif" font-size="11" lengthAdjust="spacingAndGlyphs" textLength="82" x="2753.5" y="287.8198">XYDataset line</text><rect fill="none" height="6" style="stroke: #C82930; stroke-width: 1.0;" width="6" x="2741.5" y="294.4141"/><text fill="#000000" font-family="sans-serif" font-size="11" lengthAdjust="spacingAndGlyphs" textLength="99" x="2753.5" y="300.6245">JFreeChart chart1</text><rect fill="none" height="6" style="stroke: #C82930; stroke-width: 1.0;" width="6" x="2741.5" y="307.2188"/><text fill="#000000" font-family="sans-serif" font-size="11" lengthAdjust="spacingAndGlyphs" textLength="99" x="2753.5" y="313.4292">JFreeChart chart2</text><rect fill="none" height="6" style="stroke: #C82930; stroke-width: 1.0;" width="6" x="2741.5" y="320.0234"/><text fill="#000000" font-family="sans-serif" font-size="11" lengthAdjust="spacingAndGlyphs" textLength="60" x="2753.5" y="326.2339">XYPlot plot</text><rect fill="none" height="6" style="stroke: #C82930; stroke-width: 1.0;" width="6" x="2741.5" y="332.8281"/><text fill="#000000" font-family="sans-serif" font-size="11" lengthAdjust="spacingAndGlyphs" textLength="133" x="2753.5" y="339.0386">ChartPanel chartPanel1</text><rect fill="none" height="6" style="stroke: #C82930; stroke-width: 1.0;" width="6" x="2741.5" y="345.6328"/><text fill="#000000" font-family="sans-serif" font-size="11" lengthAdjust="spacingAndGlyphs" textLength="133" x="2753.5" y="351.8433">ChartPanel chartPanel2</text><line style="stroke: #A80036; stroke-width: 1.5;" x1="2734.5" x2="3023.5" y1="358.4375" y2="358.4375"/><ellipse cx="2744.5" cy="369.4375" fill="#84BE84" rx="3" ry="3" style="stroke: #038048; stroke-width: 1.0;"/><text fill="#000000" font-family="sans-serif" font-size="11" lengthAdjust="spacingAndGlyphs" textLength="188" x="2753.5" y="372.6479">TrackDataPlotter(TrackData data)</text><ellipse cx="2744.5" cy="399.0469" fill="#84BE84" rx="3" ry="3" style="stroke: #038048; stroke-width: 1.0;"/><text fill="#000000" font-family="sans-serif" font-size="11" lengthAdjust="spacingAndGlyphs" textLength="112" x="2753.5" y="402.2573">void displayPlotter()</text><rect fill="#F24D5C" height="6" style="stroke: #C82930; stroke-width: 1.0;" width="6" x="2741.5" y="408.8516"/><text fill="#000000" font-family="sans-serif" font-size="11" lengthAdjust="spacingAndGlyphs" textLength="138" x="2753.5" y="415.062">XYSeries getTrackData()</text><rect fill="#F24D5C" height="6" style="stroke: #C82930; stroke-width: 1.0;" width="6" x="2741.5" y="421.6563"/><text fill="#000000" font-family="sans-serif" font-size="11" lengthAdjust="spacingAndGlyphs" textLength="208" x="2753.5" y="427.8667">XYSeries calculateLine(int[] x, int[] y)</text><rect fill="#F24D5C" height="6" style="stroke: #C82930; stroke-width: 1.0;" width="6" x="2741.5" y="434.4609"/><text fill="#000000" font-family="sans-serif" font-size="11" lengthAdjust="spacingAndGlyphs" textLength="262" x="2753.5" y="440.6714">int[] extractLatFromTrackData(TrackData data)</text><rect fill="#F24D5C" height="6" style="stroke: #C82930; stroke-width: 1.0;" width="6" x="2741.5" y="447.2656"/><text fill="#000000" font-family="sans-serif" font-size="11" lengthAdjust="spacingAndGlyphs" textLength="265" x="2753.5" y="453.4761">int[] extractLngFromTrackData(TrackData data)</text><line style="stroke: #A80036; stroke-width: 1.0; stroke-dasharray: 1.0,2.0;" x1="2734.5" x2="2846" y1="385.6445" y2="385.6445"/><text fill="#000000" font-family="sans-serif" font-size="11" lengthAdjust="spacingAndGlyphs" textLength="66" x="2846" y="388.9526">Use Case 1</text><line style="stroke: #A80036; stroke-width: 1.0; stroke-dasharray: 1.0,2.0;" x1="2912" x2="3023.5" y1="385.6445" y2="385.6445"/><!--MD5=[d3cb230b9040bd9072bb1f490e167601]
class MiddlewareCommInterface--><rect fill="#FEFECE" filter="url(#f1czhyrhncgih)" height="77.6094" id="MiddlewareCommInterface" style="stroke: #A80036; stroke-width: 1.5;" width="198" x="2734" y="63"/><ellipse cx="2749" cy="79" fill="#B4A7E5" rx="11" ry="11" style="stroke: #A80036; stroke-width: 1.0;"/><path d="M2744.9219,74.7656 L2744.9219,72.6094 L2752.3125,72.6094 L2752.3125,74.7656 L2749.8438,74.7656 L2749.8438,82.8438 L2752.3125,82.8438 L2752.3125,85 L2744.9219,85 L2744.9219,82.8438 L2747.3906,82.8438 L2747.3906,74.7656 L2744.9219,74.7656 Z "/><text fill="#000000" font-family="sans-serif" font-size="12" font-style="italic" lengthAdjust="spacingAndGlyphs" textLength="166" x="2763" y="83.1543">MiddlewareCommInterface</text><line style="stroke: #A80036; stroke-width: 1.5;" x1="2735" x2="2931" y1="95" y2="95"/><line style="stroke: #A80036; stroke-width: 1.5;" x1="2735" x2="2931" y1="103" y2="103"/><ellipse cx="2745" cy="130.8047" fill="#84BE84" rx="3" ry="3" style="stroke: #038048; stroke-width: 1.0;"/><text fill="#000000" font-family="sans-serif" font-size="11" font-style="italic" lengthAdjust="spacingAndGlyphs" textLength="171" x="2754" y="134.0151">TrackData requestRfid(int rfid)</text><line style="stroke: #A80036; stroke-width: 1.0; stroke-dasharray: 1.0,2.0;" x1="2735" x2="2800" y1="117.4023" y2="117.4023"/><text fill="#000000" font-family="sans-serif" font-size="11" lengthAdjust="spacingAndGlyphs" textLength="66" x="2800" y="120.7104">Use Case 1</text><line style="stroke: #A80036; stroke-width: 1.0; stroke-dasharray: 1.0,2.0;" x1="2866" x2="2931" y1="117.4023" y2="117.4023"/><!--MD5=[77bc37423dd8876786830fad4054e33b]
reverse link DisplayCommInterface to DisplayCommInterfaceImplementation--><path d="M223,161.34 C223,197.48 223,243.68 223,279.64 " fill="none" id="DisplayCommInterface&lt;-DisplayCommInterfaceImplementation" style="stroke: #A80036; stroke-width: 1.0; stroke-dasharray: 7.0,7.0;"/><polygon fill="none" points="216,161.12,223,141.12,230,161.12,216,161.12" style="stroke: #A80036; stroke-width: 1.0;"/><!--MD5=[4e991cf787e933c55089f97eae394828]
reverse link DisplayComm2WayInterface to DisplayComm2WayInterfaceImplementation--><path d="M768.03,159.1 C749.66,193.49 726.1,237.6 707.03,273.3 " fill="none" id="DisplayComm2WayInterface&lt;-DisplayComm2WayInterfaceImplementation" style="stroke: #A80036; stroke-width: 1.0; stroke-dasharray: 7.0,7.0;"/><polygon fill="none" points="762.04,155.46,777.64,141.12,774.39,162.06,762.04,155.46" style="stroke: #A80036; stroke-width: 1.0;"/><!--MD5=[5beed6c3c7e4a84a4bfaa95bdf8cce79]
reverse link DisplayCommManager to DisplayCommManagerImplementation--><path d="M1210.13,160.86 C1203.56,192.9 1195.34,232.95 1188.41,266.77 " fill="none" id="DisplayCommManager&lt;-DisplayCommManagerImplementation" style="stroke: #A80036; stroke-width: 1.0; stroke-dasharray: 7.0,7.0;"/><polygon fill="none" points="1203.3,159.3,1214.18,141.12,1217.02,162.12,1203.3,159.3" style="stroke: #A80036; stroke-width: 1.0;"/><!--MD5=[9a02b467888c5123255f55ebe5217d7a]
link DisplayCommInterfaceImplementationTests to DisplayComm2WayInterfaceStub--><path d="M1614.81,126.29 C1612.81,165.22 1608.77,244.08 1606.23,293.51 " fill="none" id="DisplayCommInterfaceImplementationTests-&gt;DisplayComm2WayInterfaceStub" style="stroke: #A80036; stroke-width: 1.0; stroke-dasharray: 7.0,7.0;"/><polygon fill="#A80036" points="1605.96,298.8,1610.4183,290.018,1606.2175,293.8066,1602.4289,289.6059,1605.96,298.8" style="stroke: #A80036; stroke-width: 1.0;"/><!--MD5=[69695ace36e753468876c8d4fe5d2708]
link DisplayComm2WayInterfaceImplementationTests to DisplayCommManagerStub--><path d="M1963.06,145.1 C1957.14,187.08 1948.09,251.25 1942.11,293.66 " fill="none" id="DisplayComm2WayInterfaceImplementationTests-&gt;DisplayCommManagerStub" style="stroke: #A80036; stroke-width: 1.0; stroke-dasharray: 7.0,7.0;"/><polygon fill="#A80036" points="1941.4,298.72,1946.6191,290.3677,1942.0991,293.7691,1938.6977,289.2491,1941.4,298.72" style="stroke: #A80036; stroke-width: 1.0;"/><!--MD5=[a3caa78d97a9caf08bd2afaaae1510f4]
link DisplayCommManagerImplementationTests to MiddlewareCommInterfaceStub--><path d="M2333.14,126.29 C2353.52,165.38 2394.89,244.72 2420.64,294.11 " fill="none" id="DisplayCommManagerImplementationTests-&gt;MiddlewareCommInterfaceStub" style="stroke: #A80036; stroke-width: 1.0; stroke-dasharray: 7.0,7.0;"/><polygon fill="#A80036" points="2423.08,298.8,2422.4567,288.9709,2420.7642,294.3686,2415.3665,292.6761,2423.08,298.8" style="stroke: #A80036; stroke-width: 1.0;"/><!--MD5=[0cd290e6298e838268680010d5032c0d]
link DisplayCommInterfaceImplementationTests to DisplayCommInterfaceImplementation--><path d="M1560.29,126.09 C1522.78,140.38 1471.8,157.4 1425,165 C1397.58,169.45 451.14,163.61 425,173 C367.34,193.72 314.08,238.51 276.74,276.06 " fill="none" id="DisplayCommInterfaceImplementationTests-&gt;DisplayCommInterfaceImplementation" style="stroke: #A80036; stroke-width: 1.0; stroke-dasharray: 7.0,7.0;"/><polygon fill="#A80036" points="273.18,279.67,282.3508,276.0788,276.694,276.1131,276.6598,270.4564,273.18,279.67" style="stroke: #A80036; stroke-width: 1.0;"/><!--MD5=[ce67f838794c14794f693dd46a642b9a]
link DisplayComm2WayInterfaceImplementationTests to DisplayComm2WayInterfaceImplementation--><path d="M1862.36,145.05 C1837.06,153.26 1809.89,160.65 1784,165 C1736.77,172.93 967.81,159.04 922,173 C858.2,192.45 795.53,233.87 749.03,270.22 " fill="none" id="DisplayComm2WayInterfaceImplementationTests-&gt;DisplayComm2WayInterfaceImplementation" style="stroke: #A80036; stroke-width: 1.0; stroke-dasharray: 7.0,7.0;"/><polygon fill="#A80036" points="744.87,273.49,754.4131,271.055,748.7951,270.3927,749.4574,264.7748,744.87,273.49" style="stroke: #A80036; stroke-width: 1.0;"/><!--MD5=[6f3abcadcd809ea193290ea1cf8b820a]
link DisplayCommManagerImplementationTests to DisplayCommManagerImplementation--><path d="M2272.58,126.04 C2239.9,140.31 2195.35,157.33 2154,165 C2115.49,172.14 1486.7,162.38 1449,173 C1383.95,191.32 1318.66,229.23 1268.03,263.99 " fill="none" id="DisplayCommManagerImplementationTests-&gt;DisplayCommManagerImplementation" style="stroke: #A80036; stroke-width: 1.0; stroke-dasharray: 7.0,7.0;"/><polygon fill="#A80036" points="1263.79,266.92,1273.4682,265.0946,1267.9035,264.0777,1268.9205,258.513,1263.79,266.92" style="stroke: #A80036; stroke-width: 1.0;"/><!--MD5=[f24e7409bf4fec90fef0ed7e05f90b9b]
link TrackDataPlotterTests to TrackDataPlotter--><path d="M2628.18,126.24 C2648.03,139.39 2672.85,156.47 2694,173 C2709.9,185.43 2726.2,198.82 2742.22,212.41 " fill="none" id="TrackDataPlotterTests-&gt;TrackDataPlotter" style="stroke: #A80036; stroke-width: 1.0; stroke-dasharray: 7.0,7.0;"/><polygon fill="#A80036" points="2746.28,215.86,2742.0141,206.9829,2742.4707,212.6213,2736.8323,213.0779,2746.28,215.86" style="stroke: #A80036; stroke-width: 1.0;"/><!--MD5=[6aaeadb42451b39b4e2cdcf83e2bb4cd]
reverse link DisplayComm2WayInterface to DisplayComm2WayInterfaceStub--><path d="M943.78,142.3 C983.46,151.43 1026.63,159.95 1067,165 C1106.48,169.94 1388.08,158.17 1425,173 C1489.14,198.77 1544.56,258.83 1576.11,298.67 " fill="none" id="DisplayComm2WayInterface&lt;-DisplayComm2WayInterfaceStub" style="stroke: #A80036; stroke-width: 1.0; stroke-dasharray: 7.0,7.0;"/><polygon fill="none" points="942.16,149.11,924.3,137.71,945.38,135.49,942.16,149.11" style="stroke: #A80036; stroke-width: 1.0;"/><!--MD5=[e6e0d8b3e0f7bf14f11c0899b3ad37ae]
reverse link DisplayCommManager to DisplayCommManagerStub--><path d="M1359.58,146.24 C1388.83,153.83 1419.72,160.67 1449,165 C1481.88,169.86 1717.04,160.92 1748,173 C1814.17,198.82 1872.72,258.86 1906.25,298.69 " fill="none" id="DisplayCommManager&lt;-DisplayCommManagerStub" style="stroke: #A80036; stroke-width: 1.0; stroke-dasharray: 7.0,7.0;"/><polygon fill="none" points="1357.65,152.97,1340.14,141.03,1361.27,139.45,1357.65,152.97" style="stroke: #A80036; stroke-width: 1.0;"/><!--MD5=[72cb9e2c0df516d67fcc7a3605b88acd]
reverse link MiddlewareCommInterface to MiddlewareCommInterfaceStub--><path d="M2752.15,151.51 C2679.25,195.25 2573.49,258.71 2506.5,298.9 " fill="none" id="MiddlewareCommInterface&lt;-MiddlewareCommInterfaceStub" style="stroke: #A80036; stroke-width: 1.0; stroke-dasharray: 7.0,7.0;"/><polygon fill="none" points="2748.72,145.4,2769.47,141.12,2755.92,157.41,2748.72,145.4" style="stroke: #A80036; stroke-width: 1.0;"/><!--MD5=[12bd51b9bca38c56eb983ad961c08db3]
@startuml Display02Packages_DirectDependencies


package edu.oakland.production.display02 {
    
}


package edu.oakland.production.display02 {
    
}


package edu.oakland.production.display02 {
    interface DisplayCommInterface {
        __
        .. Use Case 1 ..
        {abstract} + TrackData receiveRfidRequest(int rfidNum)
    }
}


package edu.oakland.production.display02 {
    interface DisplayComm2WayInterface {
        __
        .. Use Case 1 ..
        {abstract} + TrackData passRfidRequest(int rfidNum)
    }
}


package edu.oakland.production.display02 {
    interface DisplayCommManager {
        __
        .. Use Case 1 ..
        {abstract} + TrackData evaluateRfidRequest(int rfidNum)
    }
}


package edu.oakland.production.display02 {
    class DisplayCommInterfaceImplementation {
        - DisplayComm2WayInterface receiver
        __
        + DisplayCommInterface(DisplayComm2WayInterface receiver)
        .. Use Case 1 ..
        + TrackData receiveRfidRequest(int rfidNum)
        - TrackData passToComm2WayInterface(int rfidNum)
    }
}


DisplayCommInterfaceImplementation .up.|> DisplayCommInterface

package edu.oakland.production.display02 {
    class DisplayComm2WayInterfaceImplementation {
        - DisplayCommManager manager
        __
        + DisplayComm2WayInterfaceImplementation(DisplayCommManager manager)
        .. Use Case 1 ..
        + TrackData passRfidRequest(int rfidNum)
        - void determineUserRequestFormat(int rfidNum)
        - void receiveRequestFromDisplayCommInterface(int rfidNum)
    }
}


DisplayComm2WayInterfaceImplementation .up.|> DisplayComm2WayInterface

package edu.oakland.production.display02 {
    class DisplayCommManagerImplementation {
        - MiddlewareCommInterface middleware
        __
        + DisplayCommManagerImplementation(MiddlewareCommInterface middleware)
        .. Use Case 1 ..
        + TrackData receiveRequestFromDisplay2WayInterface(int rfidNum)
        - TrackData evaluateRfidRequest(int rfidNum)
        - TrackData passRequestToMiddlewareCommInterface(int rfidNum)
        
    }
}


DisplayCommManagerImplementation .up.|> DisplayCommManager
















package edu.oakland.test.display02 {
    
}


package edu.oakland.test.display02 {
    
}


package edu.oakland.test.display02 {
    class DisplayCommInterfaceImplementationTests {

    }
}



package edu.oakland.test.display02 {
    class DisplayComm2WayInterfaceStub {
        __
        .. Use Case 1 ..
        {abstract} + TrackData passRfidRequest(int rfidNum)
    }
}

DisplayCommInterfaceImplementationTests ..> DisplayComm2WayInterfaceStub

package edu.oakland.test.display02 {
    class DisplayComm2WayInterfaceImplementationTests {
        + void rfidInIsInt()
        + void rfidInIsRfidOut()
        + void returnIsOfTypeTrackData()
    }
}



package edu.oakland.test.display02 {
    class DisplayCommManagerStub {
        __
        .. Use Case 1 ..
        + TrackData evaluateRfidRequest(int rfidNum)
    }
}

DisplayComm2WayInterfaceImplementationTests ..> DisplayCommManagerStub

package edu.oakland.test.display02 {
    class DisplayCommManagerImplementationTests {

    }
}



package edu.oakland.test.display02 {
    class MiddlewareCommInterfaceStub {
        __
        .. Use Case 1 ..
        + TrackData requestRfid(int rfid)
    }
}

DisplayCommManagerImplementationTests ..> MiddlewareCommInterfaceStub

package edu.oakland.test.display02 {
    class TrackDataPlotterTests {

    }
}


DisplayCommInterfaceImplementationTests ..> DisplayCommInterfaceImplementation
DisplayComm2WayInterfaceImplementationTests ..> DisplayComm2WayInterfaceImplementation
DisplayCommManagerImplementationTests ..> DisplayCommManagerImplementation

package edu.oakland.helper.display02 {
    class TrackDataPlotter {
        - TrackData data
        - XYDataset points
        - XYDataset line
        - JFreeChart chart1
        - JFreeChart chart2
        - XYPlot plot
        - ChartPanel chartPanel1
        - ChartPanel chartPanel2
        __
        + TrackDataPlotter(TrackData data)
        .. Use Case 1 ..
        + void displayPlotter()
        - XYSeries getTrackData()
        - XYSeries calculateLine(int[] x, int[] y)
        - int[] extractLatFromTrackData(TrackData data)
        - int[] extractLngFromTrackData(TrackData data)
    }
}

TrackDataPlotterTests ..> TrackDataPlotter
DisplayComm2WayInterfaceStub .up.|> DisplayComm2WayInterface
DisplayCommManagerStub .up.|> DisplayCommManager









package edu.oakland.production.middleware02 {
    interface MiddlewareCommInterface {
        __
        .. Use Case 1 ..
        {abstract} + TrackData requestRfid(int rfid)
    }
}

MiddlewareCommInterfaceStub .up.|> MiddlewareCommInterface


package edu.oakland.helper.display02 {
    
}



@enduml

PlantUML version 1.2020.02(Sun Mar 01 10:22:07 GMT 2020)
(GPL source distribution)
Java Runtime: OpenJDK Runtime Environment
JVM: OpenJDK 64-Bit Server VM
Java Version: 11.0.9+11-Ubuntu-0ubuntu1
Operating System: Linux
Default Encoding: ANSI_X3.4-1968
Language: en
Country: US
--></g></svg>