<?xml version="1.0" encoding="UTF-8" standalone="no"?><svg xmlns="http://www.w3.org/2000/svg" xmlns:xlink="http://www.w3.org/1999/xlink" contentScriptType="application/ecmascript" contentStyleType="text/css" height="469px" preserveAspectRatio="none" style="width:3062px;height:469px;" version="1.1" viewBox="0 0 3062 469" width="3062px" zoomAndPan="magnify"><defs><filter height="300%" id="fh1bfvu826rok" width="300%" x="-1" y="-1"><feGaussianBlur result="blurOut" stdDeviation="2.0"/><feColorMatrix in="blurOut" result="blurOut2" type="matrix" values="0 0 0 0 0 0 0 0 0 0 0 0 0 0 0 0 0 0 .4 0"/><feOffset dx="4.0" dy="4.0" in="blurOut2" result="blurOut3"/><feBlend in="SourceGraphic" in2="blurOut3" mode="normal"/></filter></defs><g><!--MD5=[fe59aae6f7bfe371a9c197ec1f7f843a]
cluster edu.oakland.production.display02--><polygon fill="#FFFFFF" filter="url(#fh1bfvu826rok)" points="1637,24,1910,24,1917,46.2969,3040,46.2969,3040,406,1637,406,1637,24" style="stroke: #000000; stroke-width: 1.5;"/><line style="stroke: #000000; stroke-width: 1.5;" x1="1637" x2="1917" y1="46.2969" y2="46.2969"/><text fill="#000000" font-family="sans-serif" font-size="14" font-weight="bold" lengthAdjust="spacingAndGlyphs" textLength="267" x="1641" y="38.9951">edu.oakland.production.display02</text><!--MD5=[9258003ec405d300d3379b4a3d8dd6ad]
cluster edu.oakland.test.display02--><polygon fill="#FFFFFF" filter="url(#fh1bfvu826rok)" points="368,39,586,39,593,61.2969,1613,61.2969,1613,374,368,374,368,39" style="stroke: #000000; stroke-width: 1.5;"/><line style="stroke: #000000; stroke-width: 1.5;" x1="368" x2="593" y1="61.2969" y2="61.2969"/><text fill="#000000" font-family="sans-serif" font-size="14" font-weight="bold" lengthAdjust="spacingAndGlyphs" textLength="212" x="372" y="53.9951">edu.oakland.test.display02</text><!--MD5=[a502031b5a5384de0a21e6ee820fd3b2]
cluster edu.oakland.helper.display02--><polygon fill="#FFFFFF" filter="url(#fh1bfvu826rok)" points="22,162,260,162,267,184.2969,344,184.2969,344,457,22,457,22,162" style="stroke: #000000; stroke-width: 1.5;"/><line style="stroke: #000000; stroke-width: 1.5;" x1="22" x2="267" y1="184.2969" y2="184.2969"/><text fill="#000000" font-family="sans-serif" font-size="14" font-weight="bold" lengthAdjust="spacingAndGlyphs" textLength="232" x="26" y="176.9951">edu.oakland.helper.display02</text><!--MD5=[c8d1e3134fecb0c949fd2a76cc0bb992]
class DisplayCommInterface--><rect fill="#FEFECE" filter="url(#fh1bfvu826rok)" height="77.6094" id="DisplayCommInterface" style="stroke: #A80036; stroke-width: 1.5;" width="268" x="2705" y="59"/><ellipse cx="2765.25" cy="75" fill="#B4A7E5" rx="11" ry="11" style="stroke: #A80036; stroke-width: 1.0;"/><path d="M2761.1719,70.7656 L2761.1719,68.6094 L2768.5625,68.6094 L2768.5625,70.7656 L2766.0938,70.7656 L2766.0938,78.8438 L2768.5625,78.8438 L2768.5625,81 L2761.1719,81 L2761.1719,78.8438 L2763.6406,78.8438 L2763.6406,70.7656 L2761.1719,70.7656 Z "/><text fill="#000000" font-family="sans-serif" font-size="12" font-style="italic" lengthAdjust="spacingAndGlyphs" textLength="139" x="2785.75" y="79.1543">DisplayCommInterface</text><line style="stroke: #A80036; stroke-width: 1.5;" x1="2706" x2="2972" y1="91" y2="91"/><line style="stroke: #A80036; stroke-width: 1.5;" x1="2706" x2="2972" y1="99" y2="99"/><ellipse cx="2716" cy="126.8047" fill="#84BE84" rx="3" ry="3" style="stroke: #038048; stroke-width: 1.0;"/><text fill="#000000" font-family="sans-serif" font-size="11" font-style="italic" lengthAdjust="spacingAndGlyphs" textLength="242" x="2725" y="130.0151">TrackData receiveRfidRequest(int rfidNum)</text><line style="stroke: #A80036; stroke-width: 1.0; stroke-dasharray: 1.0,2.0;" x1="2706" x2="2806" y1="113.4023" y2="113.4023"/><text fill="#000000" font-family="sans-serif" font-size="11" lengthAdjust="spacingAndGlyphs" textLength="66" x="2806" y="116.7104">Use Case 1</text><line style="stroke: #A80036; stroke-width: 1.0; stroke-dasharray: 1.0,2.0;" x1="2872" x2="2972" y1="113.4023" y2="113.4023"/><!--MD5=[f6b51b5f862da5ce226c62e411e84628]
class DisplayComm2WayInterface--><rect fill="#FEFECE" filter="url(#fh1bfvu826rok)" height="77.6094" id="DisplayComm2WayInterface" style="stroke: #A80036; stroke-width: 1.5;" width="252" x="2138" y="59"/><ellipse cx="2173.7" cy="75" fill="#B4A7E5" rx="11" ry="11" style="stroke: #A80036; stroke-width: 1.0;"/><path d="M2169.6219,70.7656 L2169.6219,68.6094 L2177.0125,68.6094 L2177.0125,70.7656 L2174.5438,70.7656 L2174.5438,78.8438 L2177.0125,78.8438 L2177.0125,81 L2169.6219,81 L2169.6219,78.8438 L2172.0906,78.8438 L2172.0906,70.7656 L2169.6219,70.7656 Z "/><text fill="#000000" font-family="sans-serif" font-size="12" font-style="italic" lengthAdjust="spacingAndGlyphs" textLength="174" x="2192.3" y="79.1543">DisplayComm2WayInterface</text><line style="stroke: #A80036; stroke-width: 1.5;" x1="2139" x2="2389" y1="91" y2="91"/><line style="stroke: #A80036; stroke-width: 1.5;" x1="2139" x2="2389" y1="99" y2="99"/><ellipse cx="2149" cy="126.8047" fill="#84BE84" rx="3" ry="3" style="stroke: #038048; stroke-width: 1.0;"/><text fill="#000000" font-family="sans-serif" font-size="11" font-style="italic" lengthAdjust="spacingAndGlyphs" textLength="226" x="2158" y="130.0151">TrackData passRfidRequest(int rfidNum)</text><line style="stroke: #A80036; stroke-width: 1.0; stroke-dasharray: 1.0,2.0;" x1="2139" x2="2231" y1="113.4023" y2="113.4023"/><text fill="#000000" font-family="sans-serif" font-size="11" lengthAdjust="spacingAndGlyphs" textLength="66" x="2231" y="116.7104">Use Case 1</text><line style="stroke: #A80036; stroke-width: 1.0; stroke-dasharray: 1.0,2.0;" x1="2297" x2="2389" y1="113.4023" y2="113.4023"/><!--MD5=[6aeb72f2773d7cabb45309482beeff0a]
class DisplayCommManager--><rect fill="#FEFECE" filter="url(#fh1bfvu826rok)" height="77.6094" id="DisplayCommManager" style="stroke: #A80036; stroke-width: 1.5;" width="275" x="1702.5" y="59"/><ellipse cx="1767.25" cy="75" fill="#B4A7E5" rx="11" ry="11" style="stroke: #A80036; stroke-width: 1.0;"/><path d="M1763.1719,70.7656 L1763.1719,68.6094 L1770.5625,68.6094 L1770.5625,70.7656 L1768.0938,70.7656 L1768.0938,78.8438 L1770.5625,78.8438 L1770.5625,81 L1763.1719,81 L1763.1719,78.8438 L1765.6406,78.8438 L1765.6406,70.7656 L1763.1719,70.7656 Z "/><text fill="#000000" font-family="sans-serif" font-size="12" font-style="italic" lengthAdjust="spacingAndGlyphs" textLength="137" x="1787.75" y="79.1543">DisplayCommManager</text><line style="stroke: #A80036; stroke-width: 1.5;" x1="1703.5" x2="1976.5" y1="91" y2="91"/><line style="stroke: #A80036; stroke-width: 1.5;" x1="1703.5" x2="1976.5" y1="99" y2="99"/><ellipse cx="1713.5" cy="126.8047" fill="#84BE84" rx="3" ry="3" style="stroke: #038048; stroke-width: 1.0;"/><text fill="#000000" font-family="sans-serif" font-size="11" font-style="italic" lengthAdjust="spacingAndGlyphs" textLength="249" x="1722.5" y="130.0151">TrackData evaluateRfidRequest(int rfidNum)</text><line style="stroke: #A80036; stroke-width: 1.0; stroke-dasharray: 1.0,2.0;" x1="1703.5" x2="1807" y1="113.4023" y2="113.4023"/><text fill="#000000" font-family="sans-serif" font-size="11" lengthAdjust="spacingAndGlyphs" textLength="66" x="1807" y="116.7104">Use Case 1</text><line style="stroke: #A80036; stroke-width: 1.0; stroke-dasharray: 1.0,2.0;" x1="1873" x2="1976.5" y1="113.4023" y2="113.4023"/><!--MD5=[a35092e604da7274febf4e2cf9a25087]
class DisplayCommInterfaceImplementation--><rect fill="#FEFECE" filter="url(#fh1bfvu826rok)" height="116.0234" id="DisplayCommInterfaceImplementation" style="stroke: #A80036; stroke-width: 1.5;" width="369" x="2654.5" y="261"/><ellipse cx="2717.25" cy="277" fill="#ADD1B2" rx="11" ry="11" style="stroke: #A80036; stroke-width: 1.0;"/><path d="M2720.2188,282.6406 Q2719.6406,282.9375 2719,283.0781 Q2718.3594,283.2344 2717.6563,283.2344 Q2715.1563,283.2344 2713.8281,281.5938 Q2712.5156,279.9375 2712.5156,276.8125 Q2712.5156,273.6875 2713.8281,272.0313 Q2715.1563,270.375 2717.6563,270.375 Q2718.3594,270.375 2719,270.5313 Q2719.6563,270.6875 2720.2188,270.9844 L2720.2188,273.7031 Q2719.5938,273.125 2719,272.8594 Q2718.4063,272.5781 2717.7813,272.5781 Q2716.4375,272.5781 2715.75,273.6563 Q2715.0625,274.7188 2715.0625,276.8125 Q2715.0625,278.9063 2715.75,279.9844 Q2716.4375,281.0469 2717.7813,281.0469 Q2718.4063,281.0469 2719,280.7813 Q2719.5938,280.5 2720.2188,279.9219 L2720.2188,282.6406 Z "/><text fill="#000000" font-family="sans-serif" font-size="12" lengthAdjust="spacingAndGlyphs" textLength="235" x="2737.75" y="281.1543">DisplayCommInterfaceImplementation</text><line style="stroke: #A80036; stroke-width: 1.5;" x1="2655.5" x2="3022.5" y1="293" y2="293"/><rect fill="none" height="6" style="stroke: #C82930; stroke-width: 1.0;" width="6" x="2662.5" y="301"/><text fill="#000000" font-family="sans-serif" font-size="11" lengthAdjust="spacingAndGlyphs" textLength="207" x="2674.5" y="307.2104">DisplayComm2WayInterface receiver</text><line style="stroke: #A80036; stroke-width: 1.5;" x1="2655.5" x2="3022.5" y1="313.8047" y2="313.8047"/><ellipse cx="2665.5" cy="324.8047" fill="#84BE84" rx="3" ry="3" style="stroke: #038048; stroke-width: 1.0;"/><text fill="#000000" font-family="sans-serif" font-size="11" lengthAdjust="spacingAndGlyphs" textLength="343" x="2674.5" y="328.0151">DisplayCommInterface(DisplayComm2WayInterface receiver)</text><ellipse cx="2665.5" cy="354.4141" fill="#84BE84" rx="3" ry="3" style="stroke: #038048; stroke-width: 1.0;"/><text fill="#000000" font-family="sans-serif" font-size="11" lengthAdjust="spacingAndGlyphs" textLength="240" x="2674.5" y="357.6245">TrackData receiveRfidRequest(int rfidNum)</text><rect fill="#F24D5C" height="6" style="stroke: #C82930; stroke-width: 1.0;" width="6" x="2662.5" y="364.2188"/><text fill="#000000" font-family="sans-serif" font-size="11" lengthAdjust="spacingAndGlyphs" textLength="290" x="2674.5" y="370.4292">TrackData passToComm2WayInterface(int rfidNum)</text><line style="stroke: #A80036; stroke-width: 1.0; stroke-dasharray: 1.0,2.0;" x1="2655.5" x2="2806" y1="341.0117" y2="341.0117"/><text fill="#000000" font-family="sans-serif" font-size="11" lengthAdjust="spacingAndGlyphs" textLength="66" x="2806" y="344.3198">Use Case 1</text><line style="stroke: #A80036; stroke-width: 1.0; stroke-dasharray: 1.0,2.0;" x1="2872" x2="3022.5" y1="341.0117" y2="341.0117"/><!--MD5=[46657c2900260d4d40350fe3f8c544df]
class DisplayComm2WayInterfaceImplementation--><rect fill="#FEFECE" filter="url(#fh1bfvu826rok)" height="128.8281" id="DisplayComm2WayInterfaceImplementation" style="stroke: #A80036; stroke-width: 1.5;" width="461" x="2158.5" y="254.5"/><ellipse cx="2250.75" cy="270.5" fill="#ADD1B2" rx="11" ry="11" style="stroke: #A80036; stroke-width: 1.0;"/><path d="M2253.7188,276.1406 Q2253.1406,276.4375 2252.5,276.5781 Q2251.8594,276.7344 2251.1563,276.7344 Q2248.6563,276.7344 2247.3281,275.0938 Q2246.0156,273.4375 2246.0156,270.3125 Q2246.0156,267.1875 2247.3281,265.5313 Q2248.6563,263.875 2251.1563,263.875 Q2251.8594,263.875 2252.5,264.0313 Q2253.1563,264.1875 2253.7188,264.4844 L2253.7188,267.2031 Q2253.0938,266.625 2252.5,266.3594 Q2251.9063,266.0781 2251.2813,266.0781 Q2249.9375,266.0781 2249.25,267.1563 Q2248.5625,268.2188 2248.5625,270.3125 Q2248.5625,272.4063 2249.25,273.4844 Q2249.9375,274.5469 2251.2813,274.5469 Q2251.9063,274.5469 2252.5,274.2813 Q2253.0938,274 2253.7188,273.4219 L2253.7188,276.1406 Z "/><text fill="#000000" font-family="sans-serif" font-size="12" lengthAdjust="spacingAndGlyphs" textLength="268" x="2271.25" y="274.6543">DisplayComm2WayInterfaceImplementation</text><line style="stroke: #A80036; stroke-width: 1.5;" x1="2159.5" x2="2618.5" y1="286.5" y2="286.5"/><rect fill="none" height="6" style="stroke: #C82930; stroke-width: 1.0;" width="6" x="2166.5" y="294.5"/><text fill="#000000" font-family="sans-serif" font-size="11" lengthAdjust="spacingAndGlyphs" textLength="182" x="2178.5" y="300.7104">DisplayCommManager manager</text><line style="stroke: #A80036; stroke-width: 1.5;" x1="2159.5" x2="2618.5" y1="307.3047" y2="307.3047"/><ellipse cx="2169.5" cy="318.3047" fill="#84BE84" rx="3" ry="3" style="stroke: #038048; stroke-width: 1.0;"/><text fill="#000000" font-family="sans-serif" font-size="11" lengthAdjust="spacingAndGlyphs" textLength="435" x="2178.5" y="321.5151">DisplayComm2WayInterfaceImplementation(DisplayCommManager manager)</text><ellipse cx="2169.5" cy="347.9141" fill="#84BE84" rx="3" ry="3" style="stroke: #038048; stroke-width: 1.0;"/><text fill="#000000" font-family="sans-serif" font-size="11" lengthAdjust="spacingAndGlyphs" textLength="227" x="2178.5" y="351.1245">TrackData passRfidRequest(int rfidNum)</text><rect fill="#F24D5C" height="6" style="stroke: #C82930; stroke-width: 1.0;" width="6" x="2166.5" y="357.7188"/><text fill="#000000" font-family="sans-serif" font-size="11" lengthAdjust="spacingAndGlyphs" textLength="269" x="2178.5" y="363.9292">void determineUserRequestFormat(int rfidNum)</text><rect fill="#F24D5C" height="6" style="stroke: #C82930; stroke-width: 1.0;" width="6" x="2166.5" y="370.5234"/><text fill="#000000" font-family="sans-serif" font-size="11" lengthAdjust="spacingAndGlyphs" textLength="342" x="2178.5" y="376.7339">void receiveRequestFromDisplayCommInterface(int rfidNum)</text><line style="stroke: #A80036; stroke-width: 1.0; stroke-dasharray: 1.0,2.0;" x1="2159.5" x2="2356" y1="334.5117" y2="334.5117"/><text fill="#000000" font-family="sans-serif" font-size="11" lengthAdjust="spacingAndGlyphs" textLength="66" x="2356" y="337.8198">Use Case 1</text><line style="stroke: #A80036; stroke-width: 1.0; stroke-dasharray: 1.0,2.0;" x1="2422" x2="2618.5" y1="334.5117" y2="334.5117"/><!--MD5=[3a27b63ddb357afc5dde5581215f51f9]
class DisplayCommManagerImplementation--><rect fill="#FEFECE" filter="url(#fh1bfvu826rok)" height="141.6328" id="DisplayCommManagerImplementation" style="stroke: #A80036; stroke-width: 1.5;" width="470" x="1653" y="248"/><ellipse cx="1766.75" cy="264" fill="#ADD1B2" rx="11" ry="11" style="stroke: #A80036; stroke-width: 1.0;"/><path d="M1769.7188,269.6406 Q1769.1406,269.9375 1768.5,270.0781 Q1767.8594,270.2344 1767.1563,270.2344 Q1764.6563,270.2344 1763.3281,268.5938 Q1762.0156,266.9375 1762.0156,263.8125 Q1762.0156,260.6875 1763.3281,259.0313 Q1764.6563,257.375 1767.1563,257.375 Q1767.8594,257.375 1768.5,257.5313 Q1769.1563,257.6875 1769.7188,257.9844 L1769.7188,260.7031 Q1769.0938,260.125 1768.5,259.8594 Q1767.9063,259.5781 1767.2813,259.5781 Q1765.9375,259.5781 1765.25,260.6563 Q1764.5625,261.7188 1764.5625,263.8125 Q1764.5625,265.9063 1765.25,266.9844 Q1765.9375,268.0469 1767.2813,268.0469 Q1767.9063,268.0469 1768.5,267.7813 Q1769.0938,267.5 1769.7188,266.9219 L1769.7188,269.6406 Z "/><text fill="#000000" font-family="sans-serif" font-size="12" lengthAdjust="spacingAndGlyphs" textLength="234" x="1787.25" y="268.1543">DisplayCommManagerImplementation</text><line style="stroke: #A80036; stroke-width: 1.5;" x1="1654" x2="2122" y1="280" y2="280"/><rect fill="none" height="6" style="stroke: #C82930; stroke-width: 1.0;" width="6" x="1661" y="288"/><text fill="#000000" font-family="sans-serif" font-size="11" lengthAdjust="spacingAndGlyphs" textLength="221" x="1673" y="294.2104">MiddlewareCommInterface middleware</text><line style="stroke: #A80036; stroke-width: 1.5;" x1="1654" x2="2122" y1="300.8047" y2="300.8047"/><ellipse cx="1664" cy="311.8047" fill="#84BE84" rx="3" ry="3" style="stroke: #038048; stroke-width: 1.0;"/><text fill="#000000" font-family="sans-serif" font-size="11" lengthAdjust="spacingAndGlyphs" textLength="444" x="1673" y="315.0151">DisplayCommManagerImplementation(MiddlewareCommInterface middleware)</text><ellipse cx="1664" cy="341.4141" fill="#84BE84" rx="3" ry="3" style="stroke: #038048; stroke-width: 1.0;"/><text fill="#000000" font-family="sans-serif" font-size="11" lengthAdjust="spacingAndGlyphs" textLength="368" x="1673" y="344.6245">TrackData receiveRequestFromDisplay2WayInterface(int rfidNum)</text><rect fill="#F24D5C" height="6" style="stroke: #C82930; stroke-width: 1.0;" width="6" x="1661" y="351.2188"/><text fill="#000000" font-family="sans-serif" font-size="11" lengthAdjust="spacingAndGlyphs" textLength="247" x="1673" y="357.4292">TrackData evaluateRfidRequest(int rfidNum)</text><rect fill="#F24D5C" height="6" style="stroke: #C82930; stroke-width: 1.0;" width="6" x="1661" y="364.0234"/><text fill="#000000" font-family="sans-serif" font-size="11" lengthAdjust="spacingAndGlyphs" textLength="371" x="1673" y="370.2339">TrackData passRequestToMiddlewareCommInterface(int rfidNum)</text><text fill="#000000" font-family="sans-serif" font-size="11" lengthAdjust="spacingAndGlyphs" textLength="0" x="1677" y="383.0386"/><line style="stroke: #A80036; stroke-width: 1.0; stroke-dasharray: 1.0,2.0;" x1="1654" x2="1855" y1="328.0117" y2="328.0117"/><text fill="#000000" font-family="sans-serif" font-size="11" lengthAdjust="spacingAndGlyphs" textLength="66" x="1855" y="331.3198">Use Case 1</text><line style="stroke: #A80036; stroke-width: 1.0; stroke-dasharray: 1.0,2.0;" x1="1921" x2="2122" y1="328.0117" y2="328.0117"/><!--MD5=[d454b7777f115113290d89683d7a426c]
class DisplayCommInterfaceImplementationTests--><rect fill="#FEFECE" filter="url(#fh1bfvu826rok)" height="48" id="DisplayCommInterfaceImplementationTests" style="stroke: #A80036; stroke-width: 1.5;" width="301" x="1295.5" y="74"/><ellipse cx="1310.5" cy="90" fill="#ADD1B2" rx="11" ry="11" style="stroke: #A80036; stroke-width: 1.0;"/><path d="M1313.4688,95.6406 Q1312.8906,95.9375 1312.25,96.0781 Q1311.6094,96.2344 1310.9063,96.2344 Q1308.4063,96.2344 1307.0781,94.5938 Q1305.7656,92.9375 1305.7656,89.8125 Q1305.7656,86.6875 1307.0781,85.0313 Q1308.4063,83.375 1310.9063,83.375 Q1311.6094,83.375 1312.25,83.5313 Q1312.9063,83.6875 1313.4688,83.9844 L1313.4688,86.7031 Q1312.8438,86.125 1312.25,85.8594 Q1311.6563,85.5781 1311.0313,85.5781 Q1309.6875,85.5781 1309,86.6563 Q1308.3125,87.7188 1308.3125,89.8125 Q1308.3125,91.9063 1309,92.9844 Q1309.6875,94.0469 1311.0313,94.0469 Q1311.6563,94.0469 1312.25,93.7813 Q1312.8438,93.5 1313.4688,92.9219 L1313.4688,95.6406 Z "/><text fill="#000000" font-family="sans-serif" font-size="12" lengthAdjust="spacingAndGlyphs" textLength="269" x="1324.5" y="94.1543">DisplayCommInterfaceImplementationTests</text><line style="stroke: #A80036; stroke-width: 1.5;" x1="1296.5" x2="1595.5" y1="106" y2="106"/><line style="stroke: #A80036; stroke-width: 1.5;" x1="1296.5" x2="1595.5" y1="114" y2="114"/><!--MD5=[a333ac13e0fdf2a5898aafabd38d3c1b]
class DisplayComm2WayInterfaceStub--><rect fill="#FEFECE" filter="url(#fh1bfvu826rok)" height="77.6094" id="DisplayComm2WayInterfaceStub" style="stroke: #A80036; stroke-width: 1.5;" width="252" x="1332" y="280"/><ellipse cx="1356" cy="296" fill="#ADD1B2" rx="11" ry="11" style="stroke: #A80036; stroke-width: 1.0;"/><path d="M1358.9688,301.6406 Q1358.3906,301.9375 1357.75,302.0781 Q1357.1094,302.2344 1356.4063,302.2344 Q1353.9063,302.2344 1352.5781,300.5938 Q1351.2656,298.9375 1351.2656,295.8125 Q1351.2656,292.6875 1352.5781,291.0313 Q1353.9063,289.375 1356.4063,289.375 Q1357.1094,289.375 1357.75,289.5313 Q1358.4063,289.6875 1358.9688,289.9844 L1358.9688,292.7031 Q1358.3438,292.125 1357.75,291.8594 Q1357.1563,291.5781 1356.5313,291.5781 Q1355.1875,291.5781 1354.5,292.6563 Q1353.8125,293.7188 1353.8125,295.8125 Q1353.8125,297.9063 1354.5,298.9844 Q1355.1875,300.0469 1356.5313,300.0469 Q1357.1563,300.0469 1357.75,299.7813 Q1358.3438,299.5 1358.9688,298.9219 L1358.9688,301.6406 Z "/><text fill="#000000" font-family="sans-serif" font-size="12" lengthAdjust="spacingAndGlyphs" textLength="200" x="1372" y="300.1543">DisplayComm2WayInterfaceStub</text><line style="stroke: #A80036; stroke-width: 1.5;" x1="1333" x2="1583" y1="312" y2="312"/><line style="stroke: #A80036; stroke-width: 1.5;" x1="1333" x2="1583" y1="320" y2="320"/><ellipse cx="1343" cy="347.8047" fill="#84BE84" rx="3" ry="3" style="stroke: #038048; stroke-width: 1.0;"/><text fill="#000000" font-family="sans-serif" font-size="11" font-style="italic" lengthAdjust="spacingAndGlyphs" textLength="226" x="1352" y="351.0151">TrackData passRfidRequest(int rfidNum)</text><line style="stroke: #A80036; stroke-width: 1.0; stroke-dasharray: 1.0,2.0;" x1="1333" x2="1425" y1="334.4023" y2="334.4023"/><text fill="#000000" font-family="sans-serif" font-size="11" lengthAdjust="spacingAndGlyphs" textLength="66" x="1425" y="337.7104">Use Case 1</text><line style="stroke: #A80036; stroke-width: 1.0; stroke-dasharray: 1.0,2.0;" x1="1491" x2="1583" y1="334.4023" y2="334.4023"/><!--MD5=[178181f4c7684560c711246055fc01d3]
class DisplayComm2WayInterfaceImplementationTests--><rect fill="#FEFECE" filter="url(#fh1bfvu826rok)" height="48" id="DisplayComm2WayInterfaceImplementationTests" style="stroke: #A80036; stroke-width: 1.5;" width="334" x="926" y="74"/><ellipse cx="941" cy="90" fill="#ADD1B2" rx="11" ry="11" style="stroke: #A80036; stroke-width: 1.0;"/><path d="M943.9688,95.6406 Q943.3906,95.9375 942.75,96.0781 Q942.1094,96.2344 941.4063,96.2344 Q938.9063,96.2344 937.5781,94.5938 Q936.2656,92.9375 936.2656,89.8125 Q936.2656,86.6875 937.5781,85.0313 Q938.9063,83.375 941.4063,83.375 Q942.1094,83.375 942.75,83.5313 Q943.4063,83.6875 943.9688,83.9844 L943.9688,86.7031 Q943.3438,86.125 942.75,85.8594 Q942.1563,85.5781 941.5313,85.5781 Q940.1875,85.5781 939.5,86.6563 Q938.8125,87.7188 938.8125,89.8125 Q938.8125,91.9063 939.5,92.9844 Q940.1875,94.0469 941.5313,94.0469 Q942.1563,94.0469 942.75,93.7813 Q943.3438,93.5 943.9688,92.9219 L943.9688,95.6406 Z "/><text fill="#000000" font-family="sans-serif" font-size="12" lengthAdjust="spacingAndGlyphs" textLength="302" x="955" y="94.1543">DisplayComm2WayInterfaceImplementationTests</text><line style="stroke: #A80036; stroke-width: 1.5;" x1="927" x2="1259" y1="106" y2="106"/><line style="stroke: #A80036; stroke-width: 1.5;" x1="927" x2="1259" y1="114" y2="114"/><!--MD5=[2970358178d6cf57fc5a801b39eb8d0b]
class DisplayCommManagerStub--><rect fill="#FEFECE" filter="url(#fh1bfvu826rok)" height="77.6094" id="DisplayCommManagerStub" style="stroke: #A80036; stroke-width: 1.5;" width="273" x="989.5" y="280"/><ellipse cx="1038.75" cy="296" fill="#ADD1B2" rx="11" ry="11" style="stroke: #A80036; stroke-width: 1.0;"/><path d="M1041.7188,301.6406 Q1041.1406,301.9375 1040.5,302.0781 Q1039.8594,302.2344 1039.1563,302.2344 Q1036.6563,302.2344 1035.3281,300.5938 Q1034.0156,298.9375 1034.0156,295.8125 Q1034.0156,292.6875 1035.3281,291.0313 Q1036.6563,289.375 1039.1563,289.375 Q1039.8594,289.375 1040.5,289.5313 Q1041.1563,289.6875 1041.7188,289.9844 L1041.7188,292.7031 Q1041.0938,292.125 1040.5,291.8594 Q1039.9063,291.5781 1039.2813,291.5781 Q1037.9375,291.5781 1037.25,292.6563 Q1036.5625,293.7188 1036.5625,295.8125 Q1036.5625,297.9063 1037.25,298.9844 Q1037.9375,300.0469 1039.2813,300.0469 Q1039.9063,300.0469 1040.5,299.7813 Q1041.0938,299.5 1041.7188,298.9219 L1041.7188,301.6406 Z "/><text fill="#000000" font-family="sans-serif" font-size="12" lengthAdjust="spacingAndGlyphs" textLength="166" x="1059.25" y="300.1543">DisplayCommManagerStub</text><line style="stroke: #A80036; stroke-width: 1.5;" x1="990.5" x2="1261.5" y1="312" y2="312"/><line style="stroke: #A80036; stroke-width: 1.5;" x1="990.5" x2="1261.5" y1="320" y2="320"/><ellipse cx="1000.5" cy="347.8047" fill="#84BE84" rx="3" ry="3" style="stroke: #038048; stroke-width: 1.0;"/><text fill="#000000" font-family="sans-serif" font-size="11" lengthAdjust="spacingAndGlyphs" textLength="247" x="1009.5" y="351.0151">TrackData evaluateRfidRequest(int rfidNum)</text><line style="stroke: #A80036; stroke-width: 1.0; stroke-dasharray: 1.0,2.0;" x1="990.5" x2="1093" y1="334.4023" y2="334.4023"/><text fill="#000000" font-family="sans-serif" font-size="11" lengthAdjust="spacingAndGlyphs" textLength="66" x="1093" y="337.7104">Use Case 1</text><line style="stroke: #A80036; stroke-width: 1.0; stroke-dasharray: 1.0,2.0;" x1="1159" x2="1261.5" y1="334.4023" y2="334.4023"/><!--MD5=[937d6d8ff87a99d0d5dcd66ee05a1fa4]
class DisplayCommManagerImplementationTests--><rect fill="#FEFECE" filter="url(#fh1bfvu826rok)" height="48" id="DisplayCommManagerImplementationTests" style="stroke: #A80036; stroke-width: 1.5;" width="300" x="591" y="74"/><ellipse cx="606" cy="90" fill="#ADD1B2" rx="11" ry="11" style="stroke: #A80036; stroke-width: 1.0;"/><path d="M608.9688,95.6406 Q608.3906,95.9375 607.75,96.0781 Q607.1094,96.2344 606.4063,96.2344 Q603.9063,96.2344 602.5781,94.5938 Q601.2656,92.9375 601.2656,89.8125 Q601.2656,86.6875 602.5781,85.0313 Q603.9063,83.375 606.4063,83.375 Q607.1094,83.375 607.75,83.5313 Q608.4063,83.6875 608.9688,83.9844 L608.9688,86.7031 Q608.3438,86.125 607.75,85.8594 Q607.1563,85.5781 606.5313,85.5781 Q605.1875,85.5781 604.5,86.6563 Q603.8125,87.7188 603.8125,89.8125 Q603.8125,91.9063 604.5,92.9844 Q605.1875,94.0469 606.5313,94.0469 Q607.1563,94.0469 607.75,93.7813 Q608.3438,93.5 608.9688,92.9219 L608.9688,95.6406 Z "/><text fill="#000000" font-family="sans-serif" font-size="12" lengthAdjust="spacingAndGlyphs" textLength="268" x="620" y="94.1543">DisplayCommManagerImplementationTests</text><line style="stroke: #A80036; stroke-width: 1.5;" x1="592" x2="890" y1="106" y2="106"/><line style="stroke: #A80036; stroke-width: 1.5;" x1="592" x2="890" y1="114" y2="114"/><!--MD5=[cf56a65163663c6c6c7b84cd7c204b97]
class MiddlewareCommInterfaceStub--><rect fill="#FEFECE" filter="url(#fh1bfvu826rok)" height="77.6094" id="MiddlewareCommInterfaceStub" style="stroke: #A80036; stroke-width: 1.5;" width="225" x="628.5" y="280"/><ellipse cx="643.5" cy="296" fill="#ADD1B2" rx="11" ry="11" style="stroke: #A80036; stroke-width: 1.0;"/><path d="M646.4688,301.6406 Q645.8906,301.9375 645.25,302.0781 Q644.6094,302.2344 643.9063,302.2344 Q641.4063,302.2344 640.0781,300.5938 Q638.7656,298.9375 638.7656,295.8125 Q638.7656,292.6875 640.0781,291.0313 Q641.4063,289.375 643.9063,289.375 Q644.6094,289.375 645.25,289.5313 Q645.9063,289.6875 646.4688,289.9844 L646.4688,292.7031 Q645.8438,292.125 645.25,291.8594 Q644.6563,291.5781 644.0313,291.5781 Q642.6875,291.5781 642,292.6563 Q641.3125,293.7188 641.3125,295.8125 Q641.3125,297.9063 642,298.9844 Q642.6875,300.0469 644.0313,300.0469 Q644.6563,300.0469 645.25,299.7813 Q645.8438,299.5 646.4688,298.9219 L646.4688,301.6406 Z "/><text fill="#000000" font-family="sans-serif" font-size="12" lengthAdjust="spacingAndGlyphs" textLength="193" x="657.5" y="300.1543">MiddlewareCommInterfaceStub</text><line style="stroke: #A80036; stroke-width: 1.5;" x1="629.5" x2="852.5" y1="312" y2="312"/><line style="stroke: #A80036; stroke-width: 1.5;" x1="629.5" x2="852.5" y1="320" y2="320"/><ellipse cx="639.5" cy="347.8047" fill="#84BE84" rx="3" ry="3" style="stroke: #038048; stroke-width: 1.0;"/><text fill="#000000" font-family="sans-serif" font-size="11" lengthAdjust="spacingAndGlyphs" textLength="171" x="648.5" y="351.0151">TrackData requestRfid(int rfid)</text><line style="stroke: #A80036; stroke-width: 1.0; stroke-dasharray: 1.0,2.0;" x1="629.5" x2="708" y1="334.4023" y2="334.4023"/><text fill="#000000" font-family="sans-serif" font-size="11" lengthAdjust="spacingAndGlyphs" textLength="66" x="708" y="337.7104">Use Case 1</text><line style="stroke: #A80036; stroke-width: 1.0; stroke-dasharray: 1.0,2.0;" x1="774" x2="852.5" y1="334.4023" y2="334.4023"/><!--MD5=[930c8140e7c1cb8e71aa7cd49967748e]
class TrackDataPlotterTests--><rect fill="#FEFECE" filter="url(#fh1bfvu826rok)" height="48" id="TrackDataPlotterTests" style="stroke: #A80036; stroke-width: 1.5;" width="172" x="384" y="74"/><ellipse cx="399" cy="90" fill="#ADD1B2" rx="11" ry="11" style="stroke: #A80036; stroke-width: 1.0;"/><path d="M401.9688,95.6406 Q401.3906,95.9375 400.75,96.0781 Q400.1094,96.2344 399.4063,96.2344 Q396.9063,96.2344 395.5781,94.5938 Q394.2656,92.9375 394.2656,89.8125 Q394.2656,86.6875 395.5781,85.0313 Q396.9063,83.375 399.4063,83.375 Q400.1094,83.375 400.75,83.5313 Q401.4063,83.6875 401.9688,83.9844 L401.9688,86.7031 Q401.3438,86.125 400.75,85.8594 Q400.1563,85.5781 399.5313,85.5781 Q398.1875,85.5781 397.5,86.6563 Q396.8125,87.7188 396.8125,89.8125 Q396.8125,91.9063 397.5,92.9844 Q398.1875,94.0469 399.5313,94.0469 Q400.1563,94.0469 400.75,93.7813 Q401.3438,93.5 401.9688,92.9219 L401.9688,95.6406 Z "/><text fill="#000000" font-family="sans-serif" font-size="12" lengthAdjust="spacingAndGlyphs" textLength="140" x="413" y="94.1543">TrackDataPlotterTests</text><line style="stroke: #A80036; stroke-width: 1.5;" x1="385" x2="555" y1="106" y2="106"/><line style="stroke: #A80036; stroke-width: 1.5;" x1="385" x2="555" y1="114" y2="114"/><!--MD5=[c986427b061286eff33e87a088ad4bf9]
class TrackDataPlotter--><rect fill="#FEFECE" filter="url(#fh1bfvu826rok)" height="244.0703" id="TrackDataPlotter" style="stroke: #A80036; stroke-width: 1.5;" width="291" x="37.5" y="197"/><ellipse cx="125.75" cy="213" fill="#ADD1B2" rx="11" ry="11" style="stroke: #A80036; stroke-width: 1.0;"/><path d="M128.7188,218.6406 Q128.1406,218.9375 127.5,219.0781 Q126.8594,219.2344 126.1563,219.2344 Q123.6563,219.2344 122.3281,217.5938 Q121.0156,215.9375 121.0156,212.8125 Q121.0156,209.6875 122.3281,208.0313 Q123.6563,206.375 126.1563,206.375 Q126.8594,206.375 127.5,206.5313 Q128.1563,206.6875 128.7188,206.9844 L128.7188,209.7031 Q128.0938,209.125 127.5,208.8594 Q126.9063,208.5781 126.2813,208.5781 Q124.9375,208.5781 124.25,209.6563 Q123.5625,210.7188 123.5625,212.8125 Q123.5625,214.9063 124.25,215.9844 Q124.9375,217.0469 126.2813,217.0469 Q126.9063,217.0469 127.5,216.7813 Q128.0938,216.5 128.7188,215.9219 L128.7188,218.6406 Z "/><text fill="#000000" font-family="sans-serif" font-size="12" lengthAdjust="spacingAndGlyphs" textLength="106" x="146.25" y="217.1543">TrackDataPlotter</text><line style="stroke: #A80036; stroke-width: 1.5;" x1="38.5" x2="327.5" y1="229" y2="229"/><rect fill="none" height="6" style="stroke: #C82930; stroke-width: 1.0;" width="6" x="45.5" y="237"/><text fill="#000000" font-family="sans-serif" font-size="11" lengthAdjust="spacingAndGlyphs" textLength="86" x="57.5" y="243.2104">TrackData data</text><rect fill="none" height="6" style="stroke: #C82930; stroke-width: 1.0;" width="6" x="45.5" y="249.8047"/><text fill="#000000" font-family="sans-serif" font-size="11" lengthAdjust="spacingAndGlyphs" textLength="97" x="57.5" y="256.0151">XYDataset points</text><rect fill="none" height="6" style="stroke: #C82930; stroke-width: 1.0;" width="6" x="45.5" y="262.6094"/><text fill="#000000" font-family="sans-serif" font-size="11" lengthAdjust="spacingAndGlyphs" textLength="82" x="57.5" y="268.8198">XYDataset line</text><rect fill="none" height="6" style="stroke: #C82930; stroke-width: 1.0;" width="6" x="45.5" y="275.4141"/><text fill="#000000" font-family="sans-serif" font-size="11" lengthAdjust="spacingAndGlyphs" textLength="99" x="57.5" y="281.6245">JFreeChart chart1</text><rect fill="none" height="6" style="stroke: #C82930; stroke-width: 1.0;" width="6" x="45.5" y="288.2188"/><text fill="#000000" font-family="sans-serif" font-size="11" lengthAdjust="spacingAndGlyphs" textLength="99" x="57.5" y="294.4292">JFreeChart chart2</text><rect fill="none" height="6" style="stroke: #C82930; stroke-width: 1.0;" width="6" x="45.5" y="301.0234"/><text fill="#000000" font-family="sans-serif" font-size="11" lengthAdjust="spacingAndGlyphs" textLength="60" x="57.5" y="307.2339">XYPlot plot</text><rect fill="none" height="6" style="stroke: #C82930; stroke-width: 1.0;" width="6" x="45.5" y="313.8281"/><text fill="#000000" font-family="sans-serif" font-size="11" lengthAdjust="spacingAndGlyphs" textLength="133" x="57.5" y="320.0386">ChartPanel chartPanel1</text><rect fill="none" height="6" style="stroke: #C82930; stroke-width: 1.0;" width="6" x="45.5" y="326.6328"/><text fill="#000000" font-family="sans-serif" font-size="11" lengthAdjust="spacingAndGlyphs" textLength="133" x="57.5" y="332.8433">ChartPanel chartPanel2</text><line style="stroke: #A80036; stroke-width: 1.5;" x1="38.5" x2="327.5" y1="339.4375" y2="339.4375"/><ellipse cx="48.5" cy="350.4375" fill="#84BE84" rx="3" ry="3" style="stroke: #038048; stroke-width: 1.0;"/><text fill="#000000" font-family="sans-serif" font-size="11" lengthAdjust="spacingAndGlyphs" textLength="188" x="57.5" y="353.6479">TrackDataPlotter(TrackData data)</text><ellipse cx="48.5" cy="380.0469" fill="#84BE84" rx="3" ry="3" style="stroke: #038048; stroke-width: 1.0;"/><text fill="#000000" font-family="sans-serif" font-size="11" lengthAdjust="spacingAndGlyphs" textLength="112" x="57.5" y="383.2573">void displayPlotter()</text><rect fill="#F24D5C" height="6" style="stroke: #C82930; stroke-width: 1.0;" width="6" x="45.5" y="389.8516"/><text fill="#000000" font-family="sans-serif" font-size="11" lengthAdjust="spacingAndGlyphs" textLength="138" x="57.5" y="396.062">XYSeries getTrackData()</text><rect fill="#F24D5C" height="6" style="stroke: #C82930; stroke-width: 1.0;" width="6" x="45.5" y="402.6563"/><text fill="#000000" font-family="sans-serif" font-size="11" lengthAdjust="spacingAndGlyphs" textLength="208" x="57.5" y="408.8667">XYSeries calculateLine(int[] x, int[] y)</text><rect fill="#F24D5C" height="6" style="stroke: #C82930; stroke-width: 1.0;" width="6" x="45.5" y="415.4609"/><text fill="#000000" font-family="sans-serif" font-size="11" lengthAdjust="spacingAndGlyphs" textLength="262" x="57.5" y="421.6714">int[] extractLatFromTrackData(TrackData data)</text><rect fill="#F24D5C" height="6" style="stroke: #C82930; stroke-width: 1.0;" width="6" x="45.5" y="428.2656"/><text fill="#000000" font-family="sans-serif" font-size="11" lengthAdjust="spacingAndGlyphs" textLength="265" x="57.5" y="434.4761">int[] extractLngFromTrackData(TrackData data)</text><line style="stroke: #A80036; stroke-width: 1.0; stroke-dasharray: 1.0,2.0;" x1="38.5" x2="150" y1="366.6445" y2="366.6445"/><text fill="#000000" font-family="sans-serif" font-size="11" lengthAdjust="spacingAndGlyphs" textLength="66" x="150" y="369.9526">Use Case 1</text><line style="stroke: #A80036; stroke-width: 1.0; stroke-dasharray: 1.0,2.0;" x1="216" x2="327.5" y1="366.6445" y2="366.6445"/><!--MD5=[77bc37423dd8876786830fad4054e33b]
reverse link DisplayCommInterface to DisplayCommInterfaceImplementation--><path d="M2839,157.47 C2839,189.54 2839,229.13 2839,260.97 " fill="none" id="DisplayCommInterface&lt;-DisplayCommInterfaceImplementation" style="stroke: #A80036; stroke-width: 1.0; stroke-dasharray: 7.0,7.0;"/><polygon fill="none" points="2832,157.15,2839,137.15,2846,157.15,2832,157.15" style="stroke: #A80036; stroke-width: 1.0;"/><!--MD5=[4e991cf787e933c55089f97eae394828]
reverse link DisplayComm2WayInterface to DisplayComm2WayInterfaceImplementation--><path d="M2295.93,154.94 C2313.21,185.21 2334.63,222.74 2352.56,254.15 " fill="none" id="DisplayComm2WayInterface&lt;-DisplayComm2WayInterfaceImplementation" style="stroke: #A80036; stroke-width: 1.0; stroke-dasharray: 7.0,7.0;"/><polygon fill="none" points="2289.61,157.99,2285.77,137.15,2301.77,151.05,2289.61,157.99" style="stroke: #A80036; stroke-width: 1.0;"/><!--MD5=[5beed6c3c7e4a84a4bfaa95bdf8cce79]
reverse link DisplayCommManager to DisplayCommManagerImplementation--><path d="M1852.65,156.7 C1858.75,184.56 1866.13,218.22 1872.56,247.58 " fill="none" id="DisplayCommManager&lt;-DisplayCommManagerImplementation" style="stroke: #A80036; stroke-width: 1.0; stroke-dasharray: 7.0,7.0;"/><polygon fill="none" points="1845.81,158.18,1848.36,137.15,1859.48,155.18,1845.81,158.18" style="stroke: #A80036; stroke-width: 1.0;"/><!--MD5=[9a02b467888c5123255f55ebe5217d7a]
link DisplayCommInterfaceImplementationTests to DisplayComm2WayInterfaceStub--><path d="M1447.26,122.02 C1449.24,158.19 1453.12,228.9 1455.63,274.76 " fill="none" id="DisplayCommInterfaceImplementationTests-&gt;DisplayComm2WayInterfaceStub" style="stroke: #A80036; stroke-width: 1.0; stroke-dasharray: 7.0,7.0;"/><polygon fill="#A80036" points="1455.92,279.95,1459.4,270.7365,1455.6348,274.9581,1451.4131,271.1929,1455.92,279.95" style="stroke: #A80036; stroke-width: 1.0;"/><!--MD5=[69695ace36e753468876c8d4fe5d2708]
link DisplayComm2WayInterfaceImplementationTests to DisplayCommManagerStub--><path d="M1096.47,122.02 C1101.92,158.19 1112.57,228.9 1119.49,274.76 " fill="none" id="DisplayComm2WayInterfaceImplementationTests-&gt;DisplayCommManagerStub" style="stroke: #A80036; stroke-width: 1.0; stroke-dasharray: 7.0,7.0;"/><polygon fill="#A80036" points="1120.27,279.95,1122.888,270.4555,1119.5269,275.0055,1114.9768,271.6444,1120.27,279.95" style="stroke: #A80036; stroke-width: 1.0;"/><!--MD5=[a3caa78d97a9caf08bd2afaaae1510f4]
link DisplayCommManagerImplementationTests to MiddlewareCommInterfaceStub--><path d="M741,122.02 C741,158.19 741,228.9 741,274.76 " fill="none" id="DisplayCommManagerImplementationTests-&gt;MiddlewareCommInterfaceStub" style="stroke: #A80036; stroke-width: 1.0; stroke-dasharray: 7.0,7.0;"/><polygon fill="#A80036" points="741,279.95,745,270.95,741,274.95,737,270.95,741,279.95" style="stroke: #A80036; stroke-width: 1.0;"/><!--MD5=[0cd290e6298e838268680010d5032c0d]
link DisplayCommInterfaceImplementationTests to DisplayCommInterfaceImplementation--><path d="M1544.12,122.03 C1573.79,128.04 1606.58,133.74 1637,137 C1692.25,142.92 2584.8,134.97 2637,154 C2694.56,174.98 2747.83,219.76 2785.2,257.23 " fill="none" id="DisplayCommInterfaceImplementationTests-&gt;DisplayCommInterfaceImplementation" style="stroke: #A80036; stroke-width: 1.0; stroke-dasharray: 7.0,7.0;"/><polygon fill="#A80036" points="2788.76,260.84,2785.2802,251.6264,2785.246,257.2831,2779.5892,257.2488,2788.76,260.84" style="stroke: #A80036; stroke-width: 1.0;"/><!--MD5=[ce67f838794c14794f693dd46a642b9a]
link DisplayComm2WayInterfaceImplementationTests to DisplayComm2WayInterfaceImplementation--><path d="M1188.49,122.08 C1217.1,128.06 1248.67,133.73 1278,137 C1373.21,147.63 2048.51,125.59 2140,154 C2203.46,173.71 2265.89,214.89 2312.37,251.05 " fill="none" id="DisplayComm2WayInterfaceImplementationTests-&gt;DisplayComm2WayInterfaceImplementation" style="stroke: #A80036; stroke-width: 1.0; stroke-dasharray: 7.0,7.0;"/><polygon fill="#A80036" points="2316.53,254.31,2311.9077,245.6132,2312.5925,251.2285,2306.9772,251.9132,2316.53,254.31" style="stroke: #A80036; stroke-width: 1.0;"/><!--MD5=[6f3abcadcd809ea193290ea1cf8b820a]
link DisplayCommManagerImplementationTests to DisplayCommManagerImplementation--><path d="M827.09,122.04 C852.92,128.01 881.44,133.69 908,137 C985.76,146.69 1537.72,132.28 1613,154 C1677.68,172.66 1742.7,210.37 1793.27,244.92 " fill="none" id="DisplayCommManagerImplementationTests-&gt;DisplayCommManagerImplementation" style="stroke: #A80036; stroke-width: 1.0; stroke-dasharray: 7.0,7.0;"/><polygon fill="#A80036" points="1797.5,247.83,1792.3362,239.4434,1793.3752,245.004,1787.8146,246.0431,1797.5,247.83" style="stroke: #A80036; stroke-width: 1.0;"/><!--MD5=[f24e7409bf4fec90fef0ed7e05f90b9b]
link TrackDataPlotterTests to TrackDataPlotter--><path d="M421.94,122 C404.43,131.13 384.82,142.25 368,154 C350.58,166.17 332.98,179.77 315.92,193.78 " fill="none" id="TrackDataPlotterTests-&gt;TrackDataPlotter" style="stroke: #A80036; stroke-width: 1.0; stroke-dasharray: 7.0,7.0;"/><polygon fill="#A80036" points="312.06,196.97,321.5464,194.3228,315.9151,193.786,316.452,188.1546,312.06,196.97" style="stroke: #A80036; stroke-width: 1.0;"/><!--MD5=[6aaeadb42451b39b4e2cdcf83e2bb4cd]
reverse link DisplayComm2WayInterface to DisplayComm2WayInterfaceStub--><path d="M2117.87,122.16 C2078.1,127.77 2034.97,133.24 1995,137 C1955.35,140.73 1673.76,138.69 1637,154 C1573.19,180.57 1517.67,240.4 1486.01,279.98 " fill="none" id="DisplayComm2WayInterface&lt;-DisplayComm2WayInterfaceStub" style="stroke: #A80036; stroke-width: 1.0; stroke-dasharray: 7.0,7.0;"/><polygon fill="none" points="2116.91,115.22,2137.71,119.31,2118.9,129.08,2116.91,115.22" style="stroke: #A80036; stroke-width: 1.0;"/><!--MD5=[e6e0d8b3e0f7bf14f11c0899b3ad37ae]
reverse link DisplayCommManager to DisplayCommManagerStub--><path d="M1682.47,127.65 C1659.23,131.21 1635.53,134.48 1613,137 C1546.86,144.39 1375.63,128.88 1314,154 C1248.42,180.73 1189.92,240.21 1156.21,279.71 " fill="none" id="DisplayCommManager&lt;-DisplayCommManagerStub" style="stroke: #A80036; stroke-width: 1.0; stroke-dasharray: 7.0,7.0;"/><polygon fill="none" points="1681.44,120.72,1702.29,124.52,1683.62,134.55,1681.44,120.72" style="stroke: #A80036; stroke-width: 1.0;"/><!--MD5=[3ef19de1313fa68b93063adc061b58a9]
@startuml Display02Packages_InternalDependencies


package edu.oakland.production.display02 {
    
}


package edu.oakland.production.display02 {
    interface DisplayCommInterface {
        __
        .. Use Case 1 ..
        {abstract} + TrackData receiveRfidRequest(int rfidNum)
    }
}


package edu.oakland.production.display02 {
    interface DisplayComm2WayInterface {
        __
        .. Use Case 1 ..
        {abstract} + TrackData passRfidRequest(int rfidNum)
    }
}


package edu.oakland.production.display02 {
    interface DisplayCommManager {
        __
        .. Use Case 1 ..
        {abstract} + TrackData evaluateRfidRequest(int rfidNum)
    }
}


package edu.oakland.production.display02 {
    class DisplayCommInterfaceImplementation {
        - DisplayComm2WayInterface receiver
        __
        + DisplayCommInterface(DisplayComm2WayInterface receiver)
        .. Use Case 1 ..
        + TrackData receiveRfidRequest(int rfidNum)
        - TrackData passToComm2WayInterface(int rfidNum)
    }
}


DisplayCommInterfaceImplementation .up.|> DisplayCommInterface

package edu.oakland.production.display02 {
    class DisplayComm2WayInterfaceImplementation {
        - DisplayCommManager manager
        __
        + DisplayComm2WayInterfaceImplementation(DisplayCommManager manager)
        .. Use Case 1 ..
        + TrackData passRfidRequest(int rfidNum)
        - void determineUserRequestFormat(int rfidNum)
        - void receiveRequestFromDisplayCommInterface(int rfidNum)
    }
}


DisplayComm2WayInterfaceImplementation .up.|> DisplayComm2WayInterface

package edu.oakland.production.display02 {
    class DisplayCommManagerImplementation {
        - MiddlewareCommInterface middleware
        __
        + DisplayCommManagerImplementation(MiddlewareCommInterface middleware)
        .. Use Case 1 ..
        + TrackData receiveRequestFromDisplay2WayInterface(int rfidNum)
        - TrackData evaluateRfidRequest(int rfidNum)
        - TrackData passRequestToMiddlewareCommInterface(int rfidNum)
        
    }
}


DisplayCommManagerImplementation .up.|> DisplayCommManager








package edu.oakland.test.display02 {
    
}


package edu.oakland.test.display02 {
    class DisplayCommInterfaceImplementationTests {

    }
}



package edu.oakland.test.display02 {
    class DisplayComm2WayInterfaceStub {
        __
        .. Use Case 1 ..
        {abstract} + TrackData passRfidRequest(int rfidNum)
    }
}

DisplayCommInterfaceImplementationTests ..> DisplayComm2WayInterfaceStub

package edu.oakland.test.display02 {
    class DisplayComm2WayInterfaceImplementationTests {

    }
}



package edu.oakland.test.display02 {
    class DisplayCommManagerStub {
        __
        .. Use Case 1 ..
        + TrackData evaluateRfidRequest(int rfidNum)
    }
}

DisplayComm2WayInterfaceImplementationTests ..> DisplayCommManagerStub

package edu.oakland.test.display02 {
    class DisplayCommManagerImplementationTests {

    }
}



package edu.oakland.test.display02 {
    class MiddlewareCommInterfaceStub {
        __
        .. Use Case 1 ..
        + TrackData requestRfid(int rfid)
    }
}

DisplayCommManagerImplementationTests ..> MiddlewareCommInterfaceStub

package edu.oakland.test.display02 {
    class TrackDataPlotterTests {

    }
}


DisplayCommInterfaceImplementationTests ..> DisplayCommInterfaceImplementation
DisplayComm2WayInterfaceImplementationTests ..> DisplayComm2WayInterfaceImplementation
DisplayCommManagerImplementationTests ..> DisplayCommManagerImplementation

package edu.oakland.helper.display02 {
    class TrackDataPlotter {
        - TrackData data
        - XYDataset points
        - XYDataset line
        - JFreeChart chart1
        - JFreeChart chart2
        - XYPlot plot
        - ChartPanel chartPanel1
        - ChartPanel chartPanel2
        __
        + TrackDataPlotter(TrackData data)
        .. Use Case 1 ..
        + void displayPlotter()
        - XYSeries getTrackData()
        - XYSeries calculateLine(int[] x, int[] y)
        - int[] extractLatFromTrackData(TrackData data)
        - int[] extractLngFromTrackData(TrackData data)
    }
}

TrackDataPlotterTests ..> TrackDataPlotter
DisplayComm2WayInterfaceStub .up.|> DisplayComm2WayInterface
DisplayCommManagerStub .up.|> DisplayCommManager


package edu.oakland.helper.display02 {
    
}




@enduml

PlantUML version 1.2020.02(Sun Mar 01 10:22:07 GMT 2020)
(GPL source distribution)
Java Runtime: OpenJDK Runtime Environment
JVM: OpenJDK 64-Bit Server VM
Java Version: 11.0.9+11-Ubuntu-0ubuntu1
Operating System: Linux
Default Encoding: ANSI_X3.4-1968
Language: en
Country: US
--></g></svg>