<?xml version="1.0" encoding="UTF-8" standalone="no"?><svg xmlns="http://www.w3.org/2000/svg" xmlns:xlink="http://www.w3.org/1999/xlink" contentScriptType="application/ecmascript" contentStyleType="text/css" height="618px" preserveAspectRatio="none" style="width:3112px;height:618px;" version="1.1" viewBox="0 0 3112 618" width="3112px" zoomAndPan="magnify"><defs><filter height="300%" id="f1c7lo1ccc0qbz" width="300%" x="-1" y="-1"><feGaussianBlur result="blurOut" stdDeviation="2.0"/><feColorMatrix in="blurOut" result="blurOut2" type="matrix" values="0 0 0 0 0 0 0 0 0 0 0 0 0 0 0 0 0 0 .4 0"/><feOffset dx="4.0" dy="4.0" in="blurOut2" result="blurOut3"/><feBlend in="SourceGraphic" in2="blurOut3" mode="normal"/></filter></defs><g><!--MD5=[3e281e6f49e0b185d62a106a5d994a08]
cluster edu.oakland.production.display01--><polygon fill="#FFFFFF" filter="url(#f1c7lo1ccc0qbz)" points="22,24,295,24,302,46.2969,1381,46.2969,1381,439,22,439,22,24" style="stroke: #000000; stroke-width: 1.5;"/><line style="stroke: #000000; stroke-width: 1.5;" x1="22" x2="302" y1="46.2969" y2="46.2969"/><text fill="#000000" font-family="sans-serif" font-size="14" font-weight="bold" lengthAdjust="spacingAndGlyphs" textLength="267" x="26" y="38.9951">edu.oakland.production.display01</text><!--MD5=[9181924624f655b87cae45fec5f93c8d]
cluster edu.oakland.test.display01--><polygon fill="#FFFFFF" filter="url(#f1c7lo1ccc0qbz)" points="1405,66.5,1623,66.5,1630,88.7969,2618,88.7969,2618,606,1405,606,1405,66.5" style="stroke: #000000; stroke-width: 1.5;"/><line style="stroke: #000000; stroke-width: 1.5;" x1="1405" x2="1630" y1="88.7969" y2="88.7969"/><text fill="#000000" font-family="sans-serif" font-size="14" font-weight="bold" lengthAdjust="spacingAndGlyphs" textLength="212" x="1409" y="81.4951">edu.oakland.test.display01</text><!--MD5=[d02020cdc9562d037d87b751d110dd8b]
cluster edu.oakland.helper.display01--><polygon fill="#FFFFFF" filter="url(#f1c7lo1ccc0qbz)" points="2642,34.5,2880,34.5,2887,56.7969,3090,56.7969,3090,197.5,2642,197.5,2642,34.5" style="stroke: #000000; stroke-width: 1.5;"/><line style="stroke: #000000; stroke-width: 1.5;" x1="2642" x2="2887" y1="56.7969" y2="56.7969"/><text fill="#000000" font-family="sans-serif" font-size="14" font-weight="bold" lengthAdjust="spacingAndGlyphs" textLength="232" x="2646" y="49.4951">edu.oakland.helper.display01</text><!--MD5=[fa6248c05b5a852ecd50b5411f159754]
class DisplayGpsInterface--><rect fill="#FEFECE" filter="url(#f1c7lo1ccc0qbz)" height="132.8281" id="DisplayGpsInterface" style="stroke: #A80036; stroke-width: 1.5;" width="297" x="88.5" y="59"/><ellipse cx="170.75" cy="75" fill="#B4A7E5" rx="11" ry="11" style="stroke: #A80036; stroke-width: 1.0;"/><path d="M166.6719,70.7656 L166.6719,68.6094 L174.0625,68.6094 L174.0625,70.7656 L171.5938,70.7656 L171.5938,78.8438 L174.0625,78.8438 L174.0625,81 L166.6719,81 L166.6719,78.8438 L169.1406,78.8438 L169.1406,70.7656 L166.6719,70.7656 Z "/><text fill="#000000" font-family="sans-serif" font-size="12" font-style="italic" lengthAdjust="spacingAndGlyphs" textLength="124" x="191.25" y="79.1543">DisplayGpsInterface</text><line style="stroke: #A80036; stroke-width: 1.5;" x1="89.5" x2="384.5" y1="91" y2="91"/><line style="stroke: #A80036; stroke-width: 1.5;" x1="89.5" x2="384.5" y1="99" y2="99"/><ellipse cx="99.5" cy="126.8047" fill="#84BE84" rx="3" ry="3" style="stroke: #038048; stroke-width: 1.0;"/><text fill="#000000" font-family="sans-serif" font-size="11" font-style="italic" lengthAdjust="spacingAndGlyphs" textLength="261" x="108.5" y="130.0151">void receiveGpsSignal(Satellite satelliteSignal)</text><line style="stroke: #A80036; stroke-width: 1.0; stroke-dasharray: 1.0,2.0;" x1="89.5" x2="204" y1="113.4023" y2="113.4023"/><text fill="#000000" font-family="sans-serif" font-size="11" lengthAdjust="spacingAndGlyphs" textLength="66" x="204" y="116.7104">Use Case 1</text><line style="stroke: #A80036; stroke-width: 1.0; stroke-dasharray: 1.0,2.0;" x1="270" x2="384.5" y1="113.4023" y2="113.4023"/><ellipse cx="99.5" cy="156.4141" fill="#84BE84" rx="3" ry="3" style="stroke: #038048; stroke-width: 1.0;"/><text fill="#000000" font-family="sans-serif" font-size="11" font-style="italic" lengthAdjust="spacingAndGlyphs" textLength="266" x="108.5" y="159.6245">void reportGpsSignalLoss(String satelliteName)</text><ellipse cx="99.5" cy="169.2188" fill="#84BE84" rx="3" ry="3" style="stroke: #038048; stroke-width: 1.0;"/><text fill="#000000" font-family="sans-serif" font-size="11" font-style="italic" lengthAdjust="spacingAndGlyphs" textLength="271" x="108.5" y="172.4292">void recheckSignalStength(String satelliteName)</text><ellipse cx="99.5" cy="182.0234" fill="#84BE84" rx="3" ry="3" style="stroke: #038048; stroke-width: 1.0;"/><text fill="#000000" font-family="sans-serif" font-size="11" font-style="italic" lengthAdjust="spacingAndGlyphs" textLength="259" x="108.5" y="185.2339">void checkSignalStength(String satelliteName)</text><line style="stroke: #A80036; stroke-width: 1.0; stroke-dasharray: 1.0,2.0;" x1="89.5" x2="204" y1="143.0117" y2="143.0117"/><text fill="#000000" font-family="sans-serif" font-size="11" lengthAdjust="spacingAndGlyphs" textLength="66" x="204" y="146.3198">Use Case 2</text><line style="stroke: #A80036; stroke-width: 1.0; stroke-dasharray: 1.0,2.0;" x1="270" x2="384.5" y1="143.0117" y2="143.0117"/><!--MD5=[319273309e4c56bac150542a32321bb2]
class DisplayGpsReceiver--><rect fill="#FEFECE" filter="url(#f1c7lo1ccc0qbz)" height="107.2188" id="DisplayGpsReceiver" style="stroke: #A80036; stroke-width: 1.5;" width="395" x="420.5" y="72"/><ellipse cx="553.75" cy="88" fill="#B4A7E5" rx="11" ry="11" style="stroke: #A80036; stroke-width: 1.0;"/><path d="M549.6719,83.7656 L549.6719,81.6094 L557.0625,81.6094 L557.0625,83.7656 L554.5938,83.7656 L554.5938,91.8438 L557.0625,91.8438 L557.0625,94 L549.6719,94 L549.6719,91.8438 L552.1406,91.8438 L552.1406,83.7656 L549.6719,83.7656 Z "/><text fill="#000000" font-family="sans-serif" font-size="12" font-style="italic" lengthAdjust="spacingAndGlyphs" textLength="120" x="574.25" y="92.1543">DisplayGpsReceiver</text><line style="stroke: #A80036; stroke-width: 1.5;" x1="421.5" x2="814.5" y1="104" y2="104"/><line style="stroke: #A80036; stroke-width: 1.5;" x1="421.5" x2="814.5" y1="112" y2="112"/><ellipse cx="431.5" cy="139.8047" fill="#84BE84" rx="3" ry="3" style="stroke: #038048; stroke-width: 1.0;"/><text fill="#000000" font-family="sans-serif" font-size="11" font-style="italic" lengthAdjust="spacingAndGlyphs" textLength="326" x="440.5" y="143.0151">String measureGpsSignalStrength(Satellite satelliteSignal)</text><line style="stroke: #A80036; stroke-width: 1.0; stroke-dasharray: 1.0,2.0;" x1="421.5" x2="585" y1="126.4023" y2="126.4023"/><text fill="#000000" font-family="sans-serif" font-size="11" lengthAdjust="spacingAndGlyphs" textLength="66" x="585" y="129.7104">Use Case 1</text><line style="stroke: #A80036; stroke-width: 1.0; stroke-dasharray: 1.0,2.0;" x1="651" x2="814.5" y1="126.4023" y2="126.4023"/><ellipse cx="431.5" cy="169.4141" fill="#84BE84" rx="3" ry="3" style="stroke: #038048; stroke-width: 1.0;"/><text fill="#000000" font-family="sans-serif" font-size="11" font-style="italic" lengthAdjust="spacingAndGlyphs" textLength="369" x="440.5" y="172.6245">SatelliteSignalCheckRequest measureSignal(String satelliteName)</text><line style="stroke: #A80036; stroke-width: 1.0; stroke-dasharray: 1.0,2.0;" x1="421.5" x2="585" y1="156.0117" y2="156.0117"/><text fill="#000000" font-family="sans-serif" font-size="11" lengthAdjust="spacingAndGlyphs" textLength="66" x="585" y="159.3198">Use Case 2</text><line style="stroke: #A80036; stroke-width: 1.0; stroke-dasharray: 1.0,2.0;" x1="651" x2="814.5" y1="156.0117" y2="156.0117"/><!--MD5=[31cbac78761b59e73153a97a452ed09a]
class DisplayGpsManager--><rect fill="#FEFECE" filter="url(#f1c7lo1ccc0qbz)" height="107.2188" id="DisplayGpsManager" style="stroke: #A80036; stroke-width: 1.5;" width="441" x="850.5" y="72"/><ellipse cx="1005.75" cy="88" fill="#B4A7E5" rx="11" ry="11" style="stroke: #A80036; stroke-width: 1.0;"/><path d="M1001.6719,83.7656 L1001.6719,81.6094 L1009.0625,81.6094 L1009.0625,83.7656 L1006.5938,83.7656 L1006.5938,91.8438 L1009.0625,91.8438 L1009.0625,94 L1001.6719,94 L1001.6719,91.8438 L1004.1406,91.8438 L1004.1406,83.7656 L1001.6719,83.7656 Z "/><text fill="#000000" font-family="sans-serif" font-size="12" font-style="italic" lengthAdjust="spacingAndGlyphs" textLength="122" x="1026.25" y="92.1543">DisplayGpsManager</text><line style="stroke: #A80036; stroke-width: 1.5;" x1="851.5" x2="1290.5" y1="104" y2="104"/><line style="stroke: #A80036; stroke-width: 1.5;" x1="851.5" x2="1290.5" y1="112" y2="112"/><ellipse cx="861.5" cy="139.8047" fill="#84BE84" rx="3" ry="3" style="stroke: #038048; stroke-width: 1.0;"/><text fill="#000000" font-family="sans-serif" font-size="11" font-style="italic" lengthAdjust="spacingAndGlyphs" textLength="318" x="870.5" y="143.0151">String receiveGpsSignalStrength(Satellite satelliteSignal)</text><line style="stroke: #A80036; stroke-width: 1.0; stroke-dasharray: 1.0,2.0;" x1="851.5" x2="1038" y1="126.4023" y2="126.4023"/><text fill="#000000" font-family="sans-serif" font-size="11" lengthAdjust="spacingAndGlyphs" textLength="66" x="1038" y="129.7104">Use Case 1</text><line style="stroke: #A80036; stroke-width: 1.0; stroke-dasharray: 1.0,2.0;" x1="1104" x2="1290.5" y1="126.4023" y2="126.4023"/><ellipse cx="861.5" cy="169.4141" fill="#84BE84" rx="3" ry="3" style="stroke: #038048; stroke-width: 1.0;"/><text fill="#000000" font-family="sans-serif" font-size="11" font-style="italic" lengthAdjust="spacingAndGlyphs" textLength="415" x="870.5" y="172.6245">SatelliteSignalCheckRequest passGpsSignalStrength(String satelliteName)</text><line style="stroke: #A80036; stroke-width: 1.0; stroke-dasharray: 1.0,2.0;" x1="851.5" x2="1038" y1="156.0117" y2="156.0117"/><text fill="#000000" font-family="sans-serif" font-size="11" lengthAdjust="spacingAndGlyphs" textLength="66" x="1038" y="159.3198">Use Case 2</text><line style="stroke: #A80036; stroke-width: 1.0; stroke-dasharray: 1.0,2.0;" x1="1104" x2="1290.5" y1="156.0117" y2="156.0117"/><!--MD5=[6376794c08ca75f6fa530286e1e32b13]
class DisplayGpsInterfaceImplementation--><rect fill="#FEFECE" filter="url(#f1c7lo1ccc0qbz)" height="171.2422" id="DisplayGpsInterfaceImplementation" style="stroke: #A80036; stroke-width: 1.5;" width="398" x="38" y="252"/><ellipse cx="122.25" cy="268" fill="#ADD1B2" rx="11" ry="11" style="stroke: #A80036; stroke-width: 1.0;"/><path d="M125.2188,273.6406 Q124.6406,273.9375 124,274.0781 Q123.3594,274.2344 122.6563,274.2344 Q120.1563,274.2344 118.8281,272.5938 Q117.5156,270.9375 117.5156,267.8125 Q117.5156,264.6875 118.8281,263.0313 Q120.1563,261.375 122.6563,261.375 Q123.3594,261.375 124,261.5313 Q124.6563,261.6875 125.2188,261.9844 L125.2188,264.7031 Q124.5938,264.125 124,263.8594 Q123.4063,263.5781 122.7813,263.5781 Q121.4375,263.5781 120.75,264.6563 Q120.0625,265.7188 120.0625,267.8125 Q120.0625,269.9063 120.75,270.9844 Q121.4375,272.0469 122.7813,272.0469 Q123.4063,272.0469 124,271.7813 Q124.5938,271.5 125.2188,270.9219 L125.2188,273.6406 Z "/><text fill="#000000" font-family="sans-serif" font-size="12" lengthAdjust="spacingAndGlyphs" textLength="221" x="142.75" y="272.1543">DisplayGpsInterfaceImplementation</text><line style="stroke: #A80036; stroke-width: 1.5;" x1="39" x2="435" y1="284" y2="284"/><rect fill="none" height="6" style="stroke: #C82930; stroke-width: 1.0;" width="6" x="46" y="292"/><text fill="#000000" font-family="sans-serif" font-size="11" lengthAdjust="spacingAndGlyphs" textLength="162" x="58" y="298.2104">DisplayGpsReciever reciever</text><line style="stroke: #A80036; stroke-width: 1.5;" x1="39" x2="435" y1="304.8047" y2="304.8047"/><ellipse cx="49" cy="315.8047" fill="#84BE84" rx="3" ry="3" style="stroke: #038048; stroke-width: 1.0;"/><text fill="#000000" font-family="sans-serif" font-size="11" lengthAdjust="spacingAndGlyphs" textLength="372" x="58" y="319.0151">DisplayGpsInterfaceImplementation(DisplayGpsReciever reciever)</text><ellipse cx="49" cy="345.4141" fill="#84BE84" rx="3" ry="3" style="stroke: #038048; stroke-width: 1.0;"/><text fill="#000000" font-family="sans-serif" font-size="11" lengthAdjust="spacingAndGlyphs" textLength="264" x="58" y="348.6245">void receiveGpsSignal(Satellite satelliteSignal)</text><line style="stroke: #A80036; stroke-width: 1.0; stroke-dasharray: 1.0,2.0;" x1="39" x2="204" y1="332.0117" y2="332.0117"/><text fill="#000000" font-family="sans-serif" font-size="11" lengthAdjust="spacingAndGlyphs" textLength="66" x="204" y="335.3198">Use Case 1</text><line style="stroke: #A80036; stroke-width: 1.0; stroke-dasharray: 1.0,2.0;" x1="270" x2="435" y1="332.0117" y2="332.0117"/><ellipse cx="49" cy="375.0234" fill="#84BE84" rx="3" ry="3" style="stroke: #038048; stroke-width: 1.0;"/><text fill="#000000" font-family="sans-serif" font-size="11" lengthAdjust="spacingAndGlyphs" textLength="271" x="58" y="378.2339">void reportGpsSignalLoss(String satelliteName)</text><ellipse cx="49" cy="387.8281" fill="#84BE84" rx="3" ry="3" style="stroke: #038048; stroke-width: 1.0;"/><text fill="#000000" font-family="sans-serif" font-size="11" lengthAdjust="spacingAndGlyphs" textLength="274" x="58" y="391.0386">void recheckSignalStength(String satelliteName)</text><ellipse cx="49" cy="400.6328" fill="#84BE84" rx="3" ry="3" style="stroke: #038048; stroke-width: 1.0;"/><text fill="#000000" font-family="sans-serif" font-size="11" lengthAdjust="spacingAndGlyphs" textLength="262" x="58" y="403.8433">void checkSignalStength(String satelliteName)</text><rect fill="#F24D5C" height="6" style="stroke: #C82930; stroke-width: 1.0;" width="6" x="46" y="410.4375"/><text fill="#000000" font-family="sans-serif" font-size="11" lengthAdjust="spacingAndGlyphs" textLength="261" x="58" y="416.6479">int reportSignalStrength(String satelliteName)</text><line style="stroke: #A80036; stroke-width: 1.0; stroke-dasharray: 1.0,2.0;" x1="39" x2="204" y1="361.6211" y2="361.6211"/><text fill="#000000" font-family="sans-serif" font-size="11" lengthAdjust="spacingAndGlyphs" textLength="66" x="204" y="364.9292">Use Case 2</text><line style="stroke: #A80036; stroke-width: 1.0; stroke-dasharray: 1.0,2.0;" x1="270" x2="435" y1="361.6211" y2="361.6211"/><!--MD5=[02b25ee3f711f666678619f4b81f3681]
class DisplayGpsReceiverImplementation--><rect fill="#FEFECE" filter="url(#f1c7lo1ccc0qbz)" height="158.4375" id="DisplayGpsReceiverImplementation" style="stroke: #A80036; stroke-width: 1.5;" width="402" x="471" y="258.5"/><ellipse cx="558.75" cy="274.5" fill="#ADD1B2" rx="11" ry="11" style="stroke: #A80036; stroke-width: 1.0;"/><path d="M561.7188,280.1406 Q561.1406,280.4375 560.5,280.5781 Q559.8594,280.7344 559.1563,280.7344 Q556.6563,280.7344 555.3281,279.0938 Q554.0156,277.4375 554.0156,274.3125 Q554.0156,271.1875 555.3281,269.5313 Q556.6563,267.875 559.1563,267.875 Q559.8594,267.875 560.5,268.0313 Q561.1563,268.1875 561.7188,268.4844 L561.7188,271.2031 Q561.0938,270.625 560.5,270.3594 Q559.9063,270.0781 559.2813,270.0781 Q557.9375,270.0781 557.25,271.1563 Q556.5625,272.2188 556.5625,274.3125 Q556.5625,276.4063 557.25,277.4844 Q557.9375,278.5469 559.2813,278.5469 Q559.9063,278.5469 560.5,278.2813 Q561.0938,278 561.7188,277.4219 L561.7188,280.1406 Z "/><text fill="#000000" font-family="sans-serif" font-size="12" lengthAdjust="spacingAndGlyphs" textLength="218" x="579.25" y="278.6543">DisplayGpsReceiverImplementation</text><line style="stroke: #A80036; stroke-width: 1.5;" x1="472" x2="872" y1="290.5" y2="290.5"/><rect fill="none" height="6" style="stroke: #C82930; stroke-width: 1.0;" width="6" x="479" y="298.5"/><text fill="#000000" font-family="sans-serif" font-size="11" lengthAdjust="spacingAndGlyphs" textLength="168" x="491" y="304.7104">DisplayGpsManager manager</text><line style="stroke: #A80036; stroke-width: 1.5;" x1="472" x2="872" y1="311.3047" y2="311.3047"/><ellipse cx="482" cy="322.3047" fill="#84BE84" rx="3" ry="3" style="stroke: #038048; stroke-width: 1.0;"/><text fill="#000000" font-family="sans-serif" font-size="11" lengthAdjust="spacingAndGlyphs" textLength="376" x="491" y="325.5151">DisplayGpsReceiverImplementation(DisplayGpsManager manager)</text><ellipse cx="482" cy="351.9141" fill="#84BE84" rx="3" ry="3" style="stroke: #038048; stroke-width: 1.0;"/><text fill="#000000" font-family="sans-serif" font-size="11" lengthAdjust="spacingAndGlyphs" textLength="334" x="491" y="355.1245">String measureGpsSignalStrength(Satellite satelliteSignal)</text><rect fill="#F24D5C" height="6" style="stroke: #C82930; stroke-width: 1.0;" width="6" x="479" y="361.7188"/><text fill="#000000" font-family="sans-serif" font-size="11" lengthAdjust="spacingAndGlyphs" textLength="248" x="491" y="367.9292">void passSignalStrength(int signalStrength)</text><line style="stroke: #A80036; stroke-width: 1.0; stroke-dasharray: 1.0,2.0;" x1="472" x2="639" y1="338.5117" y2="338.5117"/><text fill="#000000" font-family="sans-serif" font-size="11" lengthAdjust="spacingAndGlyphs" textLength="66" x="639" y="341.8198">Use Case 1</text><line style="stroke: #A80036; stroke-width: 1.0; stroke-dasharray: 1.0,2.0;" x1="705" x2="872" y1="338.5117" y2="338.5117"/><ellipse cx="482" cy="394.3281" fill="#84BE84" rx="3" ry="3" style="stroke: #038048; stroke-width: 1.0;"/><text fill="#000000" font-family="sans-serif" font-size="11" lengthAdjust="spacingAndGlyphs" textLength="334" x="491" y="397.5386">String measureGpsSignalStrength(Satellite satelliteSignal)</text><ellipse cx="482" cy="407.1328" fill="#84BE84" rx="3" ry="3" style="stroke: #038048; stroke-width: 1.0;"/><text fill="#000000" font-family="sans-serif" font-size="11" lengthAdjust="spacingAndGlyphs" textLength="375" x="491" y="410.3433">SatelliteSignalCheckRequest measureSignal(String satelliteName)</text><line style="stroke: #A80036; stroke-width: 1.0; stroke-dasharray: 1.0,2.0;" x1="472" x2="639" y1="380.9258" y2="380.9258"/><text fill="#000000" font-family="sans-serif" font-size="11" lengthAdjust="spacingAndGlyphs" textLength="66" x="639" y="384.2339">Use Case 2</text><line style="stroke: #A80036; stroke-width: 1.0; stroke-dasharray: 1.0,2.0;" x1="705" x2="872" y1="380.9258" y2="380.9258"/><!--MD5=[85db0a5b69c4b55d7b0101612d8a7890]
class DisplayGpsManagerImplementation--><rect fill="#FEFECE" filter="url(#f1c7lo1ccc0qbz)" height="171.2422" id="DisplayGpsManagerImplementation" style="stroke: #A80036; stroke-width: 1.5;" width="457" x="908.5" y="252"/><ellipse cx="1022.75" cy="268" fill="#ADD1B2" rx="11" ry="11" style="stroke: #A80036; stroke-width: 1.0;"/><path d="M1025.7188,273.6406 Q1025.1406,273.9375 1024.5,274.0781 Q1023.8594,274.2344 1023.1563,274.2344 Q1020.6563,274.2344 1019.3281,272.5938 Q1018.0156,270.9375 1018.0156,267.8125 Q1018.0156,264.6875 1019.3281,263.0313 Q1020.6563,261.375 1023.1563,261.375 Q1023.8594,261.375 1024.5,261.5313 Q1025.1563,261.6875 1025.7188,261.9844 L1025.7188,264.7031 Q1025.0938,264.125 1024.5,263.8594 Q1023.9063,263.5781 1023.2813,263.5781 Q1021.9375,263.5781 1021.25,264.6563 Q1020.5625,265.7188 1020.5625,267.8125 Q1020.5625,269.9063 1021.25,270.9844 Q1021.9375,272.0469 1023.2813,272.0469 Q1023.9063,272.0469 1024.5,271.7813 Q1025.0938,271.5 1025.7188,270.9219 L1025.7188,273.6406 Z "/><text fill="#000000" font-family="sans-serif" font-size="12" lengthAdjust="spacingAndGlyphs" textLength="220" x="1043.25" y="272.1543">DisplayGpsManagerImplementation</text><line style="stroke: #A80036; stroke-width: 1.5;" x1="909.5" x2="1364.5" y1="284" y2="284"/><rect fill="none" height="6" style="stroke: #C82930; stroke-width: 1.0;" width="6" x="916.5" y="292"/><text fill="#000000" font-family="sans-serif" font-size="11" lengthAdjust="spacingAndGlyphs" textLength="222" x="928.5" y="298.2104">MiddlewareGisInterface middlewareGis</text><line style="stroke: #A80036; stroke-width: 1.5;" x1="909.5" x2="1364.5" y1="304.8047" y2="304.8047"/><ellipse cx="919.5" cy="315.8047" fill="#84BE84" rx="3" ry="3" style="stroke: #038048; stroke-width: 1.0;"/><text fill="#000000" font-family="sans-serif" font-size="11" lengthAdjust="spacingAndGlyphs" textLength="431" x="928.5" y="319.0151">DisplayGpsManagerImplementation(MiddlewareGisInterface middlewareGis)</text><ellipse cx="919.5" cy="345.4141" fill="#84BE84" rx="3" ry="3" style="stroke: #038048; stroke-width: 1.0;"/><text fill="#000000" font-family="sans-serif" font-size="11" lengthAdjust="spacingAndGlyphs" textLength="324" x="928.5" y="348.6245">String receiveGpsSignalStrength(Satellite satelliteSignal)</text><ellipse cx="919.5" cy="358.2188" fill="#84BE84" rx="3" ry="3" style="stroke: #038048; stroke-width: 1.0;"/><text fill="#000000" font-family="sans-serif" font-size="11" lengthAdjust="spacingAndGlyphs" textLength="316" x="928.5" y="361.4292">boolean EvaluateGpsSignalStrengths(int signalStrengh)</text><ellipse cx="919.5" cy="371.0234" fill="#84BE84" rx="3" ry="3" style="stroke: #038048; stroke-width: 1.0;"/><text fill="#000000" font-family="sans-serif" font-size="11" lengthAdjust="spacingAndGlyphs" textLength="271" x="928.5" y="374.2339">void passGpsSignalStrength(int signalStrength)</text><line style="stroke: #A80036; stroke-width: 1.0; stroke-dasharray: 1.0,2.0;" x1="909.5" x2="1104" y1="332.0117" y2="332.0117"/><text fill="#000000" font-family="sans-serif" font-size="11" lengthAdjust="spacingAndGlyphs" textLength="66" x="1104" y="335.3198">Use Case 1</text><line style="stroke: #A80036; stroke-width: 1.0; stroke-dasharray: 1.0,2.0;" x1="1170" x2="1364.5" y1="332.0117" y2="332.0117"/><ellipse cx="919.5" cy="400.6328" fill="#84BE84" rx="3" ry="3" style="stroke: #038048; stroke-width: 1.0;"/><text fill="#000000" font-family="sans-serif" font-size="11" lengthAdjust="spacingAndGlyphs" textLength="278" x="928.5" y="403.8433">String receiveGpsSignalStrength(Satellite signal)</text><ellipse cx="919.5" cy="413.4375" fill="#84BE84" rx="3" ry="3" style="stroke: #038048; stroke-width: 1.0;"/><text fill="#000000" font-family="sans-serif" font-size="11" lengthAdjust="spacingAndGlyphs" textLength="424" x="928.5" y="416.6479">SatelliteSignalCheckRequest passGpsSignalStrength(String satelliteName)</text><line style="stroke: #A80036; stroke-width: 1.0; stroke-dasharray: 1.0,2.0;" x1="909.5" x2="1104" y1="387.2305" y2="387.2305"/><text fill="#000000" font-family="sans-serif" font-size="11" lengthAdjust="spacingAndGlyphs" textLength="66" x="1104" y="390.5386">Use Case 2</text><line style="stroke: #A80036; stroke-width: 1.0; stroke-dasharray: 1.0,2.0;" x1="1170" x2="1364.5" y1="387.2305" y2="387.2305"/><!--MD5=[31ac70925a3cf930ecc7428c11a6bdde]
class DisplayGpsInterfaceImplementationTests--><rect fill="#FEFECE" filter="url(#f1c7lo1ccc0qbz)" height="48" id="DisplayGpsInterfaceImplementationTests" style="stroke: #A80036; stroke-width: 1.5;" width="287" x="1421.5" y="101.5"/><ellipse cx="1436.5" cy="117.5" fill="#ADD1B2" rx="11" ry="11" style="stroke: #A80036; stroke-width: 1.0;"/><path d="M1439.4688,123.1406 Q1438.8906,123.4375 1438.25,123.5781 Q1437.6094,123.7344 1436.9063,123.7344 Q1434.4063,123.7344 1433.0781,122.0938 Q1431.7656,120.4375 1431.7656,117.3125 Q1431.7656,114.1875 1433.0781,112.5313 Q1434.4063,110.875 1436.9063,110.875 Q1437.6094,110.875 1438.25,111.0313 Q1438.9063,111.1875 1439.4688,111.4844 L1439.4688,114.2031 Q1438.8438,113.625 1438.25,113.3594 Q1437.6563,113.0781 1437.0313,113.0781 Q1435.6875,113.0781 1435,114.1563 Q1434.3125,115.2188 1434.3125,117.3125 Q1434.3125,119.4063 1435,120.4844 Q1435.6875,121.5469 1437.0313,121.5469 Q1437.6563,121.5469 1438.25,121.2813 Q1438.8438,121 1439.4688,120.4219 L1439.4688,123.1406 Z "/><text fill="#000000" font-family="sans-serif" font-size="12" lengthAdjust="spacingAndGlyphs" textLength="255" x="1450.5" y="121.6543">DisplayGpsInterfaceImplementationTests</text><line style="stroke: #A80036; stroke-width: 1.5;" x1="1422.5" x2="1707.5" y1="133.5" y2="133.5"/><line style="stroke: #A80036; stroke-width: 1.5;" x1="1422.5" x2="1707.5" y1="141.5" y2="141.5"/><!--MD5=[933cdd11260ca9cf411a4933e66b6f57]
class DisplayGpsReceiverImplementationTests--><rect fill="#FEFECE" filter="url(#f1c7lo1ccc0qbz)" height="48" id="DisplayGpsReceiverImplementationTests" style="stroke: #A80036; stroke-width: 1.5;" width="284" x="1744" y="101.5"/><ellipse cx="1759" cy="117.5" fill="#ADD1B2" rx="11" ry="11" style="stroke: #A80036; stroke-width: 1.0;"/><path d="M1761.9688,123.1406 Q1761.3906,123.4375 1760.75,123.5781 Q1760.1094,123.7344 1759.4063,123.7344 Q1756.9063,123.7344 1755.5781,122.0938 Q1754.2656,120.4375 1754.2656,117.3125 Q1754.2656,114.1875 1755.5781,112.5313 Q1756.9063,110.875 1759.4063,110.875 Q1760.1094,110.875 1760.75,111.0313 Q1761.4063,111.1875 1761.9688,111.4844 L1761.9688,114.2031 Q1761.3438,113.625 1760.75,113.3594 Q1760.1563,113.0781 1759.5313,113.0781 Q1758.1875,113.0781 1757.5,114.1563 Q1756.8125,115.2188 1756.8125,117.3125 Q1756.8125,119.4063 1757.5,120.4844 Q1758.1875,121.5469 1759.5313,121.5469 Q1760.1563,121.5469 1760.75,121.2813 Q1761.3438,121 1761.9688,120.4219 L1761.9688,123.1406 Z "/><text fill="#000000" font-family="sans-serif" font-size="12" lengthAdjust="spacingAndGlyphs" textLength="252" x="1773" y="121.6543">DisplayGpsReceiverImplementationTests</text><line style="stroke: #A80036; stroke-width: 1.5;" x1="1745" x2="2027" y1="133.5" y2="133.5"/><line style="stroke: #A80036; stroke-width: 1.5;" x1="1745" x2="2027" y1="141.5" y2="141.5"/><!--MD5=[b5e9506f01c5d0dda59c0c34003c249d]
class DisplayGpsManagerImplementationTests--><rect fill="#FEFECE" filter="url(#f1c7lo1ccc0qbz)" height="48" id="DisplayGpsManagerImplementationTests" style="stroke: #A80036; stroke-width: 1.5;" width="286" x="2063" y="101.5"/><ellipse cx="2078" cy="117.5" fill="#ADD1B2" rx="11" ry="11" style="stroke: #A80036; stroke-width: 1.0;"/><path d="M2080.9688,123.1406 Q2080.3906,123.4375 2079.75,123.5781 Q2079.1094,123.7344 2078.4063,123.7344 Q2075.9063,123.7344 2074.5781,122.0938 Q2073.2656,120.4375 2073.2656,117.3125 Q2073.2656,114.1875 2074.5781,112.5313 Q2075.9063,110.875 2078.4063,110.875 Q2079.1094,110.875 2079.75,111.0313 Q2080.4063,111.1875 2080.9688,111.4844 L2080.9688,114.2031 Q2080.3438,113.625 2079.75,113.3594 Q2079.1563,113.0781 2078.5313,113.0781 Q2077.1875,113.0781 2076.5,114.1563 Q2075.8125,115.2188 2075.8125,117.3125 Q2075.8125,119.4063 2076.5,120.4844 Q2077.1875,121.5469 2078.5313,121.5469 Q2079.1563,121.5469 2079.75,121.2813 Q2080.3438,121 2080.9688,120.4219 L2080.9688,123.1406 Z "/><text fill="#000000" font-family="sans-serif" font-size="12" lengthAdjust="spacingAndGlyphs" textLength="254" x="2092" y="121.6543">DisplayGpsManagerImplementationTests</text><line style="stroke: #A80036; stroke-width: 1.5;" x1="2064" x2="2348" y1="133.5" y2="133.5"/><line style="stroke: #A80036; stroke-width: 1.5;" x1="2064" x2="2348" y1="141.5" y2="141.5"/><!--MD5=[9d578318e58e71edcf98403314a477bf]
class SatelliteSignalCheckRequestTests--><rect fill="#FEFECE" filter="url(#f1c7lo1ccc0qbz)" height="124.8281" id="SatelliteSignalCheckRequestTests" style="stroke: #A80036; stroke-width: 1.5;" width="259" x="1421.5" y="275"/><ellipse cx="1442.8" cy="291" fill="#ADD1B2" rx="11" ry="11" style="stroke: #A80036; stroke-width: 1.0;"/><path d="M1445.7688,296.6406 Q1445.1906,296.9375 1444.55,297.0781 Q1443.9094,297.2344 1443.2063,297.2344 Q1440.7063,297.2344 1439.3781,295.5938 Q1438.0656,293.9375 1438.0656,290.8125 Q1438.0656,287.6875 1439.3781,286.0313 Q1440.7063,284.375 1443.2063,284.375 Q1443.9094,284.375 1444.55,284.5313 Q1445.2063,284.6875 1445.7688,284.9844 L1445.7688,287.7031 Q1445.1438,287.125 1444.55,286.8594 Q1443.9563,286.5781 1443.3313,286.5781 Q1441.9875,286.5781 1441.3,287.6563 Q1440.6125,288.7188 1440.6125,290.8125 Q1440.6125,292.9063 1441.3,293.9844 Q1441.9875,295.0469 1443.3313,295.0469 Q1443.9563,295.0469 1444.55,294.7813 Q1445.1438,294.5 1445.7688,293.9219 L1445.7688,296.6406 Z "/><text fill="#000000" font-family="sans-serif" font-size="12" lengthAdjust="spacingAndGlyphs" textLength="213" x="1458.2" y="295.1543">SatelliteSignalCheckRequestTests</text><line style="stroke: #A80036; stroke-width: 1.5;" x1="1422.5" x2="1679.5" y1="307" y2="307"/><line style="stroke: #A80036; stroke-width: 1.5;" x1="1422.5" x2="1679.5" y1="315" y2="315"/><ellipse cx="1432.5" cy="326" fill="#84BE84" rx="3" ry="3" style="stroke: #038048; stroke-width: 1.0;"/><text fill="#000000" font-family="sans-serif" font-size="11" lengthAdjust="spacingAndGlyphs" textLength="233" x="1441.5" y="329.2104">void SatelliteNameInIsSatelliteNameOut()</text><ellipse cx="1432.5" cy="338.8047" fill="#84BE84" rx="3" ry="3" style="stroke: #038048; stroke-width: 1.0;"/><text fill="#000000" font-family="sans-serif" font-size="11" lengthAdjust="spacingAndGlyphs" textLength="197" x="1441.5" y="342.0151">void CheckTypeInIsCheckTypeOut()</text><ellipse cx="1432.5" cy="351.6094" fill="#84BE84" rx="3" ry="3" style="stroke: #038048; stroke-width: 1.0;"/><text fill="#000000" font-family="sans-serif" font-size="11" lengthAdjust="spacingAndGlyphs" textLength="172" x="1441.5" y="354.8198">void EmptyNamesNotAllowed()</text><ellipse cx="1432.5" cy="364.4141" fill="#84BE84" rx="3" ry="3" style="stroke: #038048; stroke-width: 1.0;"/><text fill="#000000" font-family="sans-serif" font-size="11" lengthAdjust="spacingAndGlyphs" textLength="166" x="1441.5" y="367.6245">void EmptyTypesNotAllowed()</text><ellipse cx="1432.5" cy="377.2188" fill="#84BE84" rx="3" ry="3" style="stroke: #038048; stroke-width: 1.0;"/><text fill="#000000" font-family="sans-serif" font-size="11" lengthAdjust="spacingAndGlyphs" textLength="158" x="1441.5" y="380.4292">void NullNamesNotAllowed()</text><ellipse cx="1432.5" cy="390.0234" fill="#84BE84" rx="3" ry="3" style="stroke: #038048; stroke-width: 1.0;"/><text fill="#000000" font-family="sans-serif" font-size="11" lengthAdjust="spacingAndGlyphs" textLength="152" x="1441.5" y="393.2339">void NullTypesNotAllowed()</text><!--MD5=[0af74227177caadb6af436c979172233]
class DisplayGpsReceiverStub--><rect fill="#FEFECE" filter="url(#f1c7lo1ccc0qbz)" height="107.2188" id="DisplayGpsReceiverStub" style="stroke: #A80036; stroke-width: 1.5;" width="401" x="1715.5" y="284"/><ellipse cx="1836.75" cy="300" fill="#ADD1B2" rx="11" ry="11" style="stroke: #A80036; stroke-width: 1.0;"/><path d="M1839.7188,305.6406 Q1839.1406,305.9375 1838.5,306.0781 Q1837.8594,306.2344 1837.1563,306.2344 Q1834.6563,306.2344 1833.3281,304.5938 Q1832.0156,302.9375 1832.0156,299.8125 Q1832.0156,296.6875 1833.3281,295.0313 Q1834.6563,293.375 1837.1563,293.375 Q1837.8594,293.375 1838.5,293.5313 Q1839.1563,293.6875 1839.7188,293.9844 L1839.7188,296.7031 Q1839.0938,296.125 1838.5,295.8594 Q1837.9063,295.5781 1837.2813,295.5781 Q1835.9375,295.5781 1835.25,296.6563 Q1834.5625,297.7188 1834.5625,299.8125 Q1834.5625,301.9063 1835.25,302.9844 Q1835.9375,304.0469 1837.2813,304.0469 Q1837.9063,304.0469 1838.5,303.7813 Q1839.0938,303.5 1839.7188,302.9219 L1839.7188,305.6406 Z "/><text fill="#000000" font-family="sans-serif" font-size="12" lengthAdjust="spacingAndGlyphs" textLength="150" x="1857.25" y="304.1543">DisplayGpsReceiverStub</text><line style="stroke: #A80036; stroke-width: 1.5;" x1="1716.5" x2="2115.5" y1="316" y2="316"/><line style="stroke: #A80036; stroke-width: 1.5;" x1="1716.5" x2="2115.5" y1="324" y2="324"/><ellipse cx="1726.5" cy="351.8047" fill="#84BE84" rx="3" ry="3" style="stroke: #038048; stroke-width: 1.0;"/><text fill="#000000" font-family="sans-serif" font-size="11" lengthAdjust="spacingAndGlyphs" textLength="334" x="1735.5" y="355.0151">String measureGpsSignalStrength(Satellite satelliteSignal)</text><line style="stroke: #A80036; stroke-width: 1.0; stroke-dasharray: 1.0,2.0;" x1="1716.5" x2="1883" y1="338.4023" y2="338.4023"/><text fill="#000000" font-family="sans-serif" font-size="11" lengthAdjust="spacingAndGlyphs" textLength="66" x="1883" y="341.7104">Use Case 1</text><line style="stroke: #A80036; stroke-width: 1.0; stroke-dasharray: 1.0,2.0;" x1="1949" x2="2115.5" y1="338.4023" y2="338.4023"/><ellipse cx="1726.5" cy="381.4141" fill="#84BE84" rx="3" ry="3" style="stroke: #038048; stroke-width: 1.0;"/><text fill="#000000" font-family="sans-serif" font-size="11" lengthAdjust="spacingAndGlyphs" textLength="375" x="1735.5" y="384.6245">SatelliteSignalCheckRequest measureSignal(String satelliteName)</text><line style="stroke: #A80036; stroke-width: 1.0; stroke-dasharray: 1.0,2.0;" x1="1716.5" x2="1883" y1="368.0117" y2="368.0117"/><text fill="#000000" font-family="sans-serif" font-size="11" lengthAdjust="spacingAndGlyphs" textLength="66" x="1883" y="371.3198">Use Case 2</text><line style="stroke: #A80036; stroke-width: 1.0; stroke-dasharray: 1.0,2.0;" x1="1949" x2="2115.5" y1="368.0117" y2="368.0117"/><!--MD5=[6057d86884460ab216cb89f03a202a5c]
class DisplayGpsManagerStub--><rect fill="#FEFECE" filter="url(#f1c7lo1ccc0qbz)" height="107.2188" id="DisplayGpsManagerStub" style="stroke: #A80036; stroke-width: 1.5;" width="450" x="2152" y="284"/><ellipse cx="2296.75" cy="300" fill="#ADD1B2" rx="11" ry="11" style="stroke: #A80036; stroke-width: 1.0;"/><path d="M2299.7188,305.6406 Q2299.1406,305.9375 2298.5,306.0781 Q2297.8594,306.2344 2297.1563,306.2344 Q2294.6563,306.2344 2293.3281,304.5938 Q2292.0156,302.9375 2292.0156,299.8125 Q2292.0156,296.6875 2293.3281,295.0313 Q2294.6563,293.375 2297.1563,293.375 Q2297.8594,293.375 2298.5,293.5313 Q2299.1563,293.6875 2299.7188,293.9844 L2299.7188,296.7031 Q2299.0938,296.125 2298.5,295.8594 Q2297.9063,295.5781 2297.2813,295.5781 Q2295.9375,295.5781 2295.25,296.6563 Q2294.5625,297.7188 2294.5625,299.8125 Q2294.5625,301.9063 2295.25,302.9844 Q2295.9375,304.0469 2297.2813,304.0469 Q2297.9063,304.0469 2298.5,303.7813 Q2299.0938,303.5 2299.7188,302.9219 L2299.7188,305.6406 Z "/><text fill="#000000" font-family="sans-serif" font-size="12" lengthAdjust="spacingAndGlyphs" textLength="152" x="2317.25" y="304.1543">DisplayGpsManagerStub</text><line style="stroke: #A80036; stroke-width: 1.5;" x1="2153" x2="2601" y1="316" y2="316"/><line style="stroke: #A80036; stroke-width: 1.5;" x1="2153" x2="2601" y1="324" y2="324"/><ellipse cx="2163" cy="351.8047" fill="#84BE84" rx="3" ry="3" style="stroke: #038048; stroke-width: 1.0;"/><text fill="#000000" font-family="sans-serif" font-size="11" lengthAdjust="spacingAndGlyphs" textLength="331" x="2172" y="355.0151">String receiveGpsSignalStrengths(Satellite satelliteSignal)</text><line style="stroke: #A80036; stroke-width: 1.0; stroke-dasharray: 1.0,2.0;" x1="2153" x2="2344" y1="338.4023" y2="338.4023"/><text fill="#000000" font-family="sans-serif" font-size="11" lengthAdjust="spacingAndGlyphs" textLength="66" x="2344" y="341.7104">Use Case 1</text><line style="stroke: #A80036; stroke-width: 1.0; stroke-dasharray: 1.0,2.0;" x1="2410" x2="2601" y1="338.4023" y2="338.4023"/><ellipse cx="2163" cy="381.4141" fill="#84BE84" rx="3" ry="3" style="stroke: #038048; stroke-width: 1.0;"/><text fill="#000000" font-family="sans-serif" font-size="11" lengthAdjust="spacingAndGlyphs" textLength="424" x="2172" y="384.6245">SatelliteSignalCheckRequest passGpsSignalStrength(String satelliteName)</text><line style="stroke: #A80036; stroke-width: 1.0; stroke-dasharray: 1.0,2.0;" x1="2153" x2="2344" y1="368.0117" y2="368.0117"/><text fill="#000000" font-family="sans-serif" font-size="11" lengthAdjust="spacingAndGlyphs" textLength="66" x="2344" y="371.3198">Use Case 2</text><line style="stroke: #A80036; stroke-width: 1.0; stroke-dasharray: 1.0,2.0;" x1="2410" x2="2601" y1="368.0117" y2="368.0117"/><!--MD5=[80c749bdd7ec7c789b994dbe93702fd9]
class MiddlewareGisInterfaceStub--><rect fill="#FEFECE" filter="url(#f1c7lo1ccc0qbz)" height="107.2188" id="MiddlewareGisInterfaceStub" style="stroke: #A80036; stroke-width: 1.5;" width="350" x="1421" y="483"/><ellipse cx="1504.75" cy="499" fill="#ADD1B2" rx="11" ry="11" style="stroke: #A80036; stroke-width: 1.0;"/><path d="M1507.7188,504.6406 Q1507.1406,504.9375 1506.5,505.0781 Q1505.8594,505.2344 1505.1563,505.2344 Q1502.6563,505.2344 1501.3281,503.5938 Q1500.0156,501.9375 1500.0156,498.8125 Q1500.0156,495.6875 1501.3281,494.0313 Q1502.6563,492.375 1505.1563,492.375 Q1505.8594,492.375 1506.5,492.5313 Q1507.1563,492.6875 1507.7188,492.9844 L1507.7188,495.7031 Q1507.0938,495.125 1506.5,494.8594 Q1505.9063,494.5781 1505.2813,494.5781 Q1503.9375,494.5781 1503.25,495.6563 Q1502.5625,496.7188 1502.5625,498.8125 Q1502.5625,500.9063 1503.25,501.9844 Q1503.9375,503.0469 1505.2813,503.0469 Q1505.9063,503.0469 1506.5,502.7813 Q1507.0938,502.5 1507.7188,501.9219 L1507.7188,504.6406 Z "/><text fill="#000000" font-family="sans-serif" font-size="12" lengthAdjust="spacingAndGlyphs" textLength="174" x="1525.25" y="503.1543">MiddlewareGisInterfaceStub</text><line style="stroke: #A80036; stroke-width: 1.5;" x1="1422" x2="1770" y1="515" y2="515"/><line style="stroke: #A80036; stroke-width: 1.5;" x1="1422" x2="1770" y1="523" y2="523"/><ellipse cx="1432" cy="550.8047" fill="#84BE84" rx="3" ry="3" style="stroke: #038048; stroke-width: 1.0;"/><text fill="#000000" font-family="sans-serif" font-size="11" lengthAdjust="spacingAndGlyphs" textLength="324" x="1441" y="554.0151">String receiveGpsSignalStrength(Satellite satelliteSignal)</text><line style="stroke: #A80036; stroke-width: 1.0; stroke-dasharray: 1.0,2.0;" x1="1422" x2="1563" y1="537.4023" y2="537.4023"/><text fill="#000000" font-family="sans-serif" font-size="11" lengthAdjust="spacingAndGlyphs" textLength="66" x="1563" y="540.7104">Use Case 1</text><line style="stroke: #A80036; stroke-width: 1.0; stroke-dasharray: 1.0,2.0;" x1="1629" x2="1770" y1="537.4023" y2="537.4023"/><ellipse cx="1432" cy="580.4141" fill="#84BE84" rx="3" ry="3" style="stroke: #038048; stroke-width: 1.0;"/><text fill="#000000" font-family="sans-serif" font-size="11" lengthAdjust="spacingAndGlyphs" textLength="324" x="1441" y="583.6245">String receiveGpsSignalStrength(Satellite satelliteSignal)</text><line style="stroke: #A80036; stroke-width: 1.0; stroke-dasharray: 1.0,2.0;" x1="1422" x2="1563" y1="567.0117" y2="567.0117"/><text fill="#000000" font-family="sans-serif" font-size="11" lengthAdjust="spacingAndGlyphs" textLength="66" x="1563" y="570.3198">Use Case 2</text><line style="stroke: #A80036; stroke-width: 1.0; stroke-dasharray: 1.0,2.0;" x1="1629" x2="1770" y1="567.0117" y2="567.0117"/><!--MD5=[b7db7f9e4ca1b2f55d32a1a48f9dd068]
class SatelliteSignalCheckRequest--><rect fill="#FEFECE" filter="url(#f1c7lo1ccc0qbz)" height="112.0234" id="SatelliteSignalCheckRequest" style="stroke: #A80036; stroke-width: 1.5;" width="416" x="2658" y="69.5"/><ellipse cx="2772.25" cy="85.5" fill="#ADD1B2" rx="11" ry="11" style="stroke: #A80036; stroke-width: 1.0;"/><path d="M2775.2188,91.1406 Q2774.6406,91.4375 2774,91.5781 Q2773.3594,91.7344 2772.6563,91.7344 Q2770.1563,91.7344 2768.8281,90.0938 Q2767.5156,88.4375 2767.5156,85.3125 Q2767.5156,82.1875 2768.8281,80.5313 Q2770.1563,78.875 2772.6563,78.875 Q2773.3594,78.875 2774,79.0313 Q2774.6563,79.1875 2775.2188,79.4844 L2775.2188,82.2031 Q2774.5938,81.625 2774,81.3594 Q2773.4063,81.0781 2772.7813,81.0781 Q2771.4375,81.0781 2770.75,82.1563 Q2770.0625,83.2188 2770.0625,85.3125 Q2770.0625,87.4063 2770.75,88.4844 Q2771.4375,89.5469 2772.7813,89.5469 Q2773.4063,89.5469 2774,89.2813 Q2774.5938,89 2775.2188,88.4219 L2775.2188,91.1406 Z "/><text fill="#000000" font-family="sans-serif" font-size="12" lengthAdjust="spacingAndGlyphs" textLength="179" x="2792.75" y="89.6543">SatelliteSignalCheckRequest</text><line style="stroke: #A80036; stroke-width: 1.5;" x1="2659" x2="3073" y1="101.5" y2="101.5"/><rect fill="none" height="6" style="stroke: #C82930; stroke-width: 1.0;" width="6" x="2666" y="109.5"/><text fill="#000000" font-family="sans-serif" font-size="11" lengthAdjust="spacingAndGlyphs" textLength="116" x="2678" y="115.7104">String satelliteName</text><rect fill="none" height="6" style="stroke: #C82930; stroke-width: 1.0;" width="6" x="2666" y="122.3047"/><text fill="#000000" font-family="sans-serif" font-size="11" lengthAdjust="spacingAndGlyphs" textLength="97" x="2678" y="128.5151">String checkType</text><line style="stroke: #A80036; stroke-width: 1.5;" x1="2659" x2="3073" y1="135.1094" y2="135.1094"/><ellipse cx="2669" cy="146.1094" fill="#84BE84" rx="3" ry="3" style="stroke: #038048; stroke-width: 1.0;"/><text fill="#000000" font-family="sans-serif" font-size="11" lengthAdjust="spacingAndGlyphs" textLength="390" x="2678" y="149.3198">SatelliteSignalCheckRequest(String satelliteName, String checkType)</text><ellipse cx="2669" cy="158.9141" fill="#84BE84" rx="3" ry="3" style="stroke: #038048; stroke-width: 1.0;"/><text fill="#000000" font-family="sans-serif" font-size="11" lengthAdjust="spacingAndGlyphs" textLength="143" x="2678" y="162.1245">String getSatelliteName()</text><ellipse cx="2669" cy="171.7188" fill="#84BE84" rx="3" ry="3" style="stroke: #038048; stroke-width: 1.0;"/><text fill="#000000" font-family="sans-serif" font-size="11" lengthAdjust="spacingAndGlyphs" textLength="125" x="2678" y="174.9292">String getCheckType()</text><!--MD5=[f1009660389b69d8f1dd83b0564feed6]
link DisplayGpsInterface to DisplayGpsReceiver--><!--MD5=[8fefac4f596013478990c66256fd14b0]
link DisplayGpsReceiver to DisplayGpsManager--><!--MD5=[ee24dc14e505e67481c4b4ac6c5a51a1]
link DisplayGpsInterface to DisplayGpsInterfaceImplementation--><!--MD5=[7c0fe609e5df7a41ca62865333c5d149]
link DisplayGpsInterfaceImplementation to DisplayGpsReceiverImplementation--><!--MD5=[ef9a99f365d30152cb0c651116fa1b3a]
link DisplayGpsReceiverImplementation to DisplayGpsManagerImplementation--><!--MD5=[ef1b82cdde67d11aefeebda09292a376]
link DisplayGpsInterfaceImplementationTests to DisplayGpsReceiverImplementationTests--><!--MD5=[0b1b9253b0052d31a00eb0bbd17ad135]
link DisplayGpsReceiverImplementationTests to DisplayGpsManagerImplementationTests--><!--MD5=[1661215ed7a09e94ee929bf09054fc06]
link DisplayGpsInterfaceImplementationTests to SatelliteSignalCheckRequestTests--><!--MD5=[1242d19af24b0d802134ab0bf3f44a4c]
link SatelliteSignalCheckRequestTests to DisplayGpsReceiverStub--><!--MD5=[60e33ee7c14b6e814bc472e308eadeed]
link DisplayGpsReceiverStub to DisplayGpsManagerStub--><!--MD5=[a73adf47978338e79a046da162e8e269]
link SatelliteSignalCheckRequestTests to MiddlewareGisInterfaceStub--><!--MD5=[6083d8b2b9c692897249594a824b1efe]
@startuml Display01Packages


package edu.oakland.production.display01 {

}


package edu.oakland.production.display01 {
    interface DisplayGpsInterface {
        __
        .. Use Case 1 ..
        {abstract} + void receiveGpsSignal(Satellite satelliteSignal)
        .. Use Case 2 ..
        {abstract} + void reportGpsSignalLoss(String satelliteName)
        {abstract} + void recheckSignalStength(String satelliteName)
        {abstract} + void checkSignalStength(String satelliteName)
    }
}


package edu.oakland.production.display01 {
    interface DisplayGpsReceiver {
        __
        .. Use Case 1 ..
        {abstract} + String measureGpsSignalStrength(Satellite satelliteSignal)
        .. Use Case 2 ..
        {abstract} + SatelliteSignalCheckRequest measureSignal(String satelliteName)
    }
}


package edu.oakland.production.display01 {
    interface DisplayGpsManager {
        __
        .. Use Case 1 ..
        {abstract} + String receiveGpsSignalStrength(Satellite satelliteSignal)
        .. Use Case 2 ..
        {abstract} + SatelliteSignalCheckRequest passGpsSignalStrength(String satelliteName)
    }
}



package edu.oakland.production.display01 {
    class DisplayGpsInterfaceImplementation {
        - DisplayGpsReciever reciever
        __
        + DisplayGpsInterfaceImplementation(DisplayGpsReciever reciever)
        .. Use Case 1 ..
        + void receiveGpsSignal(Satellite satelliteSignal)
        .. Use Case 2 ..
        + void reportGpsSignalLoss(String satelliteName)
        + void recheckSignalStength(String satelliteName)
        + void checkSignalStength(String satelliteName)
        - int reportSignalStrength(String satelliteName)
    }
}


package edu.oakland.production.display01 {
    class DisplayGpsReceiverImplementation {
        - DisplayGpsManager manager
        __
        + DisplayGpsReceiverImplementation(DisplayGpsManager manager)
        .. Use Case 1 ..
        + String measureGpsSignalStrength(Satellite satelliteSignal)
        - void passSignalStrength(int signalStrength)
        .. Use Case 2 ..
        + String measureGpsSignalStrength(Satellite satelliteSignal)
        + SatelliteSignalCheckRequest measureSignal(String satelliteName)
    }
}


package edu.oakland.production.display01 {
  class DisplayGpsManagerImplementation {
    - MiddlewareGisInterface middlewareGis
   __
    + DisplayGpsManagerImplementation(MiddlewareGisInterface middlewareGis)
    .. Use Case 1 ..
    + String receiveGpsSignalStrength(Satellite satelliteSignal)
    + boolean EvaluateGpsSignalStrengths(int signalStrengh)
    + void passGpsSignalStrength(int signalStrength)
    .. Use Case 2 ..
    + String receiveGpsSignalStrength(Satellite signal)
    + SatelliteSignalCheckRequest passGpsSignalStrength(String satelliteName)
    }
}



package edu.oakland.test.display01 {
    
}


package edu.oakland.test.display01 {
    class DisplayGpsInterfaceImplementationTests {

    }
}


package edu.oakland.test.display01 {
    class DisplayGpsReceiverImplementationTests {

    }
}


package edu.oakland.test.display01 {
    class DisplayGpsManagerImplementationTests {

    }
}


package edu.oakland.test.display01 {
  class SatelliteSignalCheckRequestTests {
    + void SatelliteNameInIsSatelliteNameOut()
    + void CheckTypeInIsCheckTypeOut()
    + void EmptyNamesNotAllowed()
    + void EmptyTypesNotAllowed()
    + void NullNamesNotAllowed()
    + void NullTypesNotAllowed()
  }
}


package edu.oakland.test.display01 {
    class DisplayGpsReceiverStub {
        __
        .. Use Case 1 ..
        + String measureGpsSignalStrength(Satellite satelliteSignal)
        .. Use Case 2 ..
        + SatelliteSignalCheckRequest measureSignal(String satelliteName)
    }
}


package edu.oakland.test.display01 {
    class DisplayGpsManagerStub {
        __
        .. Use Case 1 ..
        + String receiveGpsSignalStrengths(Satellite satelliteSignal)
        .. Use Case 2 ..
        + SatelliteSignalCheckRequest passGpsSignalStrength(String satelliteName)
    }
}


package edu.oakland.test.display01 {
    class MiddlewareGisInterfaceStub {
        __
        .. Use Case 1 ..
        + String receiveGpsSignalStrength(Satellite satelliteSignal)
        .. Use Case 2 ..
        + String receiveGpsSignalStrength(Satellite satelliteSignal)
    }
}



package edu.oakland.helper.display01 {

}


package edu.oakland.helper.display01 {
    class SatelliteSignalCheckRequest {
        - String satelliteName
        - String checkType
        + SatelliteSignalCheckRequest(String satelliteName, String checkType)
        + String getSatelliteName()
        + String getCheckType()
    }
}



@enduml

PlantUML version 1.2020.02(Sun Mar 01 10:22:07 GMT 2020)
(GPL source distribution)
Java Runtime: OpenJDK Runtime Environment
JVM: OpenJDK 64-Bit Server VM
Java Version: 11.0.9+11-Ubuntu-0ubuntu1
Operating System: Linux
Default Encoding: ANSI_X3.4-1968
Language: en
Country: US
--></g></svg>