<?xml version="1.0" encoding="UTF-8" standalone="no"?><svg xmlns="http://www.w3.org/2000/svg" xmlns:xlink="http://www.w3.org/1999/xlink" contentScriptType="application/ecmascript" contentStyleType="text/css" height="653px" preserveAspectRatio="none" style="width:3093px;height:653px;" version="1.1" viewBox="0 0 3093 653" width="3093px" zoomAndPan="magnify"><defs><filter height="300%" id="fhuks78875fd5" width="300%" x="-1" y="-1"><feGaussianBlur result="blurOut" stdDeviation="2.0"/><feColorMatrix in="blurOut" result="blurOut2" type="matrix" values="0 0 0 0 0 0 0 0 0 0 0 0 0 0 0 0 0 0 .4 0"/><feOffset dx="4.0" dy="4.0" in="blurOut2" result="blurOut3"/><feBlend in="SourceGraphic" in2="blurOut3" mode="normal"/></filter></defs><g><!--MD5=[33504725b8a69ba2207f0a836957a91c]
cluster edu.oakland.production.middleware02--><polygon fill="#FFFFFF" filter="url(#fhuks78875fd5)" points="22,60,332,60,339,82.2969,1306,82.2969,1306,452,22,452,22,60" style="stroke: #000000; stroke-width: 1.5;"/><line style="stroke: #000000; stroke-width: 1.5;" x1="22" x2="339" y1="82.2969" y2="82.2969"/><text fill="#000000" font-family="sans-serif" font-size="14" font-weight="bold" lengthAdjust="spacingAndGlyphs" textLength="304" x="26" y="74.9951">edu.oakland.production.middleware02</text><!--MD5=[def9027c776d62015452659d5d6059fb]
cluster edu.oakland.test.middleware02--><polygon fill="#FFFFFF" filter="url(#fhuks78875fd5)" points="1330,24,1585,24,1592,46.2969,2497,46.2969,2497,641,1330,641,1330,24" style="stroke: #000000; stroke-width: 1.5;"/><line style="stroke: #000000; stroke-width: 1.5;" x1="1330" x2="1592" y1="46.2969" y2="46.2969"/><text fill="#000000" font-family="sans-serif" font-size="14" font-weight="bold" lengthAdjust="spacingAndGlyphs" textLength="249" x="1334" y="38.9951">edu.oakland.test.middleware02</text><!--MD5=[73d4e355f259fb8d2c716d693a5be920]
cluster edu.oakland.helper.middleware02--><polygon fill="#FFFFFF" filter="url(#fhuks78875fd5)" points="2521,56,2796,56,2803,78.2969,3071,78.2969,3071,193,2521,193,2521,56" style="stroke: #000000; stroke-width: 1.5;"/><line style="stroke: #000000; stroke-width: 1.5;" x1="2521" x2="2803" y1="78.2969" y2="78.2969"/><text fill="#000000" font-family="sans-serif" font-size="14" font-weight="bold" lengthAdjust="spacingAndGlyphs" textLength="269" x="2525" y="70.9951">edu.oakland.helper.middleware02</text><!--MD5=[d3cb230b9040bd9072bb1f490e167601]
class MiddlewareCommInterface--><rect fill="#FEFECE" filter="url(#fhuks78875fd5)" height="77.6094" id="MiddlewareCommInterface" style="stroke: #A80036; stroke-width: 1.5;" width="198" x="116" y="95"/><ellipse cx="131" cy="111" fill="#B4A7E5" rx="11" ry="11" style="stroke: #A80036; stroke-width: 1.0;"/><path d="M126.9219,106.7656 L126.9219,104.6094 L134.3125,104.6094 L134.3125,106.7656 L131.8438,106.7656 L131.8438,114.8438 L134.3125,114.8438 L134.3125,117 L126.9219,117 L126.9219,114.8438 L129.3906,114.8438 L129.3906,106.7656 L126.9219,106.7656 Z "/><text fill="#000000" font-family="sans-serif" font-size="12" font-style="italic" lengthAdjust="spacingAndGlyphs" textLength="166" x="145" y="115.1543">MiddlewareCommInterface</text><line style="stroke: #A80036; stroke-width: 1.5;" x1="117" x2="313" y1="127" y2="127"/><line style="stroke: #A80036; stroke-width: 1.5;" x1="117" x2="313" y1="135" y2="135"/><ellipse cx="127" cy="162.8047" fill="#84BE84" rx="3" ry="3" style="stroke: #038048; stroke-width: 1.0;"/><text fill="#000000" font-family="sans-serif" font-size="11" font-style="italic" lengthAdjust="spacingAndGlyphs" textLength="171" x="136" y="166.0151">TrackData requestRfid(int rfid)</text><line style="stroke: #A80036; stroke-width: 1.0; stroke-dasharray: 1.0,2.0;" x1="117" x2="182" y1="149.4023" y2="149.4023"/><text fill="#000000" font-family="sans-serif" font-size="11" lengthAdjust="spacingAndGlyphs" textLength="66" x="182" y="152.7104">Use Case 1</text><line style="stroke: #A80036; stroke-width: 1.0; stroke-dasharray: 1.0,2.0;" x1="248" x2="313" y1="149.4023" y2="149.4023"/><!--MD5=[d01e667c21cf622da77e8a7601ca5c91]
class MiddlewareCommLinkManager--><rect fill="#FEFECE" filter="url(#fhuks78875fd5)" height="77.6094" id="MiddlewareCommLinkManager" style="stroke: #A80036; stroke-width: 1.5;" width="221" x="349.5" y="95"/><ellipse cx="364.5" cy="111" fill="#B4A7E5" rx="11" ry="11" style="stroke: #A80036; stroke-width: 1.0;"/><path d="M360.4219,106.7656 L360.4219,104.6094 L367.8125,104.6094 L367.8125,106.7656 L365.3438,106.7656 L365.3438,114.8438 L367.8125,114.8438 L367.8125,117 L360.4219,117 L360.4219,114.8438 L362.8906,114.8438 L362.8906,106.7656 L360.4219,106.7656 Z "/><text fill="#000000" font-family="sans-serif" font-size="12" font-style="italic" lengthAdjust="spacingAndGlyphs" textLength="189" x="378.5" y="115.1543">MiddlewareCommLinkManager</text><line style="stroke: #A80036; stroke-width: 1.5;" x1="350.5" x2="569.5" y1="127" y2="127"/><line style="stroke: #A80036; stroke-width: 1.5;" x1="350.5" x2="569.5" y1="135" y2="135"/><ellipse cx="360.5" cy="162.8047" fill="#84BE84" rx="3" ry="3" style="stroke: #038048; stroke-width: 1.0;"/><text fill="#000000" font-family="sans-serif" font-size="11" font-style="italic" lengthAdjust="spacingAndGlyphs" textLength="160" x="369.5" y="166.0151">TrackData parseRfid(int rfid)</text><line style="stroke: #A80036; stroke-width: 1.0; stroke-dasharray: 1.0,2.0;" x1="350.5" x2="427" y1="149.4023" y2="149.4023"/><text fill="#000000" font-family="sans-serif" font-size="11" lengthAdjust="spacingAndGlyphs" textLength="66" x="427" y="152.7104">Use Case 1</text><line style="stroke: #A80036; stroke-width: 1.0; stroke-dasharray: 1.0,2.0;" x1="493" x2="569.5" y1="149.4023" y2="149.4023"/><!--MD5=[4915649770e9045e9ea9156a01fd67e8]
class MiddlewareCommDatabaseInterface--><rect fill="#FEFECE" filter="url(#fhuks78875fd5)" height="77.6094" id="MiddlewareCommDatabaseInterface" style="stroke: #A80036; stroke-width: 1.5;" width="258" x="606" y="95"/><ellipse cx="621" cy="111" fill="#B4A7E5" rx="11" ry="11" style="stroke: #A80036; stroke-width: 1.0;"/><path d="M616.9219,106.7656 L616.9219,104.6094 L624.3125,104.6094 L624.3125,106.7656 L621.8438,106.7656 L621.8438,114.8438 L624.3125,114.8438 L624.3125,117 L616.9219,117 L616.9219,114.8438 L619.3906,114.8438 L619.3906,106.7656 L616.9219,106.7656 Z "/><text fill="#000000" font-family="sans-serif" font-size="12" font-style="italic" lengthAdjust="spacingAndGlyphs" textLength="226" x="635" y="115.1543">MiddlewareCommDatabaseInterface</text><line style="stroke: #A80036; stroke-width: 1.5;" x1="607" x2="863" y1="127" y2="127"/><line style="stroke: #A80036; stroke-width: 1.5;" x1="607" x2="863" y1="135" y2="135"/><ellipse cx="617" cy="162.8047" fill="#84BE84" rx="3" ry="3" style="stroke: #038048; stroke-width: 1.0;"/><text fill="#000000" font-family="sans-serif" font-size="11" font-style="italic" lengthAdjust="spacingAndGlyphs" textLength="123" x="626" y="166.0151">int checkCurrentRfid()</text><line style="stroke: #A80036; stroke-width: 1.0; stroke-dasharray: 1.0,2.0;" x1="607" x2="702" y1="149.4023" y2="149.4023"/><text fill="#000000" font-family="sans-serif" font-size="11" lengthAdjust="spacingAndGlyphs" textLength="66" x="702" y="152.7104">Use Case 1</text><line style="stroke: #A80036; stroke-width: 1.0; stroke-dasharray: 1.0,2.0;" x1="768" x2="863" y1="149.4023" y2="149.4023"/><!--MD5=[0a03c366ade61429da89cc477d567a32]
class MiddlewareCommInterfaceImplementation--><rect fill="#FEFECE" filter="url(#fhuks78875fd5)" height="116.0234" id="MiddlewareCommInterfaceImplementation" style="stroke: #A80036; stroke-width: 1.5;" width="353" x="38.5" y="294.5"/><ellipse cx="80.5" cy="310.5" fill="#ADD1B2" rx="11" ry="11" style="stroke: #A80036; stroke-width: 1.0;"/><path d="M83.4688,316.1406 Q82.8906,316.4375 82.25,316.5781 Q81.6094,316.7344 80.9063,316.7344 Q78.4063,316.7344 77.0781,315.0938 Q75.7656,313.4375 75.7656,310.3125 Q75.7656,307.1875 77.0781,305.5313 Q78.4063,303.875 80.9063,303.875 Q81.6094,303.875 82.25,304.0313 Q82.9063,304.1875 83.4688,304.4844 L83.4688,307.2031 Q82.8438,306.625 82.25,306.3594 Q81.6563,306.0781 81.0313,306.0781 Q79.6875,306.0781 79,307.1563 Q78.3125,308.2188 78.3125,310.3125 Q78.3125,312.4063 79,313.4844 Q79.6875,314.5469 81.0313,314.5469 Q81.6563,314.5469 82.25,314.2813 Q82.8438,314 83.4688,313.4219 L83.4688,316.1406 Z "/><text fill="#000000" font-family="sans-serif" font-size="12" lengthAdjust="spacingAndGlyphs" textLength="261" x="100.5" y="314.6543">MiddlewareCommInterfaceImplementation</text><line style="stroke: #A80036; stroke-width: 1.5;" x1="39.5" x2="390.5" y1="326.5" y2="326.5"/><rect fill="none" height="6" style="stroke: #C82930; stroke-width: 1.0;" width="6" x="46.5" y="334.5"/><text fill="#000000" font-family="sans-serif" font-size="11" lengthAdjust="spacingAndGlyphs" textLength="291" x="58.5" y="340.7104">MiddlewareCommLinkManager middlewareManager</text><line style="stroke: #A80036; stroke-width: 1.5;" x1="39.5" x2="390.5" y1="347.3047" y2="347.3047"/><ellipse cx="49.5" cy="358.3047" fill="#84BE84" rx="3" ry="3" style="stroke: #038048; stroke-width: 1.0;"/><text fill="#000000" font-family="sans-serif" font-size="11" lengthAdjust="spacingAndGlyphs" textLength="243" x="58.5" y="361.5151">MiddlewareCommInterfaceImplementation(</text><text fill="#000000" font-family="sans-serif" font-size="11" lengthAdjust="spacingAndGlyphs" textLength="295" x="90.5" y="374.3198">MiddlewareCommLinkManager middlewareManager)</text><ellipse cx="49.5" cy="400.7188" fill="#84BE84" rx="3" ry="3" style="stroke: #038048; stroke-width: 1.0;"/><text fill="#000000" font-family="sans-serif" font-size="11" lengthAdjust="spacingAndGlyphs" textLength="171" x="58.5" y="403.9292">TrackData requestRfid(int rfid)</text><line style="stroke: #A80036; stroke-width: 1.0; stroke-dasharray: 1.0,2.0;" x1="39.5" x2="182" y1="387.3164" y2="387.3164"/><text fill="#000000" font-family="sans-serif" font-size="11" lengthAdjust="spacingAndGlyphs" textLength="66" x="182" y="390.6245">Use Case 1</text><line style="stroke: #A80036; stroke-width: 1.0; stroke-dasharray: 1.0,2.0;" x1="248" x2="390.5" y1="387.3164" y2="387.3164"/><!--MD5=[d9ed64ee38938b46697008700ce69fba]
class MiddlewareCommLinkManagerImplementation--><rect fill="#FEFECE" filter="url(#fhuks78875fd5)" height="167.2422" id="MiddlewareCommLinkManagerImplementation" style="stroke: #A80036; stroke-width: 1.5;" width="474" x="427" y="269"/><ellipse cx="517.75" cy="285" fill="#ADD1B2" rx="11" ry="11" style="stroke: #A80036; stroke-width: 1.0;"/><path d="M520.7188,290.6406 Q520.1406,290.9375 519.5,291.0781 Q518.8594,291.2344 518.1563,291.2344 Q515.6563,291.2344 514.3281,289.5938 Q513.0156,287.9375 513.0156,284.8125 Q513.0156,281.6875 514.3281,280.0313 Q515.6563,278.375 518.1563,278.375 Q518.8594,278.375 519.5,278.5313 Q520.1563,278.6875 520.7188,278.9844 L520.7188,281.7031 Q520.0938,281.125 519.5,280.8594 Q518.9063,280.5781 518.2813,280.5781 Q516.9375,280.5781 516.25,281.6563 Q515.5625,282.7188 515.5625,284.8125 Q515.5625,286.9063 516.25,287.9844 Q516.9375,289.0469 518.2813,289.0469 Q518.9063,289.0469 519.5,288.7813 Q520.0938,288.5 520.7188,287.9219 L520.7188,290.6406 Z "/><text fill="#000000" font-family="sans-serif" font-size="12" lengthAdjust="spacingAndGlyphs" textLength="284" x="538.25" y="289.1543">MiddlewareCommLinkManagerImplementation</text><line style="stroke: #A80036; stroke-width: 1.5;" x1="428" x2="900" y1="301" y2="301"/><rect fill="none" height="6" style="stroke: #C82930; stroke-width: 1.0;" width="6" x="435" y="309"/><text fill="#000000" font-family="sans-serif" font-size="11" lengthAdjust="spacingAndGlyphs" textLength="416" x="447" y="315.2104">MiddlewareCommDatabaseInterface middlewareCommDatabaseInterface</text><rect fill="none" height="6" style="stroke: #C82930; stroke-width: 1.0;" width="6" x="435" y="321.8047"/><text fill="#000000" font-family="sans-serif" font-size="11" lengthAdjust="spacingAndGlyphs" textLength="270" x="447" y="328.0151">MiddlewareGisManager middlewareGisManager</text><line style="stroke: #A80036; stroke-width: 1.5;" x1="428" x2="900" y1="334.6094" y2="334.6094"/><ellipse cx="438" cy="345.6094" fill="#84BE84" rx="3" ry="3" style="stroke: #038048; stroke-width: 1.0;"/><text fill="#000000" font-family="sans-serif" font-size="11" lengthAdjust="spacingAndGlyphs" textLength="264" x="447" y="348.8198">MiddlewareCommLinkManagerImplementation(</text><text fill="#000000" font-family="sans-serif" font-size="11" lengthAdjust="spacingAndGlyphs" textLength="416" x="479" y="361.6245">MiddlewareCommDatabaseInterface middlewareCommDatabaseInterface</text><text fill="#000000" font-family="sans-serif" font-size="11" lengthAdjust="spacingAndGlyphs" textLength="274" x="479" y="374.4292">MiddlewareGisManager middlewareGisManager)</text><ellipse cx="438" cy="400.8281" fill="#84BE84" rx="3" ry="3" style="stroke: #038048; stroke-width: 1.0;"/><text fill="#000000" font-family="sans-serif" font-size="11" lengthAdjust="spacingAndGlyphs" textLength="160" x="447" y="404.0386">TrackData parseRfid(int rfid)</text><rect fill="#F24D5C" height="6" style="stroke: #C82930; stroke-width: 1.0;" width="6" x="435" y="410.6328"/><text fill="#000000" font-family="sans-serif" font-size="11" lengthAdjust="spacingAndGlyphs" textLength="188" x="447" y="416.8433">float calculateLocationDataPoint()</text><rect fill="#F24D5C" height="6" style="stroke: #C82930; stroke-width: 1.0;" width="6" x="435" y="423.4375"/><text fill="#000000" font-family="sans-serif" font-size="11" lengthAdjust="spacingAndGlyphs" textLength="144" x="447" y="429.6479">float calculateTrackData()</text><line style="stroke: #A80036; stroke-width: 1.0; stroke-dasharray: 1.0,2.0;" x1="428" x2="631" y1="387.4258" y2="387.4258"/><text fill="#000000" font-family="sans-serif" font-size="11" lengthAdjust="spacingAndGlyphs" textLength="66" x="631" y="390.7339">Use Case 1</text><line style="stroke: #A80036; stroke-width: 1.0; stroke-dasharray: 1.0,2.0;" x1="697" x2="900" y1="387.4258" y2="387.4258"/><!--MD5=[1c4f9654f103878faf4a10c0361188b9]
class MiddlewareCommDatabaseInterfaceImplementation--><rect fill="#FEFECE" filter="url(#fhuks78875fd5)" height="116.0234" id="MiddlewareCommDatabaseInterfaceImplementation" style="stroke: #A80036; stroke-width: 1.5;" width="354" x="936" y="294.5"/><ellipse cx="951" cy="310.5" fill="#ADD1B2" rx="11" ry="11" style="stroke: #A80036; stroke-width: 1.0;"/><path d="M953.9688,316.1406 Q953.3906,316.4375 952.75,316.5781 Q952.1094,316.7344 951.4063,316.7344 Q948.9063,316.7344 947.5781,315.0938 Q946.2656,313.4375 946.2656,310.3125 Q946.2656,307.1875 947.5781,305.5313 Q948.9063,303.875 951.4063,303.875 Q952.1094,303.875 952.75,304.0313 Q953.4063,304.1875 953.9688,304.4844 L953.9688,307.2031 Q953.3438,306.625 952.75,306.3594 Q952.1563,306.0781 951.5313,306.0781 Q950.1875,306.0781 949.5,307.1563 Q948.8125,308.2188 948.8125,310.3125 Q948.8125,312.4063 949.5,313.4844 Q950.1875,314.5469 951.5313,314.5469 Q952.1563,314.5469 952.75,314.2813 Q953.3438,314 953.9688,313.4219 L953.9688,316.1406 Z "/><text fill="#000000" font-family="sans-serif" font-size="12" lengthAdjust="spacingAndGlyphs" textLength="322" x="965" y="314.6543">MiddlewareCommDatabaseInterfaceImplementation</text><line style="stroke: #A80036; stroke-width: 1.5;" x1="937" x2="1289" y1="326.5" y2="326.5"/><ellipse cx="947" cy="337.5" fill="none" rx="3" ry="3" style="stroke: #038048; stroke-width: 1.0;"/><text fill="#000000" font-family="sans-serif" font-size="11" lengthAdjust="spacingAndGlyphs" textLength="285" x="956" y="340.7104">DatabaseCommInterface databaseCommInterface</text><line style="stroke: #A80036; stroke-width: 1.5;" x1="937" x2="1289" y1="347.3047" y2="347.3047"/><ellipse cx="947" cy="358.3047" fill="#84BE84" rx="3" ry="3" style="stroke: #038048; stroke-width: 1.0;"/><text fill="#000000" font-family="sans-serif" font-size="11" lengthAdjust="spacingAndGlyphs" textLength="297" x="956" y="361.5151">MiddlewareCommDatabaseInterfaceImplementation(</text><text fill="#000000" font-family="sans-serif" font-size="11" lengthAdjust="spacingAndGlyphs" textLength="289" x="988" y="374.3198">DatabaseCommInterface databaseCommInterface)</text><ellipse cx="947" cy="400.7188" fill="#84BE84" rx="3" ry="3" style="stroke: #038048; stroke-width: 1.0;"/><text fill="#000000" font-family="sans-serif" font-size="11" lengthAdjust="spacingAndGlyphs" textLength="122" x="956" y="403.9292">int checkCurrentRfid()</text><line style="stroke: #A80036; stroke-width: 1.0; stroke-dasharray: 1.0,2.0;" x1="937" x2="1080" y1="387.3164" y2="387.3164"/><text fill="#000000" font-family="sans-serif" font-size="11" lengthAdjust="spacingAndGlyphs" textLength="66" x="1080" y="390.6245">Use Case 1</text><line style="stroke: #A80036; stroke-width: 1.0; stroke-dasharray: 1.0,2.0;" x1="1146" x2="1289" y1="387.3164" y2="387.3164"/><!--MD5=[00b94da1af6b7f5503baa4bfd88b42e0]
class MiddlewareCommInterfaceImplementationTests--><rect fill="#FEFECE" filter="url(#fhuks78875fd5)" height="73.6094" id="MiddlewareCommInterfaceImplementationTests" style="stroke: #A80036; stroke-width: 1.5;" width="327" x="1345.5" y="97"/><ellipse cx="1360.5" cy="113" fill="#ADD1B2" rx="11" ry="11" style="stroke: #A80036; stroke-width: 1.0;"/><path d="M1363.4688,118.6406 Q1362.8906,118.9375 1362.25,119.0781 Q1361.6094,119.2344 1360.9063,119.2344 Q1358.4063,119.2344 1357.0781,117.5938 Q1355.7656,115.9375 1355.7656,112.8125 Q1355.7656,109.6875 1357.0781,108.0313 Q1358.4063,106.375 1360.9063,106.375 Q1361.6094,106.375 1362.25,106.5313 Q1362.9063,106.6875 1363.4688,106.9844 L1363.4688,109.7031 Q1362.8438,109.125 1362.25,108.8594 Q1361.6563,108.5781 1361.0313,108.5781 Q1359.6875,108.5781 1359,109.6563 Q1358.3125,110.7188 1358.3125,112.8125 Q1358.3125,114.9063 1359,115.9844 Q1359.6875,117.0469 1361.0313,117.0469 Q1361.6563,117.0469 1362.25,116.7813 Q1362.8438,116.5 1363.4688,115.9219 L1363.4688,118.6406 Z "/><text fill="#000000" font-family="sans-serif" font-size="12" lengthAdjust="spacingAndGlyphs" textLength="295" x="1374.5" y="117.1543">MiddlewareCommInterfaceImplementationTests</text><line style="stroke: #A80036; stroke-width: 1.5;" x1="1346.5" x2="1671.5" y1="129" y2="129"/><line style="stroke: #A80036; stroke-width: 1.5;" x1="1346.5" x2="1671.5" y1="137" y2="137"/><ellipse cx="1356.5" cy="148" fill="#84BE84" rx="3" ry="3" style="stroke: #038048; stroke-width: 1.0;"/><text fill="#000000" font-family="sans-serif" font-size="11" lengthAdjust="spacingAndGlyphs" textLength="115" x="1365.5" y="151.2104">void rfidInIsRfidOut()</text><ellipse cx="1356.5" cy="160.8047" fill="#84BE84" rx="3" ry="3" style="stroke: #038048; stroke-width: 1.0;"/><text fill="#000000" font-family="sans-serif" font-size="11" lengthAdjust="spacingAndGlyphs" textLength="257" x="1365.5" y="164.0151">void MiddlewareCommLinkManagerIsNotNull()</text><!--MD5=[de2e25996fbf99af10f04f2aae2d0ec2]
class MiddlewareCommLinkManagerImplementationTests--><rect fill="#FEFECE" filter="url(#fhuks78875fd5)" height="150.4375" id="MiddlewareCommLinkManagerImplementationTests" style="stroke: #A80036; stroke-width: 1.5;" width="350" x="1708" y="59"/><ellipse cx="1723" cy="75" fill="#ADD1B2" rx="11" ry="11" style="stroke: #A80036; stroke-width: 1.0;"/><path d="M1725.9688,80.6406 Q1725.3906,80.9375 1724.75,81.0781 Q1724.1094,81.2344 1723.4063,81.2344 Q1720.9063,81.2344 1719.5781,79.5938 Q1718.2656,77.9375 1718.2656,74.8125 Q1718.2656,71.6875 1719.5781,70.0313 Q1720.9063,68.375 1723.4063,68.375 Q1724.1094,68.375 1724.75,68.5313 Q1725.4063,68.6875 1725.9688,68.9844 L1725.9688,71.7031 Q1725.3438,71.125 1724.75,70.8594 Q1724.1563,70.5781 1723.5313,70.5781 Q1722.1875,70.5781 1721.5,71.6563 Q1720.8125,72.7188 1720.8125,74.8125 Q1720.8125,76.9063 1721.5,77.9844 Q1722.1875,79.0469 1723.5313,79.0469 Q1724.1563,79.0469 1724.75,78.7813 Q1725.3438,78.5 1725.9688,77.9219 L1725.9688,80.6406 Z "/><text fill="#000000" font-family="sans-serif" font-size="12" lengthAdjust="spacingAndGlyphs" textLength="318" x="1737" y="79.1543">MiddlewareCommLinkManagerImplementationTests</text><line style="stroke: #A80036; stroke-width: 1.5;" x1="1709" x2="2057" y1="91" y2="91"/><line style="stroke: #A80036; stroke-width: 1.5;" x1="1709" x2="2057" y1="99" y2="99"/><ellipse cx="1719" cy="110" fill="#84BE84" rx="3" ry="3" style="stroke: #038048; stroke-width: 1.0;"/><text fill="#000000" font-family="sans-serif" font-size="11" lengthAdjust="spacingAndGlyphs" textLength="222" x="1728" y="113.2104">void rfidDoesNotMatchStopsTestCase()</text><ellipse cx="1719" cy="122.8047" fill="#84BE84" rx="3" ry="3" style="stroke: #038048; stroke-width: 1.0;"/><text fill="#000000" font-family="sans-serif" font-size="11" lengthAdjust="spacingAndGlyphs" textLength="137" x="1728" y="126.0151">void storeRequestSent()</text><ellipse cx="1719" cy="135.6094" fill="#84BE84" rx="3" ry="3" style="stroke: #038048; stroke-width: 1.0;"/><text fill="#000000" font-family="sans-serif" font-size="11" lengthAdjust="spacingAndGlyphs" textLength="260" x="1728" y="138.8198">void emptyDatabaseReturnsEmptyTrackData()</text><ellipse cx="1719" cy="148.4141" fill="#84BE84" rx="3" ry="3" style="stroke: #038048; stroke-width: 1.0;"/><text fill="#000000" font-family="sans-serif" font-size="11" lengthAdjust="spacingAndGlyphs" textLength="258" x="1728" y="151.6245">void notEnoughDataReturnsPartialTrackData()</text><ellipse cx="1719" cy="161.2188" fill="#84BE84" rx="3" ry="3" style="stroke: #038048; stroke-width: 1.0;"/><text fill="#000000" font-family="sans-serif" font-size="11" lengthAdjust="spacingAndGlyphs" textLength="223" x="1728" y="164.4292">void enoughTrackDataReturnsFullData()</text><ellipse cx="1719" cy="174.0234" fill="#84BE84" rx="3" ry="3" style="stroke: #038048; stroke-width: 1.0;"/><text fill="#000000" font-family="sans-serif" font-size="11" lengthAdjust="spacingAndGlyphs" textLength="224" x="1728" y="177.2339">void commDatabaseInterfaceIsNotNull()</text><ellipse cx="1719" cy="186.8281" fill="#84BE84" rx="3" ry="3" style="stroke: #038048; stroke-width: 1.0;"/><text fill="#000000" font-family="sans-serif" font-size="11" lengthAdjust="spacingAndGlyphs" textLength="151" x="1728" y="190.0386">void gisManagerIsNotNull()</text><ellipse cx="1719" cy="199.6328" fill="#84BE84" rx="3" ry="3" style="stroke: #038048; stroke-width: 1.0;"/><text fill="#000000" font-family="sans-serif" font-size="11" lengthAdjust="spacingAndGlyphs" textLength="163" x="1728" y="202.8433">void storedTrackDataCheck()</text><!--MD5=[002ff5c7151dea29dff01f25b38dca5f]
class MiddlewareCommDatabaseInterfaceImplementationTests--><rect fill="#FEFECE" filter="url(#fhuks78875fd5)" height="73.6094" id="MiddlewareCommDatabaseInterfaceImplementationTests" style="stroke: #A80036; stroke-width: 1.5;" width="388" x="2093" y="97"/><ellipse cx="2108" cy="113" fill="#ADD1B2" rx="11" ry="11" style="stroke: #A80036; stroke-width: 1.0;"/><path d="M2110.9688,118.6406 Q2110.3906,118.9375 2109.75,119.0781 Q2109.1094,119.2344 2108.4063,119.2344 Q2105.9063,119.2344 2104.5781,117.5938 Q2103.2656,115.9375 2103.2656,112.8125 Q2103.2656,109.6875 2104.5781,108.0313 Q2105.9063,106.375 2108.4063,106.375 Q2109.1094,106.375 2109.75,106.5313 Q2110.4063,106.6875 2110.9688,106.9844 L2110.9688,109.7031 Q2110.3438,109.125 2109.75,108.8594 Q2109.1563,108.5781 2108.5313,108.5781 Q2107.1875,108.5781 2106.5,109.6563 Q2105.8125,110.7188 2105.8125,112.8125 Q2105.8125,114.9063 2106.5,115.9844 Q2107.1875,117.0469 2108.5313,117.0469 Q2109.1563,117.0469 2109.75,116.7813 Q2110.3438,116.5 2110.9688,115.9219 L2110.9688,118.6406 Z "/><text fill="#000000" font-family="sans-serif" font-size="12" lengthAdjust="spacingAndGlyphs" textLength="356" x="2122" y="117.1543">MiddlewareCommDatabaseInterfaceImplementationTests</text><line style="stroke: #A80036; stroke-width: 1.5;" x1="2094" x2="2480" y1="129" y2="129"/><line style="stroke: #A80036; stroke-width: 1.5;" x1="2094" x2="2480" y1="137" y2="137"/><ellipse cx="2104" cy="148" fill="#84BE84" rx="3" ry="3" style="stroke: #038048; stroke-width: 1.0;"/><text fill="#000000" font-family="sans-serif" font-size="11" lengthAdjust="spacingAndGlyphs" textLength="115" x="2113" y="151.2104">void rfidInIsRfidOut()</text><ellipse cx="2104" cy="160.8047" fill="#84BE84" rx="3" ry="3" style="stroke: #038048; stroke-width: 1.0;"/><text fill="#000000" font-family="sans-serif" font-size="11" lengthAdjust="spacingAndGlyphs" textLength="225" x="2113" y="164.0151">void databaseCommInterfaceIsNotNull()</text><!--MD5=[4d30ae449f97cbb7dd3c9db2a55e1ec0]
class TrackDataCalculatorTests--><rect fill="#FEFECE" filter="url(#fhuks78875fd5)" height="86.4141" id="TrackDataCalculatorTests" style="stroke: #A80036; stroke-width: 1.5;" width="239" x="1407.5" y="309.5"/><ellipse cx="1443.2" cy="325.5" fill="#ADD1B2" rx="11" ry="11" style="stroke: #A80036; stroke-width: 1.0;"/><path d="M1446.1688,331.1406 Q1445.5906,331.4375 1444.95,331.5781 Q1444.3094,331.7344 1443.6063,331.7344 Q1441.1063,331.7344 1439.7781,330.0938 Q1438.4656,328.4375 1438.4656,325.3125 Q1438.4656,322.1875 1439.7781,320.5313 Q1441.1063,318.875 1443.6063,318.875 Q1444.3094,318.875 1444.95,319.0313 Q1445.6063,319.1875 1446.1688,319.4844 L1446.1688,322.2031 Q1445.5438,321.625 1444.95,321.3594 Q1444.3563,321.0781 1443.7313,321.0781 Q1442.3875,321.0781 1441.7,322.1563 Q1441.0125,323.2188 1441.0125,325.3125 Q1441.0125,327.4063 1441.7,328.4844 Q1442.3875,329.5469 1443.7313,329.5469 Q1444.3563,329.5469 1444.95,329.2813 Q1445.5438,329 1446.1688,328.4219 L1446.1688,331.1406 Z "/><text fill="#000000" font-family="sans-serif" font-size="12" lengthAdjust="spacingAndGlyphs" textLength="161" x="1461.8" y="329.6543">TrackDataCalculatorTests</text><line style="stroke: #A80036; stroke-width: 1.5;" x1="1408.5" x2="1645.5" y1="341.5" y2="341.5"/><line style="stroke: #A80036; stroke-width: 1.5;" x1="1408.5" x2="1645.5" y1="349.5" y2="349.5"/><ellipse cx="1418.5" cy="360.5" fill="#84BE84" rx="3" ry="3" style="stroke: #038048; stroke-width: 1.0;"/><text fill="#000000" font-family="sans-serif" font-size="11" lengthAdjust="spacingAndGlyphs" textLength="146" x="1427.5" y="363.7104">void calculateSpeedTest()</text><ellipse cx="1418.5" cy="373.3047" fill="#84BE84" rx="3" ry="3" style="stroke: #038048; stroke-width: 1.0;"/><text fill="#000000" font-family="sans-serif" font-size="11" lengthAdjust="spacingAndGlyphs" textLength="160" x="1427.5" y="376.5151">void calculateDirectionTest()</text><rect fill="#F24D5C" height="6" style="stroke: #C82930; stroke-width: 1.0;" width="6" x="1415.5" y="383.1094"/><text fill="#000000" font-family="sans-serif" font-size="11" lengthAdjust="spacingAndGlyphs" textLength="213" x="1427.5" y="389.3198">void calculateRootMeanSquaredTest()</text><!--MD5=[3bea4f8dbcd5725ad50d10553f2379e2]
class MiddlewareCommLinkManagerStub--><rect fill="#FEFECE" filter="url(#fhuks78875fd5)" height="77.6094" id="MiddlewareCommLinkManagerStub" style="stroke: #A80036; stroke-width: 1.5;" width="248" x="1682" y="313.5"/><ellipse cx="1697" cy="329.5" fill="#ADD1B2" rx="11" ry="11" style="stroke: #A80036; stroke-width: 1.0;"/><path d="M1699.9688,335.1406 Q1699.3906,335.4375 1698.75,335.5781 Q1698.1094,335.7344 1697.4063,335.7344 Q1694.9063,335.7344 1693.5781,334.0938 Q1692.2656,332.4375 1692.2656,329.3125 Q1692.2656,326.1875 1693.5781,324.5313 Q1694.9063,322.875 1697.4063,322.875 Q1698.1094,322.875 1698.75,323.0313 Q1699.4063,323.1875 1699.9688,323.4844 L1699.9688,326.2031 Q1699.3438,325.625 1698.75,325.3594 Q1698.1563,325.0781 1697.5313,325.0781 Q1696.1875,325.0781 1695.5,326.1563 Q1694.8125,327.2188 1694.8125,329.3125 Q1694.8125,331.4063 1695.5,332.4844 Q1696.1875,333.5469 1697.5313,333.5469 Q1698.1563,333.5469 1698.75,333.2813 Q1699.3438,333 1699.9688,332.4219 L1699.9688,335.1406 Z "/><text fill="#000000" font-family="sans-serif" font-size="12" lengthAdjust="spacingAndGlyphs" textLength="216" x="1711" y="333.6543">MiddlewareCommLinkManagerStub</text><line style="stroke: #A80036; stroke-width: 1.5;" x1="1683" x2="1929" y1="345.5" y2="345.5"/><line style="stroke: #A80036; stroke-width: 1.5;" x1="1683" x2="1929" y1="353.5" y2="353.5"/><ellipse cx="1693" cy="381.3047" fill="#84BE84" rx="3" ry="3" style="stroke: #038048; stroke-width: 1.0;"/><text fill="#000000" font-family="sans-serif" font-size="11" lengthAdjust="spacingAndGlyphs" textLength="160" x="1702" y="384.5151">TrackData parseRfid(int rfid)</text><line style="stroke: #A80036; stroke-width: 1.0; stroke-dasharray: 1.0,2.0;" x1="1683" x2="1773" y1="367.9023" y2="367.9023"/><text fill="#000000" font-family="sans-serif" font-size="11" lengthAdjust="spacingAndGlyphs" textLength="66" x="1773" y="371.2104">Use Case 1</text><line style="stroke: #A80036; stroke-width: 1.0; stroke-dasharray: 1.0,2.0;" x1="1839" x2="1929" y1="367.9023" y2="367.9023"/><!--MD5=[d266ff1a021c6b2abe780212ea4bc90b]
class MiddlewareCommDatabaseInterfaceStub--><rect fill="#FEFECE" filter="url(#fhuks78875fd5)" height="77.6094" id="MiddlewareCommDatabaseInterfaceStub" style="stroke: #A80036; stroke-width: 1.5;" width="286" x="1965" y="313.5"/><ellipse cx="1980" cy="329.5" fill="#ADD1B2" rx="11" ry="11" style="stroke: #A80036; stroke-width: 1.0;"/><path d="M1982.9688,335.1406 Q1982.3906,335.4375 1981.75,335.5781 Q1981.1094,335.7344 1980.4063,335.7344 Q1977.9063,335.7344 1976.5781,334.0938 Q1975.2656,332.4375 1975.2656,329.3125 Q1975.2656,326.1875 1976.5781,324.5313 Q1977.9063,322.875 1980.4063,322.875 Q1981.1094,322.875 1981.75,323.0313 Q1982.4063,323.1875 1982.9688,323.4844 L1982.9688,326.2031 Q1982.3438,325.625 1981.75,325.3594 Q1981.1563,325.0781 1980.5313,325.0781 Q1979.1875,325.0781 1978.5,326.1563 Q1977.8125,327.2188 1977.8125,329.3125 Q1977.8125,331.4063 1978.5,332.4844 Q1979.1875,333.5469 1980.5313,333.5469 Q1981.1563,333.5469 1981.75,333.2813 Q1982.3438,333 1982.9688,332.4219 L1982.9688,335.1406 Z "/><text fill="#000000" font-family="sans-serif" font-size="12" lengthAdjust="spacingAndGlyphs" textLength="254" x="1994" y="333.6543">MiddlewareCommDatabaseInterfaceStub</text><line style="stroke: #A80036; stroke-width: 1.5;" x1="1966" x2="2250" y1="345.5" y2="345.5"/><line style="stroke: #A80036; stroke-width: 1.5;" x1="1966" x2="2250" y1="353.5" y2="353.5"/><ellipse cx="1976" cy="381.3047" fill="#84BE84" rx="3" ry="3" style="stroke: #038048; stroke-width: 1.0;"/><text fill="#000000" font-family="sans-serif" font-size="11" lengthAdjust="spacingAndGlyphs" textLength="122" x="1985" y="384.5151">int checkCurrentRfid()</text><line style="stroke: #A80036; stroke-width: 1.0; stroke-dasharray: 1.0,2.0;" x1="1966" x2="2075" y1="367.9023" y2="367.9023"/><text fill="#000000" font-family="sans-serif" font-size="11" lengthAdjust="spacingAndGlyphs" textLength="66" x="2075" y="371.2104">Use Case 1</text><line style="stroke: #A80036; stroke-width: 1.0; stroke-dasharray: 1.0,2.0;" x1="2141" x2="2250" y1="367.9023" y2="367.9023"/><!--MD5=[e3f4175480349659b88084d56af4bbf1]
class DatabaseCommInterfaceStub--><rect fill="#FEFECE" filter="url(#fhuks78875fd5)" height="128.8281" id="DatabaseCommInterfaceStub" style="stroke: #A80036; stroke-width: 1.5;" width="398" x="1346" y="496"/><ellipse cx="1448.75" cy="512" fill="#ADD1B2" rx="11" ry="11" style="stroke: #A80036; stroke-width: 1.0;"/><path d="M1451.7188,517.6406 Q1451.1406,517.9375 1450.5,518.0781 Q1449.8594,518.2344 1449.1563,518.2344 Q1446.6563,518.2344 1445.3281,516.5938 Q1444.0156,514.9375 1444.0156,511.8125 Q1444.0156,508.6875 1445.3281,507.0313 Q1446.6563,505.375 1449.1563,505.375 Q1449.8594,505.375 1450.5,505.5313 Q1451.1563,505.6875 1451.7188,505.9844 L1451.7188,508.7031 Q1451.0938,508.125 1450.5,507.8594 Q1449.9063,507.5781 1449.2813,507.5781 Q1447.9375,507.5781 1447.25,508.6563 Q1446.5625,509.7188 1446.5625,511.8125 Q1446.5625,513.9063 1447.25,514.9844 Q1447.9375,516.0469 1449.2813,516.0469 Q1449.9063,516.0469 1450.5,515.7813 Q1451.0938,515.5 1451.7188,514.9219 L1451.7188,517.6406 Z "/><text fill="#000000" font-family="sans-serif" font-size="12" lengthAdjust="spacingAndGlyphs" textLength="184" x="1469.25" y="516.1543">DatabaseCommInterfaceStub</text><line style="stroke: #A80036; stroke-width: 1.5;" x1="1347" x2="1743" y1="528" y2="528"/><line style="stroke: #A80036; stroke-width: 1.5;" x1="1347" x2="1743" y1="536" y2="536"/><ellipse cx="1357" cy="563.8047" fill="#84BE84" rx="3" ry="3" style="stroke: #038048; stroke-width: 1.0;"/><text fill="#000000" font-family="sans-serif" font-size="11" font-style="italic" lengthAdjust="spacingAndGlyphs" textLength="156" x="1366" y="567.0151">int receiveGetRfidRequest()</text><ellipse cx="1357" cy="576.6094" fill="#84BE84" rx="3" ry="3" style="stroke: #038048; stroke-width: 1.0;"/><text fill="#000000" font-family="sans-serif" font-size="11" font-style="italic" lengthAdjust="spacingAndGlyphs" textLength="372" x="1366" y="579.8198">LocationDataPoint receiveGetLocationDataPointRequest(int offset)</text><ellipse cx="1357" cy="589.4141" fill="#84BE84" rx="3" ry="3" style="stroke: #038048; stroke-width: 1.0;"/><text fill="#000000" font-family="sans-serif" font-size="11" font-style="italic" lengthAdjust="spacingAndGlyphs" textLength="284" x="1366" y="592.6245">TrackData receiveGetTrackDataRequest(int offset)</text><ellipse cx="1357" cy="602.2188" fill="#84BE84" rx="3" ry="3" style="stroke: #038048; stroke-width: 1.0;"/><text fill="#000000" font-family="sans-serif" font-size="11" font-style="italic" lengthAdjust="spacingAndGlyphs" textLength="283" x="1366" y="605.4292">void storeTrackDataRequest(TrackData trackData)</text><ellipse cx="1357" cy="615.0234" fill="#84BE84" rx="3" ry="3" style="stroke: #038048; stroke-width: 1.0;"/><text fill="#000000" font-family="sans-serif" font-size="11" font-style="italic" lengthAdjust="spacingAndGlyphs" textLength="183" x="1366" y="618.2339">String receiveGetModeRequest()</text><line style="stroke: #A80036; stroke-width: 1.0; stroke-dasharray: 1.0,2.0;" x1="1347" x2="1512" y1="550.4023" y2="550.4023"/><text fill="#000000" font-family="sans-serif" font-size="11" lengthAdjust="spacingAndGlyphs" textLength="66" x="1512" y="553.7104">Use Case 1</text><line style="stroke: #A80036; stroke-width: 1.0; stroke-dasharray: 1.0,2.0;" x1="1578" x2="1743" y1="550.4023" y2="550.4023"/><!--MD5=[8d86b1aa2030a05d452f78e2e1fb37ed]
class TrackDataCalculator--><rect fill="#FEFECE" filter="url(#fhuks78875fd5)" height="86.4141" id="TrackDataCalculator" style="stroke: #A80036; stroke-width: 1.5;" width="518" x="2537" y="91"/><ellipse cx="2728.25" cy="107" fill="#ADD1B2" rx="11" ry="11" style="stroke: #A80036; stroke-width: 1.0;"/><path d="M2731.2188,112.6406 Q2730.6406,112.9375 2730,113.0781 Q2729.3594,113.2344 2728.6563,113.2344 Q2726.1563,113.2344 2724.8281,111.5938 Q2723.5156,109.9375 2723.5156,106.8125 Q2723.5156,103.6875 2724.8281,102.0313 Q2726.1563,100.375 2728.6563,100.375 Q2729.3594,100.375 2730,100.5313 Q2730.6563,100.6875 2731.2188,100.9844 L2731.2188,103.7031 Q2730.5938,103.125 2730,102.8594 Q2729.4063,102.5781 2728.7813,102.5781 Q2727.4375,102.5781 2726.75,103.6563 Q2726.0625,104.7188 2726.0625,106.8125 Q2726.0625,108.9063 2726.75,109.9844 Q2727.4375,111.0469 2728.7813,111.0469 Q2729.4063,111.0469 2730,110.7813 Q2730.5938,110.5 2731.2188,109.9219 L2731.2188,112.6406 Z "/><text fill="#000000" font-family="sans-serif" font-size="12" lengthAdjust="spacingAndGlyphs" textLength="127" x="2748.75" y="111.1543">TrackDataCalculator</text><line style="stroke: #A80036; stroke-width: 1.5;" x1="2538" x2="3054" y1="123" y2="123"/><line style="stroke: #A80036; stroke-width: 1.5;" x1="2538" x2="3054" y1="131" y2="131"/><ellipse cx="2548" cy="142" fill="#84BE84" rx="3" ry="3" style="stroke: #038048; stroke-width: 1.0;"/><text fill="#000000" font-family="sans-serif" font-size="11" lengthAdjust="spacingAndGlyphs" text-decoration="underline" textLength="341" x="2557" y="145.2104">float calculateSpeed(LocationDataPoint[] locationDataPoints)</text><ellipse cx="2548" cy="154.8047" fill="#84BE84" rx="3" ry="3" style="stroke: #038048; stroke-width: 1.0;"/><text fill="#000000" font-family="sans-serif" font-size="11" lengthAdjust="spacingAndGlyphs" text-decoration="underline" textLength="355" x="2557" y="158.0151">float calculateDirection(LocationDataPoint[] locationDataPoints)</text><rect fill="#F24D5C" height="6" style="stroke: #C82930; stroke-width: 1.0;" width="6" x="2545" y="164.6094"/><text fill="#000000" font-family="sans-serif" font-size="11" lengthAdjust="spacingAndGlyphs" text-decoration="underline" textLength="492" x="2557" y="170.8198">LocationDataPoint[] calculateRootMeanSquared(LocationDataPoint[] locationDataPoints)</text><!--MD5=[79aecf45dbeed97c47edbe657f491fed]
link MiddlewareCommInterface to MiddlewareCommLinkManager--><!--MD5=[3e31a8e5d6790d9de494b190b5cea52e]
link MiddlewareCommLinkManager to MiddlewareCommDatabaseInterface--><!--MD5=[1ada782ccdd2db703c66336b5f162fc3]
link MiddlewareCommInterface to MiddlewareCommInterfaceImplementation--><!--MD5=[6da0790ce05b99ca6092638cec9e90cf]
link MiddlewareCommInterfaceImplementation to MiddlewareCommLinkManagerImplementation--><!--MD5=[36e461af31e28567fecbe5ff60035690]
link MiddlewareCommLinkManagerImplementation to MiddlewareCommDatabaseInterfaceImplementation--><!--MD5=[ce6c844e7919a8f6f76001b7f296af78]
link MiddlewareCommInterfaceImplementationTests to MiddlewareCommLinkManagerImplementationTests--><!--MD5=[3a12c45484f2afe8107fcf684edf8632]
link MiddlewareCommLinkManagerImplementationTests to MiddlewareCommDatabaseInterfaceImplementationTests--><!--MD5=[a838cbddba67618560d21b534c15253a]
link MiddlewareCommInterfaceImplementationTests to TrackDataCalculatorTests--><!--MD5=[903a9875e449f16eb55177d9b4a91305]
link TrackDataCalculatorTests to MiddlewareCommLinkManagerStub--><!--MD5=[b940ce8b92caa55cf550a1d2b063f3f9]
link MiddlewareCommLinkManagerStub to MiddlewareCommDatabaseInterfaceStub--><!--MD5=[b54ff60b3a8e60754b9804127a777003]
link TrackDataCalculatorTests to DatabaseCommInterfaceStub--><!--MD5=[730f7171d155938a8b3bf7d80b74d040]
@startuml Middleware02Packages


package edu.oakland.production.middleware02 {

}


package edu.oakland.production.middleware02 {
    interface MiddlewareCommInterface {
        __
        .. Use Case 1 ..
        {abstract} + TrackData requestRfid(int rfid)
    }
}


package edu.oakland.production.middleware02 {
    interface MiddlewareCommLinkManager {
        __
        .. Use Case 1 ..
        {abstract} + TrackData parseRfid(int rfid)
    }
}


package edu.oakland.production.middleware02 {
    interface MiddlewareCommDatabaseInterface {
        __
        .. Use Case 1 ..
        {abstract} + int checkCurrentRfid()
    }
}


package edu.oakland.production.middleware02 {
    class MiddlewareCommInterfaceImplementation {
        - MiddlewareCommLinkManager middlewareManager
        __
        + MiddlewareCommInterfaceImplementation(
        \tMiddlewareCommLinkManager middlewareManager)
        .. Use Case 1 ..
        + TrackData requestRfid(int rfid)
}


package edu.oakland.production.middleware02 {
    class MiddlewareCommLinkManagerImplementation {
        - MiddlewareCommDatabaseInterface middlewareCommDatabaseInterface
        - MiddlewareGisManager middlewareGisManager
        __
        + MiddlewareCommLinkManagerImplementation(
        \tMiddlewareCommDatabaseInterface middlewareCommDatabaseInterface
        \tMiddlewareGisManager middlewareGisManager)
        .. Use Case 1 ..
        + TrackData parseRfid(int rfid)
        - float calculateLocationDataPoint()
        - float calculateTrackData()
    }
}


package edu.oakland.production.middleware02 {
    class MiddlewareCommDatabaseInterfaceImplementation {
        + DatabaseCommInterface databaseCommInterface
        __
        + MiddlewareCommDatabaseInterfaceImplementation(
        \tDatabaseCommInterface databaseCommInterface)
        .. Use Case 1 ..
        + int checkCurrentRfid()
    }
}



package edu.oakland.test.middleware02 {
    
}


package edu.oakland.test.middleware02 {
    class MiddlewareCommInterfaceImplementationTests {
        + void rfidInIsRfidOut()
        + void MiddlewareCommLinkManagerIsNotNull()
    }
}


package edu.oakland.test.middleware02 {
    class MiddlewareCommLinkManagerImplementationTests {
        + void rfidDoesNotMatchStopsTestCase()
        + void storeRequestSent()
        + void emptyDatabaseReturnsEmptyTrackData()
        + void notEnoughDataReturnsPartialTrackData()
        + void enoughTrackDataReturnsFullData()
        + void commDatabaseInterfaceIsNotNull()
        + void gisManagerIsNotNull()
        + void storedTrackDataCheck()
    }
}


package edu.oakland.test.middleware02 {
    class MiddlewareCommDatabaseInterfaceImplementationTests {
        + void rfidInIsRfidOut()
        + void databaseCommInterfaceIsNotNull()
    }
}


package edu.oakland.test.middleware02 {
    class TrackDataCalculatorTests {
      + void calculateSpeedTest()
      + void calculateDirectionTest()
      - void calculateRootMeanSquaredTest()
    }
}


package edu.oakland.test.middleware02 {
    class MiddlewareCommLinkManagerStub {
        __
        .. Use Case 1 ..
        + TrackData parseRfid(int rfid)
    }
}


package edu.oakland.test.middleware02 {
    class MiddlewareCommDatabaseInterfaceStub {
        __
        .. Use Case 1 ..
        + int checkCurrentRfid()
    }
}


package edu.oakland.test.middleware02 {
    class DatabaseCommInterfaceStub {
        __
        .. Use Case 1 ..
        {abstract} + int receiveGetRfidRequest()
        {abstract} + LocationDataPoint receiveGetLocationDataPointRequest(int offset)
        {abstract} + TrackData receiveGetTrackDataRequest(int offset)
        {abstract} + void storeTrackDataRequest(TrackData trackData)
        {abstract} + String receiveGetModeRequest()
    }
}



package edu.oakland.helper.middleware02 {
    
}


package edu.oakland.helper.middleware02 {
    class TrackDataCalculator {
        {static} + float calculateSpeed(LocationDataPoint[] locationDataPoints)
        {static} + float calculateDirection(LocationDataPoint[] locationDataPoints)
        {static} - LocationDataPoint[] calculateRootMeanSquared(LocationDataPoint[] locationDataPoints)
    }
}



@enduml

PlantUML version 1.2020.02(Sun Mar 01 10:22:07 GMT 2020)
(GPL source distribution)
Java Runtime: OpenJDK Runtime Environment
JVM: OpenJDK 64-Bit Server VM
Java Version: 11.0.9+11-Ubuntu-0ubuntu1
Operating System: Linux
Default Encoding: ANSI_X3.4-1968
Language: en
Country: US
--></g></svg>