<?xml version="1.0" encoding="UTF-8" standalone="no"?><svg xmlns="http://www.w3.org/2000/svg" xmlns:xlink="http://www.w3.org/1999/xlink" contentScriptType="application/ecmascript" contentStyleType="text/css" height="588px" preserveAspectRatio="none" style="width:872px;height:588px;" version="1.1" viewBox="0 0 872 588" width="872px" zoomAndPan="magnify"><defs><filter height="300%" id="flagl8rm5pq9n" width="300%" x="-1" y="-1"><feGaussianBlur result="blurOut" stdDeviation="2.0"/><feColorMatrix in="blurOut" result="blurOut2" type="matrix" values="0 0 0 0 0 0 0 0 0 0 0 0 0 0 0 0 0 0 .4 0"/><feOffset dx="4.0" dy="4.0" in="blurOut2" result="blurOut3"/><feBlend in="SourceGraphic" in2="blurOut3" mode="normal"/></filter></defs><g><!--MD5=[850b37b0b8d882ee2cad74ae2a956f48]
cluster edu.oakland.helper.admin--><polygon fill="#FFFFFF" filter="url(#flagl8rm5pq9n)" points="22,24,232,24,239,46.2969,850,46.2969,850,576,22,576,22,24" style="stroke: #000000; stroke-width: 1.5;"/><line style="stroke: #000000; stroke-width: 1.5;" x1="22" x2="239" y1="46.2969" y2="46.2969"/><text fill="#000000" font-family="sans-serif" font-size="14" font-weight="bold" lengthAdjust="spacingAndGlyphs" textLength="204" x="26" y="38.9951">edu.oakland.helper.admin</text><!--MD5=[478f5cd13d8e163685b267303d2bfb71]
class LocationDataPoint--><rect fill="#FEFECE" filter="url(#flagl8rm5pq9n)" height="163.2422" id="LocationDataPoint" style="stroke: #A80036; stroke-width: 1.5;" width="352" x="281" y="397"/><ellipse cx="395.25" cy="413" fill="#ADD1B2" rx="11" ry="11" style="stroke: #A80036; stroke-width: 1.0;"/><path d="M398.2188,418.6406 Q397.6406,418.9375 397,419.0781 Q396.3594,419.2344 395.6563,419.2344 Q393.1563,419.2344 391.8281,417.5938 Q390.5156,415.9375 390.5156,412.8125 Q390.5156,409.6875 391.8281,408.0313 Q393.1563,406.375 395.6563,406.375 Q396.3594,406.375 397,406.5313 Q397.6563,406.6875 398.2188,406.9844 L398.2188,409.7031 Q397.5938,409.125 397,408.8594 Q396.4063,408.5781 395.7813,408.5781 Q394.4375,408.5781 393.75,409.6563 Q393.0625,410.7188 393.0625,412.8125 Q393.0625,414.9063 393.75,415.9844 Q394.4375,417.0469 395.7813,417.0469 Q396.4063,417.0469 397,416.7813 Q397.5938,416.5 398.2188,415.9219 L398.2188,418.6406 Z "/><text fill="#000000" font-family="sans-serif" font-size="12" lengthAdjust="spacingAndGlyphs" textLength="115" x="415.75" y="417.1543">LocationDataPoint</text><line style="stroke: #A80036; stroke-width: 1.5;" x1="282" x2="632" y1="429" y2="429"/><rect fill="none" height="6" style="stroke: #C82930; stroke-width: 1.0;" width="6" x="289" y="437"/><text fill="#000000" font-family="sans-serif" font-size="11" lengthAdjust="spacingAndGlyphs" textLength="43" x="301" y="443.2104">float lat</text><rect fill="none" height="6" style="stroke: #C82930; stroke-width: 1.0;" width="6" x="289" y="449.8047"/><text fill="#000000" font-family="sans-serif" font-size="11" lengthAdjust="spacingAndGlyphs" textLength="46" x="301" y="456.0151">float lng</text><rect fill="none" height="6" style="stroke: #C82930; stroke-width: 1.0;" width="6" x="289" y="462.6094"/><text fill="#000000" font-family="sans-serif" font-size="11" lengthAdjust="spacingAndGlyphs" textLength="112" x="301" y="468.8198">LocalDateTime time</text><line style="stroke: #A80036; stroke-width: 1.5;" x1="282" x2="632" y1="475.4141" y2="475.4141"/><ellipse cx="292" cy="486.4141" fill="#84BE84" rx="3" ry="3" style="stroke: #038048; stroke-width: 1.0;"/><text fill="#000000" font-family="sans-serif" font-size="11" lengthAdjust="spacingAndGlyphs" textLength="326" x="301" y="489.6245">LocationDataPoint(float lat, float lng, LocalDateTime time)</text><ellipse cx="292" cy="499.2188" fill="#84BE84" rx="3" ry="3" style="stroke: #038048; stroke-width: 1.0;"/><text fill="#000000" font-family="sans-serif" font-size="11" lengthAdjust="spacingAndGlyphs" textLength="72" x="301" y="502.4292">float getLat()</text><ellipse cx="292" cy="512.0234" fill="#84BE84" rx="3" ry="3" style="stroke: #038048; stroke-width: 1.0;"/><text fill="#000000" font-family="sans-serif" font-size="11" lengthAdjust="spacingAndGlyphs" textLength="75" x="301" y="515.2339">float getLng()</text><ellipse cx="292" cy="524.8281" fill="#84BE84" rx="3" ry="3" style="stroke: #038048; stroke-width: 1.0;"/><text fill="#000000" font-family="sans-serif" font-size="11" lengthAdjust="spacingAndGlyphs" textLength="141" x="301" y="528.0386">LocalDateTime getTime()</text><rect fill="#F24D5C" height="6" style="stroke: #C82930; stroke-width: 1.0;" width="6" x="289" y="534.6328"/><text fill="#000000" font-family="sans-serif" font-size="11" lengthAdjust="spacingAndGlyphs" textLength="255" x="301" y="540.8433">float[] normalizeLatAndLng(float lat, float lng)</text><rect fill="#F24D5C" height="6" style="stroke: #C82930; stroke-width: 1.0;" width="6" x="289" y="547.4375"/><text fill="#000000" font-family="sans-serif" font-size="11" lengthAdjust="spacingAndGlyphs" textLength="158" x="301" y="553.6479">float normalizeLng(float lng)</text><!--MD5=[39a9b949d1787538902e1dfaac894da1]
class Satellite--><rect fill="#FEFECE" filter="url(#flagl8rm5pq9n)" height="278.4844" id="Satellite" style="stroke: #A80036; stroke-width: 1.5;" width="325" x="509.5" y="59"/><ellipse cx="642.25" cy="75" fill="#ADD1B2" rx="11" ry="11" style="stroke: #A80036; stroke-width: 1.0;"/><path d="M645.2188,80.6406 Q644.6406,80.9375 644,81.0781 Q643.3594,81.2344 642.6563,81.2344 Q640.1563,81.2344 638.8281,79.5938 Q637.5156,77.9375 637.5156,74.8125 Q637.5156,71.6875 638.8281,70.0313 Q640.1563,68.375 642.6563,68.375 Q643.3594,68.375 644,68.5313 Q644.6563,68.6875 645.2188,68.9844 L645.2188,71.7031 Q644.5938,71.125 644,70.8594 Q643.4063,70.5781 642.7813,70.5781 Q641.4375,70.5781 640.75,71.6563 Q640.0625,72.7188 640.0625,74.8125 Q640.0625,76.9063 640.75,77.9844 Q641.4375,79.0469 642.7813,79.0469 Q643.4063,79.0469 644,78.7813 Q644.5938,78.5 645.2188,77.9219 L645.2188,80.6406 Z "/><text fill="#000000" font-family="sans-serif" font-size="12" lengthAdjust="spacingAndGlyphs" textLength="51" x="662.75" y="79.1543">Satellite</text><line style="stroke: #A80036; stroke-width: 1.5;" x1="510.5" x2="833.5" y1="91" y2="91"/><rect fill="none" height="6" style="stroke: #C82930; stroke-width: 1.0;" width="6" x="517.5" y="99"/><text fill="#000000" font-family="sans-serif" font-size="11" lengthAdjust="spacingAndGlyphs" textLength="116" x="529.5" y="105.2104">String satelliteName</text><rect fill="none" height="6" style="stroke: #C82930; stroke-width: 1.0;" width="6" x="517.5" y="111.8047"/><text fill="#000000" font-family="sans-serif" font-size="11" lengthAdjust="spacingAndGlyphs" textLength="66" x="529.5" y="118.0151">int strength</text><rect fill="none" height="6" style="stroke: #C82930; stroke-width: 1.0;" width="6" x="517.5" y="124.6094"/><text fill="#000000" font-family="sans-serif" font-size="11" lengthAdjust="spacingAndGlyphs" text-decoration="underline" textLength="146" x="529.5" y="130.8198">float incrementLatAmount</text><rect fill="none" height="6" style="stroke: #C82930; stroke-width: 1.0;" width="6" x="517.5" y="137.4141"/><text fill="#000000" font-family="sans-serif" font-size="11" lengthAdjust="spacingAndGlyphs" text-decoration="underline" textLength="149" x="529.5" y="143.6245">float incrementLngAmount</text><rect fill="none" height="6" style="stroke: #C82930; stroke-width: 1.0;" width="6" x="517.5" y="150.2188"/><text fill="#000000" font-family="sans-serif" font-size="11" lengthAdjust="spacingAndGlyphs" text-decoration="underline" textLength="223" x="529.5" y="156.4292">LocationDataPoint initLocationDataPoint</text><rect fill="none" height="6" style="stroke: #C82930; stroke-width: 1.0;" width="6" x="517.5" y="163.0234"/><text fill="#000000" font-family="sans-serif" font-size="11" lengthAdjust="spacingAndGlyphs" text-decoration="underline" textLength="144" x="529.5" y="169.2339">int countGetLocationCalls</text><line style="stroke: #A80036; stroke-width: 1.5;" x1="510.5" x2="833.5" y1="175.8281" y2="175.8281"/><ellipse cx="520.5" cy="186.8281" fill="#84BE84" rx="3" ry="3" style="stroke: #038048; stroke-width: 1.0;"/><text fill="#000000" font-family="sans-serif" font-size="11" lengthAdjust="spacingAndGlyphs" textLength="244" x="529.5" y="190.0386">Satellite(String satelliteName, int strength)</text><ellipse cx="520.5" cy="199.6328" fill="#84BE84" rx="3" ry="3" style="stroke: #038048; stroke-width: 1.0;"/><text fill="#000000" font-family="sans-serif" font-size="11" lengthAdjust="spacingAndGlyphs" textLength="143" x="529.5" y="202.8433">String getSatelliteName()</text><ellipse cx="520.5" cy="212.4375" fill="#84BE84" rx="3" ry="3" style="stroke: #038048; stroke-width: 1.0;"/><text fill="#000000" font-family="sans-serif" font-size="11" lengthAdjust="spacingAndGlyphs" textLength="93" x="529.5" y="215.6479">int getStrength()</text><ellipse cx="520.5" cy="225.2422" fill="#84BE84" rx="3" ry="3" style="stroke: #038048; stroke-width: 1.0;"/><text fill="#000000" font-family="sans-serif" font-size="11" lengthAdjust="spacingAndGlyphs" textLength="178" x="529.5" y="228.4526">LocationDataPoint getLocation()</text><ellipse cx="520.5" cy="238.0469" fill="#84BE84" rx="3" ry="3" style="stroke: #038048; stroke-width: 1.0;"/><text fill="#000000" font-family="sans-serif" font-size="11" lengthAdjust="spacingAndGlyphs" textLength="168" x="529.5" y="241.2573">void setStrength(int strength)</text><rect fill="#F24D5C" height="6" style="stroke: #C82930; stroke-width: 1.0;" width="6" x="517.5" y="247.8516"/><text fill="#000000" font-family="sans-serif" font-size="11" lengthAdjust="spacingAndGlyphs" textLength="208" x="529.5" y="254.062">boolean strengthIsValid(int strength)</text><ellipse cx="520.5" cy="263.6563" fill="#84BE84" rx="3" ry="3" style="stroke: #038048; stroke-width: 1.0;"/><text fill="#000000" font-family="sans-serif" font-size="11" lengthAdjust="spacingAndGlyphs" text-decoration="underline" textLength="243" x="529.5" y="266.8667">void satelliteInit(float incrementLatAmount,</text><text fill="#000000" font-family="sans-serif" font-size="11" lengthAdjust="spacingAndGlyphs" textLength="153" x="561.5" y="279.6714">float incrementLngAmount,</text><text fill="#000000" font-family="sans-serif" font-size="11" lengthAdjust="spacingAndGlyphs" textLength="227" x="561.5" y="292.4761">LocationDataPoint initLocationDataPoint)</text><rect fill="#F24D5C" height="6" style="stroke: #C82930; stroke-width: 1.0;" width="6" x="517.5" y="299.0703"/><text fill="#000000" font-family="sans-serif" font-size="11" lengthAdjust="spacingAndGlyphs" text-decoration="underline" textLength="230" x="529.5" y="305.2808">float generateNewLocationDataPointLat()</text><rect fill="#F24D5C" height="6" style="stroke: #C82930; stroke-width: 1.0;" width="6" x="517.5" y="311.875"/><text fill="#000000" font-family="sans-serif" font-size="11" lengthAdjust="spacingAndGlyphs" text-decoration="underline" textLength="233" x="529.5" y="318.0854">float generateNewLocationDataPointLng()</text><rect fill="#F24D5C" height="6" style="stroke: #C82930; stroke-width: 1.0;" width="6" x="517.5" y="324.6797"/><text fill="#000000" font-family="sans-serif" font-size="11" lengthAdjust="spacingAndGlyphs" text-decoration="underline" textLength="299" x="529.5" y="330.8901">LocalDateTime generateNewLocationDataPointTime()</text><!--MD5=[a664fa1bf59865fa43f25e28dac38862]
class TrackData--><rect fill="#FEFECE" filter="url(#flagl8rm5pq9n)" height="214.4609" id="TrackData" style="stroke: #A80036; stroke-width: 1.5;" width="437" x="37.5" y="91"/><ellipse cx="219.75" cy="107" fill="#ADD1B2" rx="11" ry="11" style="stroke: #A80036; stroke-width: 1.0;"/><path d="M222.7188,112.6406 Q222.1406,112.9375 221.5,113.0781 Q220.8594,113.2344 220.1563,113.2344 Q217.6563,113.2344 216.3281,111.5938 Q215.0156,109.9375 215.0156,106.8125 Q215.0156,103.6875 216.3281,102.0313 Q217.6563,100.375 220.1563,100.375 Q220.8594,100.375 221.5,100.5313 Q222.1563,100.6875 222.7188,100.9844 L222.7188,103.7031 Q222.0938,103.125 221.5,102.8594 Q220.9063,102.5781 220.2813,102.5781 Q218.9375,102.5781 218.25,103.6563 Q217.5625,104.7188 217.5625,106.8125 Q217.5625,108.9063 218.25,109.9844 Q218.9375,111.0469 220.2813,111.0469 Q220.9063,111.0469 221.5,110.7813 Q222.0938,110.5 222.7188,109.9219 L222.7188,112.6406 Z "/><text fill="#000000" font-family="sans-serif" font-size="12" lengthAdjust="spacingAndGlyphs" textLength="64" x="240.25" y="111.1543">TrackData</text><line style="stroke: #A80036; stroke-width: 1.5;" x1="38.5" x2="473.5" y1="123" y2="123"/><rect fill="none" height="6" style="stroke: #C82930; stroke-width: 1.0;" width="6" x="45.5" y="131"/><text fill="#000000" font-family="sans-serif" font-size="11" lengthAdjust="spacingAndGlyphs" textLength="148" x="57.5" y="137.2104">LocationDataPoint[] points</text><rect fill="none" height="6" style="stroke: #C82930; stroke-width: 1.0;" width="6" x="45.5" y="143.8047"/><text fill="#000000" font-family="sans-serif" font-size="11" lengthAdjust="spacingAndGlyphs" textLength="118" x="57.5" y="150.0151">float courseDirection</text><rect fill="none" height="6" style="stroke: #C82930; stroke-width: 1.0;" width="6" x="45.5" y="156.6094"/><text fill="#000000" font-family="sans-serif" font-size="11" lengthAdjust="spacingAndGlyphs" textLength="64" x="57.5" y="162.8198">float speed</text><rect fill="none" height="6" style="stroke: #C82930; stroke-width: 1.0;" width="6" x="45.5" y="169.4141"/><text fill="#000000" font-family="sans-serif" font-size="11" lengthAdjust="spacingAndGlyphs" textLength="101" x="57.5" y="175.6245">boolean validData</text><rect fill="none" height="6" style="stroke: #C82930; stroke-width: 1.0;" width="6" x="45.5" y="182.2188"/><text fill="#000000" font-family="sans-serif" font-size="11" lengthAdjust="spacingAndGlyphs" textLength="125" x="57.5" y="188.4292">String statusMessage</text><line style="stroke: #A80036; stroke-width: 1.5;" x1="38.5" x2="473.5" y1="195.0234" y2="195.0234"/><ellipse cx="48.5" cy="206.0234" fill="#84BE84" rx="3" ry="3" style="stroke: #038048; stroke-width: 1.0;"/><text fill="#000000" font-family="sans-serif" font-size="11" lengthAdjust="spacingAndGlyphs" textLength="213" x="57.5" y="209.2339">TrackData(LocationDataPoint[] points)</text><ellipse cx="48.5" cy="218.8281" fill="#84BE84" rx="3" ry="3" style="stroke: #038048; stroke-width: 1.0;"/><text fill="#000000" font-family="sans-serif" font-size="11" lengthAdjust="spacingAndGlyphs" textLength="411" x="57.5" y="222.0386">TrackData(LocationDataPoint[] points, float courseDirection, float speed)</text><ellipse cx="48.5" cy="231.6328" fill="#84BE84" rx="3" ry="3" style="stroke: #038048; stroke-width: 1.0;"/><text fill="#000000" font-family="sans-serif" font-size="11" lengthAdjust="spacingAndGlyphs" textLength="94" x="57.5" y="234.8433">boolean isValid()</text><ellipse cx="48.5" cy="244.4375" fill="#84BE84" rx="3" ry="3" style="stroke: #038048; stroke-width: 1.0;"/><text fill="#000000" font-family="sans-serif" font-size="11" lengthAdjust="spacingAndGlyphs" textLength="146" x="57.5" y="247.6479">float getCourseDirection()</text><ellipse cx="48.5" cy="257.2422" fill="#84BE84" rx="3" ry="3" style="stroke: #038048; stroke-width: 1.0;"/><text fill="#000000" font-family="sans-serif" font-size="11" lengthAdjust="spacingAndGlyphs" textLength="91" x="57.5" y="260.4526">float getSpeed()</text><ellipse cx="48.5" cy="270.0469" fill="#84BE84" rx="3" ry="3" style="stroke: #038048; stroke-width: 1.0;"/><text fill="#000000" font-family="sans-serif" font-size="11" lengthAdjust="spacingAndGlyphs" textLength="247" x="57.5" y="273.2573">LocationDataPoint[] getLocationDataPoints()</text><ellipse cx="48.5" cy="282.8516" fill="#84BE84" rx="3" ry="3" style="stroke: #038048; stroke-width: 1.0;"/><text fill="#000000" font-family="sans-serif" font-size="11" lengthAdjust="spacingAndGlyphs" textLength="152" x="57.5" y="286.062">String getStatusMessage()</text><ellipse cx="48.5" cy="295.6563" fill="#84BE84" rx="3" ry="3" style="stroke: #038048; stroke-width: 1.0;"/><text fill="#000000" font-family="sans-serif" font-size="11" lengthAdjust="spacingAndGlyphs" textLength="266" x="57.5" y="298.8667">void setStatusMessage(String statusMessage)</text><!--MD5=[d62036522628f9b37a5d8c87f1934c41]
link Satellite to LocationDataPoint--><path d="M558.1056,346.5277 C558.1056,346.5277 536.92,373.98 527.24,386.52 " fill="none" id="Satellite-LocationDataPoint" style="stroke: #A80036; stroke-width: 1.0;"/><polygon fill="#A80036" points="519.22,396.9,527.8835,392.2157,522.2733,392.9406,521.5484,387.3303,519.22,396.9" style="stroke: #A80036; stroke-width: 1.0;"/><line style="stroke: #A80036; stroke-width: 1.0;" x1="522.2733" x2="527.165" y1="392.9406" y2="386.61"/><polygon fill="#A80036" points="565.44,337.03,558.6069,339.3341,558.1056,346.5277,564.9387,344.2237,565.44,337.03" style="stroke: #A80036; stroke-width: 1.0;"/><!--MD5=[a834184dfe29b3f363d293bc852e6e04]
link TrackData to LocationDataPoint--><path d="M339.5859,314.8082 C339.5859,314.8082 374.78,363.58 390.96,386 " fill="none" id="TrackData-LocationDataPoint" style="stroke: #A80036; stroke-width: 1.0;"/><polygon fill="#A80036" points="398.78,396.84,396.7533,387.2019,395.8525,392.7866,390.2679,391.8858,398.78,396.84" style="stroke: #A80036; stroke-width: 1.0;"/><line style="stroke: #A80036; stroke-width: 1.0;" x1="395.8525" x2="391.18" y1="392.7866" y2="386.295"/><polygon fill="#FFFFFF" points="332.56,305.08,332.8302,312.286,339.5859,314.8082,339.3157,307.6021,332.56,305.08" style="stroke: #A80036; stroke-width: 1.0;"/><!--MD5=[44f1a3605ac576bae66aad360c870718]
@startuml AdminHelperPackage_InternalDependencies

package edu.oakland.helper.admin {
    
}


package edu.oakland.helper.admin {
    class LocationDataPoint {
        - float lat
        - float lng
        - LocalDateTime time
        + LocationDataPoint(float lat, float lng, LocalDateTime time)
        + float getLat()
        + float getLng()
        + LocalDateTime getTime()
        - float[] normalizeLatAndLng(float lat, float lng)
        - float normalizeLng(float lng)
    }
}


package edu.oakland.helper.admin {
    class Satellite {
        - String satelliteName
        - int strength
        {static} - float incrementLatAmount
        {static} - float incrementLngAmount
        {static} - LocationDataPoint initLocationDataPoint
        {static} - int countGetLocationCalls
        __
        + Satellite(String satelliteName, int strength)
        + String getSatelliteName()
        + int getStrength()
        + LocationDataPoint getLocation()
        + void setStrength(int strength)
        - boolean strengthIsValid(int strength)
        {static} + void satelliteInit(float incrementLatAmount,
        \tfloat incrementLngAmount,
        \tLocationDataPoint initLocationDataPoint)
        {static} - float generateNewLocationDataPointLat()
        {static} - float generateNewLocationDataPointLng()
        {static} - LocalDateTime generateNewLocationDataPointTime()
    }
}


Satellite *- -> LocationDataPoint

package edu.oakland.helper.admin {
    class TrackData {
        - LocationDataPoint[] points
        - float courseDirection
        - float speed
        - boolean validData
        - String statusMessage
        + TrackData(LocationDataPoint[] points)
        + TrackData(LocationDataPoint[] points, float courseDirection, float speed)
        + boolean isValid()
        + float getCourseDirection()
        + float getSpeed()
        + LocationDataPoint[] getLocationDataPoints()
        + String getStatusMessage()
        + void setStatusMessage(String statusMessage)
    }
}


TrackData o- -> LocationDataPoint

@enduml

PlantUML version 1.2020.02(Sun Mar 01 10:22:07 GMT 2020)
(GPL source distribution)
Java Runtime: OpenJDK Runtime Environment
JVM: OpenJDK 64-Bit Server VM
Java Version: 11.0.9+11-Ubuntu-0ubuntu1
Operating System: Linux
Default Encoding: ANSI_X3.4-1968
Language: en
Country: US
--></g></svg>